# component mesh in local component coordinates
v -48.5 4 -2.62573624
v -48.5 4 2.62574005
v -26.5711288 4 -15.1299477
v -46.8033066 4 12.9751244
v -26.5711288 4 25.5496445
v -47.9322166 4 7.84642792
v -45.1264992 4 17.9517059
v -42.921463 4 22.7178116
v -40.2140465 4 27.2175751
v -18.0711288 4 -15.1299477
v -18.0711288 4 10.2999039
v -18.0711288 4 25.5496445
v 5.17264318 4 -48.2156906
v -0.0711309984 4 -48.5
v -4.07113123 4 -26.1299458
v -4.07113123 4 34.5496445
v -2.07113099 4 18.5496445
v -2.07113099 4 24.5496445
v -45.1264992 4 -17.9517002
v -46.8033066 4 -12.9751244
v -47.9322166 4 -7.8464241
v -33.4245567 4 -35.2107773
v -37.0359879 4 -31.3982315
v -26.5711288 4 -26.1299458
v -40.2140465 4 -27.2175713
v -42.921463 4 -22.7178078
v -5.31490183 4 -48.2156906
v -10.4971943 4 -47.3660965
v -15.5572529 4 -45.9611778
v -0.324629068 4 -8.72842407
v -0.0711309984 4 -8.75
v 0.96677947 4 -6.16706467
v 0.768831015 4 -6.00723267
v 13.9288692 4 18.5496445
v 20.2934933 4 44.0174103
v 24.9332333 4 41.5575714
v 13.9288692 4 24.5496445
v 29.2798214 4 38.6105194
v 33.2822914 4 35.2107849
v 36.8937263 4 31.3982315
v 5.17264318 4 48.2156906
v 10.3549366 4 47.3660965
v 15.4149952 4 45.9611816
v -37.0359879 4 31.3982315
v -33.4245567 4 35.2107849
v -26.5711288 4 34.5496445
v -29.4220791 4 38.6105194
v -25.0754929 4 41.5575714
v -20.435751 4 44.0174103
v -15.5572529 4 45.9611816
v -10.4971943 4 47.3660965
v -20.435751 4 -44.0174065
v -25.0754929 4 -41.5575714
v -29.4220791 4 -38.6105118
v 40.0717812 4 27.2175751
v 42.7792015 4 22.7178116
v 44.9842415 4 17.9517059
v -5.31490183 4 48.2156906
v -0.0711309984 4 48.5
v -1.46296144 4 6.69071579
v -1.34842134 4 6.46353912
v -0.911092997 4 -6.00723267
v -0.688982248 4 8.61684418
v -0.911092997 4 8.49276733
v 15.4149952 4 -45.9611778
v 10.3549366 4 -47.3660965
v 1.39520431 4 6.93398285
v 1.42751861 4 7.18634033
v 46.6610451 4 12.9751244
v 47.789959 4 7.84642792
v 48.3577385 4 2.62574005
v -0.802671671 4 5.94047928
v -0.688982248 4 -5.88315582
v -0.449095011 4 -5.79839706
v -0.449095011 4 8.70159912
v -1.27712464 4 -6.35804749
v -1.41051698 4 -6.57469177
v 1.32070327 4 -7.80928421
v 1.39520431 4 -7.56601715
v 44.9842415 4 -17.9517002
v -1.19713807 4 6.25898743
v -1.0134604 4 6.08294678
v 0.546724081 4 8.61684418
v 0.306836843 4 8.70159912
v 0.0560777113 4 8.74459839
v -0.198339716 4 8.74459839
v -1.10903764 4 8.33293533
v -1.27712464 4 8.14195251
v -1.41051698 4 7.92530823
v -1.19713807 4 -8.24100876
v -1.0134604 4 -8.41705322
v 1.26825881 4 7.92530823
v 1.13486648 4 8.14195251
v 0.0560777113 4 -5.75540161
v 0.428579092 4 5.83568573
v 0.660413504 4 5.94047928
v -1.53746247 4 -7.56601715
v -1.46296144 4 -7.80928421
v -1.34842134 4 -8.03646088
v -0.802671671 4 -8.55952072
v -0.570841074 4 -8.66431427
v 0.182370886 4 -8.72842407
v 0.428579092 4 -8.66431427
v 20.2934933 4 -44.0174065
v 0.660413504 4 -8.55952072
v 24.9332333 4 -41.5575714
v 0.87120223 4 -8.41705322
v 29.2798214 4 -38.6105118
v 1.0548799 4 -8.24100876
v 46.6610451 4 -12.9751244
v 1.42751861 4 -7.31365967
v 47.789959 4 -7.8464241
v 1.41672301 4 7.44052887
v 1.36311889 4 7.68923569
v 0.96677947 4 8.33293533
v 0.768831015 4 8.49276733
v -0.570841074 4 5.83568573
v -0.324629068 4 5.77157593
v -0.198339716 4 -5.75540161
v -0.0711309984 4 5.75
v 0.182370886 4 5.77157593
v -1.50538087 4 -6.81076431
v -1.55898118 4 -7.05947113
v -1.56977677 4 -7.31365967
v 42.7792015 4 -22.7178078
v 40.0717812 4 -27.2175713
v 1.20616317 4 -8.03646088
v 36.8937263 4 -31.3982315
v 33.2822914 4 -35.2107773
v 48.3577385 4 -2.62573624
v 1.41672301 4 -7.05947113
v 1.36311889 4 -6.81076431
v 1.26825881 4 -6.57469177
v 1.13486648 4 -6.35804749
v 0.87120223 4 6.08294678
v 1.0548799 4 6.25898743
v 0.306836843 4 -5.79839706
v 1.20616317 4 6.46353912
v 0.546724081 4 -5.88315582
v 1.32070327 4 6.69071579
v -1.50538087 4 7.68923569
v -1.55898118 4 7.44052887
v -1.56977677 4 7.18634033
v -1.10903764 4 -6.16706467
v -1.53746247 4 6.93398285
v -18.0711288 16.058073 5.35015488
v -18.0711288 16.058073 10.2999039
v -18.0711288 21.0078201 10.2999039
v -18.0711288 12.74224 8.04566956
v -18.0711288 12.5225391 8.0643692
v -18.0711288 12.3028383 8.04566956
v -18.0711288 12.0894575 7.99010849
v -18.0711288 4.8689208 -15.5229111
v -18.0711288 11.108326 0.400405884
v -18.0711288 10.8152828 -18.3703766
v -18.0711288 16.058073 -4.54933929
v -18.0711288 14.5985603 -20.4843922
v -18.0711288 11.8885355 7.89928818
v -18.0711288 11.7058535 7.77581406
v -18.0711288 11.5466652 7.62324524
v -18.0711288 11.4155512 7.44596863
v -18.0711288 11.3162832 7.24908066
v -18.0711288 11.2517166 7.03824997
v -18.0711288 11.2237101 6.81954193
v -18.0711288 11.2330685 6.59924698
v -18.0711288 11.2795229 6.38369751
v -18.0711288 13.8213682 6.81954193
v -18.0711288 13.7933607 7.03824997
v -18.0711288 13.7287951 7.24908066
v -18.0711288 11.3617353 6.17910385
v -18.0711288 13.2505064 5.68730545
v -18.0711288 13.0580101 5.57977295
v -18.0711288 13.42206 5.82582474
v -18.0711288 13.5677357 5.99134445
v -18.0711288 13.683342 6.17910385
v -18.0711288 13.6295271 7.44596863
v -18.0711288 13.4984131 7.62324524
v -18.0711288 13.3392248 7.77581406
v -18.0711288 11.4773426 5.99134445
v -18.0711288 11.6230183 5.82582474
v -18.0711288 11.7945719 5.68730545
v -18.0711288 13.7655554 6.38369751
v -18.0711288 13.8120089 6.59924698
v -18.0711288 13.1565428 7.89928818
v -18.0711288 12.9556208 7.99010849
v -18.0711288 11.9870682 5.57977295
v -18.0711288 12.1949682 5.50631714
v -18.0711288 12.4122906 5.46905136
v -18.0711288 12.6327868 5.46905136
v -18.0711288 12.8501101 5.50631714
v -18.0711288 21.3009243 -25.4362926
v -18.0711288 17.980175 -22.7457027
v -18.0711288 16.0821609 -21.4243565
v -18.0711288 24.6920128 -28.7297955
v -18.0711288 40.0997009 -28.590971
v -18.0711288 27.2225914 -31.0020065
v -18.0711288 57.6864014 -1.30324936
v -18.0711288 59.4578819 -4.20645905
v -18.0711288 54.9489441 -13.7417297
v -18.0711288 60.7493896 -7.35269165
v -18.0711288 61.5286102 -10.6632156
v -18.0711288 39.8664207 -35.4145927
v -18.0711288 36.4818268 -35.080986
v -18.0711288 46.0305824 -25.9510174
v -18.0711288 46.2439613 -25.8954563
v -18.0711288 46.463665 -25.8767567
v -18.0711288 30.9073162 10.2999039
v -18.0711288 44.8987274 10.2999039
v -18.0711288 55.4792786 1.28429031
v -18.0711288 33.1921883 -34.2178345
v -18.0711288 30.0798149 -32.8467407
v -18.0711288 45.8296623 -26.0418377
v -18.0711288 45.6469765 -26.1653099
v -18.0711288 47.5088615 -27.9497814
v -18.0711288 52.6352119 -21.0442333
v -18.0711288 52.8067665 -21.1827526
v -18.0711288 60.6642494 -20.7441101
v -18.0711288 54.8242035 -20.2708111
v -18.0711288 54.8335609 -20.0505142
v -18.0711288 47.7066841 -27.5574284
v -18.0711288 47.7531357 -27.3418808
v -18.0711288 52.2452621 -20.2708111
v -18.0711288 52.2639122 -19.8318062
v -18.0711288 46.6833687 -25.8954563
v -18.0711288 46.8967438 -25.9510174
v -18.0711288 61.4855042 -17.4437599
v -18.0711288 53.7544327 -18.8243885
v -18.0711288 53.5347328 -18.8056889
v -18.0711288 53.315033 -18.8243885
v -18.0711288 53.1016502 -18.8799477
v -18.0711288 52.9007263 -18.9707718
v -18.0711288 52.7180481 -19.0942421
v -18.0711288 47.7624931 -27.1215839
v -18.0711288 47.7344894 -26.902874
v -18.0711288 47.6699219 -26.6920452
v -18.0711288 45.487793 -26.3178806
v -18.0711288 45.3566742 -26.4951572
v -18.0711288 45.2574081 -26.6920452
v -18.0711288 54.8055534 -19.8318062
v -18.0711288 54.7409859 -19.6209755
v -18.0711288 61.7760468 -14.0551987
v -18.0711288 52.558857 -19.2468109
v -18.0711288 52.427742 -19.4240913
v -18.0711288 52.328476 -19.6209755
v -18.0711288 47.570652 -26.4951572
v -18.0711288 47.439537 -26.3178806
v -18.0711288 52.2359047 -20.0505142
v -18.0711288 47.2803497 -26.1653099
v -18.0711288 47.0976677 -26.0418377
v -18.0711288 45.1928406 -26.902874
v -18.0711288 45.1648331 -27.1215839
v -18.0711288 45.1741943 -27.3418808
v -18.0711288 54.6417198 -19.4240913
v -18.0711288 54.5106049 -19.2468109
v -18.0711288 45.4184685 -27.9497814
v -18.0711288 45.3028603 -27.762022
v -18.0711288 45.2206459 -27.5574284
v -18.0711288 45.5641441 -28.1152992
v -18.0711288 45.7356987 -28.2538204
v -18.0711288 43.2612762 -35.2103119
v -18.0711288 45.9281921 -28.3613548
v -18.0711288 46.1360931 -28.4348106
v -18.0711288 54.3514175 -19.0942421
v -18.0711288 54.1687355 -18.9707718
v -18.0711288 53.9678154 -18.8799477
v -18.0711288 46.3534203 -28.4720745
v -18.0711288 46.5739098 -28.4720745
v -18.0711288 46.7912369 -28.4348106
v -18.0711288 55.2847366 -29.3133831
v -18.0711288 53.8623047 -21.3637409
v -18.0711288 57.5245857 -26.7541161
v -18.0711288 54.0702057 -21.2902851
v -18.0711288 54.2626991 -21.1827526
v -18.0711288 54.4342499 -21.0442333
v -18.0711288 59.3328362 -23.8736649
v -18.0711288 54.5799294 -20.8787117
v -18.0711288 54.6955338 -20.6909542
v -18.0711288 54.7777481 -20.4863586
v -18.0711288 46.9991379 -28.3613548
v -18.0711288 47.1916313 -28.2538204
v -18.0711288 47.3631859 -28.1152992
v -18.0711288 52.4895363 -20.8787117
v -18.0711288 47.6244698 -27.762022
v -18.0711288 52.2917175 -20.4863586
v -18.0711288 52.3739281 -20.6909542
v -18.0711288 46.5814438 -34.4732475
v -18.0711288 52.9992599 -21.2902851
v -18.0711288 49.7438431 -33.2218475
v -18.0711288 53.2071609 -21.3637409
v -18.0711288 52.669342 -31.4874268
v -18.0711288 53.4244843 -21.4010048
v -18.0711288 53.6449814 -21.4010048
v -18.0711288 35.0226555 17.6913528
v -18.0711288 39.1605911 14.9325485
v -18.0711288 43.195015 11.7516212
v -18.0711288 20.8830776 13.670311
v -18.0711288 20.8924351 13.8906097
v -18.0711288 25.9575672 15.249649
v -18.0711288 18.3227844 14.1093178
v -18.0711288 18.2947769 13.8906097
v -18.0711288 18.9596043 14.970356
v -18.0711288 18.7769222 14.8468819
v -18.0711288 13.3111258 25.2346344
v -18.0711288 20.8366241 13.4547653
v -18.0711288 30.83144 20.007515
v -18.0711288 26.5777168 21.9043503
v -18.0711288 18.3041363 13.670311
v -18.0711288 18.3505898 13.4547653
v -18.0711288 18.4328041 13.2501717
v -18.0711288 17.8325825 24.5079651
v -18.0711288 22.2494717 23.4002304
v -18.0711288 19.8133087 15.1167374
v -18.0711288 18.617733 14.694313
v -18.0711288 18.486618 14.5170364
v -18.0711288 18.387352 14.3201485
v -18.0711288 18.5484104 13.0624123
v -18.0711288 18.6940861 12.8968925
v -18.0711288 18.8656387 12.7583733
v -18.0711288 20.3215733 12.7583733
v -18.0711288 20.4931278 12.8968925
v -18.0711288 20.6388035 13.0624123
v -18.0711288 20.7544098 13.2501717
v -18.0711288 19.5936069 15.135437
v -18.0711288 19.3739052 15.1167374
v -18.0711288 19.1605263 15.0611763
v -18.0711288 19.0581341 12.6508408
v -18.0711288 19.2660351 12.5773849
v -18.0711288 19.4833603 12.5401192
v -18.0711288 19.7038536 12.5401192
v -18.0711288 19.9211788 12.5773849
v -18.0711288 20.1290798 12.6508408
v -18.0711288 20.8644295 14.1093178
v -18.0711288 20.7998619 14.3201485
v -18.0711288 20.7005939 14.5170364
v -18.0711288 20.5694809 14.694313
v -18.0711288 20.4102936 14.8468819
v -18.0711288 20.2276115 14.970356
v -18.0711288 20.0266895 15.0611763
v -18.0711288 8.66767979 25.5815201
v -23.3376522 26.5432644 29.7822952
v -23.4941235 25.1684361 30.712059
v -4.07113123 25.2389622 30.6675415
v -24.4588585 17.5343838 33.8968277
v -4.07113123 15.3766308 34.3008728
v -24.28438 18.8245583 33.5595398
v -4.07113123 18.824667 33.5595169
v -24.2427006 19.1379547 33.4663925
v -24.6846504 15.9136171 34.2185898
v -24.7611122 15.3764343 34.3009033
v -4.07113123 11.8585806 34.5496445
v -24.9755802 13.8990364 34.4662399
v -25.2818699 11.8585806 34.5496445
v -4.07113123 22.1340656 32.3403091
v -23.6622925 23.7398167 31.5459213
v -23.8427753 22.2576523 32.2841873
v -24.0363045 20.7214794 32.9258957
v -4.07113123 28.0775681 28.5744858
v -23.1692352 28.0775681 28.5744858
v -23.1917477 27.8689804 28.750351
v -0.0711309984 0 -48.5
v 5.17264318 0 -48.2156906
v 10.3549366 0 -47.3660965
v 15.4149952 0 -45.9611778
v 20.2934933 0 -44.0174065
v 24.9332333 0 -41.5575714
v 29.2798214 0 -38.6105118
v 33.2822914 0 -35.2107773
v 36.8937263 0 -31.3982315
v 40.0717812 0 -27.2175713
v 42.7792015 0 -22.7178078
v 44.9842415 0 -17.9517002
v 46.6610451 0 -12.9751244
v 47.789959 0 -7.8464241
v 48.3577385 0 -2.62573624
v 48.3577385 0 2.62574005
v 47.789959 0 7.84642792
v 46.6610451 0 12.9751244
v 44.9842415 0 17.9517059
v 42.7792015 0 22.7178116
v 40.0717812 0 27.2175751
v 36.8937263 0 31.3982315
v 33.2822914 0 35.2107849
v 29.2798214 0 38.6105194
v 24.9332333 0 41.5575714
v 20.2934933 0 44.0174103
v 15.4149952 0 45.9611816
v 10.3549366 0 47.3660965
v 5.17264318 0 48.2156906
v -0.0711309984 0 48.5
v -5.31490183 0 48.2156906
v -10.4971943 0 47.3660965
v -15.5572529 0 45.9611816
v -20.435751 0 44.0174103
v -25.0754929 0 41.5575714
v -29.4220791 0 38.6105194
v -33.4245567 0 35.2107849
v -37.0359879 0 31.3982315
v -40.2140465 0 27.2175751
v -42.921463 0 22.7178116
v -45.1264992 0 17.9517059
v -46.8033066 0 12.9751244
v -47.9322166 0 7.84642792
v -48.5 0 2.62574005
v -48.5 0 -2.62573624
v -47.9322166 0 -7.8464241
v -46.8033066 0 -12.9751244
v -45.1264992 0 -17.9517002
v -42.921463 0 -22.7178078
v -40.2140465 0 -27.2175713
v -37.0359879 0 -31.3982315
v -33.4245567 0 -35.2107773
v -29.4220791 0 -38.6105118
v -25.0754929 0 -41.5575714
v -20.435751 0 -44.0174065
v -15.5572529 0 -45.9611778
v -10.4971943 0 -47.3660965
v -5.31490183 0 -48.2156906
v -0.570841074 0 -8.66431427
v -0.324629068 0 -8.72842407
v -0.0711309984 0 -8.75
v 0.182370886 0 -8.72842407
v -0.911092997 0 -6.00723267
v 2.28469634 0 -2.91763306
v 1.75772643 0 -3.2737999
v -1.53746247 0 -7.56601715
v -1.56977677 0 -7.31365967
v -0.688982248 0 -5.88315582
v -0.449095011 0 -5.79839706
v 2.74389052 0 -2.47752762
v -1.46296144 0 -7.80928421
v -0.688982248 0 8.61684418
v -0.911092997 0 8.49276733
v -1.10903764 0 8.33293533
v -1.19713807 0 -8.24100876
v -1.0134604 0 -8.41705322
v -0.802671671 0 -8.55952072
v -1.55898118 0 7.44052887
v -1.56977677 0 7.18634033
v -1.53746247 0 6.93398285
v 0.0560777113 0 8.74459839
v -0.198339716 0 8.74459839
v -0.449095011 0 8.70159912
v 1.17814422 0 -3.53578949
v 0.562623739 0 -3.69605637
v -1.10903764 0 -6.16706467
v -0.0711309984 0 -3.75
v -1.50538087 0 7.68923569
v -1.27712464 0 8.14195251
v -1.41051698 0 7.92530823
v -2.66589952 0 2.70733643
v -0.0711309984 0 5.75
v -3.08611894 0 2.22987747
v -0.324629068 0 5.77157593
v -0.570841074 0 5.83568573
v -1.34842134 0 -8.03646088
v -0.802671671 0 5.94047928
v -1.0134604 0 6.08294678
v -3.41959977 0 1.68826675
v -3.65675569 0 1.09808731
v -3.79075456 0 0.476318359
v -2.1710341 0 3.10691452
v 0.428579092 0 5.83568573
v 0.182370886 0 5.77157593
v -1.61575913 0 3.41710663
v -1.01604676 0 3.62900162
v -0.389150858 0 3.73649216
v -1.8999846 0 -3.2737999
v -1.55898118 0 -7.05947113
v -1.32040238 0 -3.53578949
v -1.50538087 0 -6.81076431
v -0.704881907 0 -3.69605637
v -1.41051698 0 -6.57469177
v -1.27712464 0 -6.35804749
v -2.42695451 0 -2.91763306
v -2.88615251 0 -2.47752762
v -3.26436448 0 -1.96615219
v -3.55071473 0 -1.39820862
v -3.73696351 0 -0.790046692
v -3.81775117 0 -0.159152985
v -1.46296144 0 6.69071579
v -1.34842134 0 6.46353912
v -1.19713807 0 6.25898743
v 0.768831015 0 8.49276733
v 0.546724081 0 8.61684418
v 0.306836843 0 8.70159912
v 0.768831015 0 -6.00723267
v 0.96677947 0 -6.16706467
v 0.87120223 0 -8.41705322
v 1.0548799 0 -8.24100876
v 1.20616317 0 -8.03646088
v 0.428579092 0 -8.66431427
v 0.660413504 0 -8.55952072
v 1.32070327 0 -7.80928421
v 1.39520431 0 -7.56601715
v 0.96677947 0 8.33293533
v 1.13486648 0 8.14195251
v 1.26825881 0 7.92530823
v 1.36311889 0 7.68923569
v 1.13486648 0 -6.35804749
v 1.36311889 0 -6.81076431
v 1.26825881 0 -6.57469177
v 1.41672301 0 7.44052887
v 1.42751861 0 7.18634033
v 1.39520431 0 6.93398285
v 1.32070327 0 6.69071579
v 1.47350097 0 3.41710663
v 1.20616317 0 6.46353912
v 1.0548799 0 6.25898743
v 2.52364135 0 2.70733643
v 2.94386077 0 2.22987747
v 3.2773416 0 1.68826675
v 3.51449752 0 1.09808731
v 1.41672301 0 -7.05947113
v 1.42751861 0 -7.31365967
v 0.246892676 0 3.73649216
v 0.873788595 0 3.62900162
v 0.660413504 0 5.94047928
v 0.87120223 0 6.08294678
v 2.02877593 0 3.10691452
v 3.64849639 0 0.476318359
v 3.675493 0 -0.159152985
v 3.59470153 0 -0.790046692
v -0.198339716 0 -5.75540161
v 0.0560777113 0 -5.75540161
v 0.306836843 0 -5.79839706
v 3.40845275 0 -1.39820862
v 3.12210631 0 -1.96615219
v 0.546724081 0 -5.88315582
v -0.0711309984 1.5 -3.75
v 0.562623739 1.5 -3.69605637
v 1.17814422 1.5 -3.53578949
v 1.75772643 1.5 -3.2737999
v 2.28469634 1.5 -2.91763306
v 2.74389052 1.5 -2.47752762
v 3.12210631 1.5 -1.96615219
v 3.40845275 1.5 -1.39820862
v 3.59470153 1.5 -0.790046692
v 3.675493 1.5 -0.159152985
v 3.64849639 1.5 0.476318359
v 3.51449752 1.5 1.09808731
v 3.2773416 1.5 1.68826675
v 2.94386077 1.5 2.22987747
v 2.52364135 1.5 2.70733643
v 2.02877593 1.5 3.10691452
v 1.47350097 1.5 3.41710663
v 0.873788595 1.5 3.62900162
v 0.246892676 1.5 3.73649216
v -0.389150858 1.5 3.73649216
v -1.01604676 1.5 3.62900162
v -1.61575913 1.5 3.41710663
v -2.1710341 1.5 3.10691452
v -2.66589952 1.5 2.70733643
v -3.08611894 1.5 2.22987747
v -3.41959977 1.5 1.68826675
v -3.65675569 1.5 1.09808731
v -3.79075456 1.5 0.476318359
v -3.81775117 1.5 -0.159152985
v -3.73696351 1.5 -0.790046692
v -3.55071473 1.5 -1.39820862
v -3.26436448 1.5 -1.96615219
v -2.88615251 1.5 -2.47752762
v -2.42695451 1.5 -2.91763306
v -1.8999846 1.5 -3.2737999
v -1.32040238 1.5 -3.53578949
v -0.704881907 1.5 -3.69605637
v -0.0711309984 1.5 0
v -4.07113123 32.2401505 -9.86667252
v -4.07113123 33.0405045 -8.56680679
v -4.07113123 11.6445494 -26.1299458
v -4.07113123 31.925478 -17.2742119
v -4.07113123 31.4784832 -15.8146172
v -4.07113123 49.0744781 -15.8146172
v -4.07113123 64.6018524 -16.8384609
v -4.07113123 49.2683716 -14.3004761
v -4.07113123 64.7644501 -13.1506844
v -4.07113123 49.2035866 -12.7753448
v -4.07113123 64.3711395 -9.48033524
v -4.07113123 48.8819809 -11.2831001
v -4.07113123 63.4308662 -5.91073608
v -4.07113123 48.3128128 -9.86667252
v -4.07113123 61.9649696 -2.52292252
v -4.07113123 47.5124512 -8.56680679
v -4.07113123 60.0067291 0.606204987
v -4.07113123 46.503933 -7.42089844
v -4.07113123 57.6005936 3.40561295
v -4.07113123 45.3162537 -6.46191788
v -4.07113123 40.2764778 -22.9185047
v -4.07113123 42.5769272 -38.3102646
v -4.07113123 41.7974892 -22.7890491
v -4.07113123 46.2154274 -37.6877899
v -4.07113123 43.2747383 -22.4044018
v -4.07113123 49.7191048 -36.5257339
v -4.07113123 44.6657333 -21.775631
v -4.07113123 53.0084305 -34.8504791
v -4.07113123 45.9304619 -20.920826
v -4.07113123 56.0087318 -32.7000465
v -4.07113123 47.0325317 -19.8645782
v -4.07113123 58.6518936 -30.1232605
v -4.07113123 47.9402428 -18.63727
v -4.07113123 60.8779221 -27.1786137
v -4.07113123 48.6274796 -17.2742119
v -4.07113123 62.6362877 -23.9329529
v -4.07113123 63.8870583 -20.4599552
v -4.07113123 31.2845898 -14.3004761
v -4.07113123 31.3493767 -12.7753448
v -4.07113123 31.6709805 -11.2831001
v -4.07113123 34.0490303 -7.42089844
v -4.07113123 35.2367096 -6.46191788
v -4.07113123 32.6127205 -18.63727
v -4.07113123 20.7063808 -29.1765709
v -4.07113123 33.5204315 -19.8645782
v -4.07113123 22.5174351 -30.7964878
v -4.07113123 34.6225014 -20.920826
v -4.07113123 25.2547493 -33.2730293
v -4.07113123 35.8872261 -21.775631
v -4.07113123 28.3330688 -35.3102074
v -4.07113123 37.2782249 -22.4044018
v -4.07113123 31.6825142 -36.8617783
v -4.07113123 38.7554741 -22.7890491
v -4.07113123 35.227047 -37.8925171
v -4.07113123 38.8862076 -38.3790283
v -4.07113123 14.0663919 -26.3267479
v -4.07113123 16.4246845 -26.9119892
v -4.07113123 18.6575432 -27.8703117
v -4.07113123 36.5693665 -5.71744919
v -4.07113123 38.0086784 -5.20890808
v -4.07113123 39.5132256 -4.95092773
v -4.07113123 41.0397339 -4.95092773
v -4.07113123 42.5442848 -5.20890808
v -4.07113123 43.9835892 -5.71744919
v -6.07113123 40.0997009 -28.590971
v -6.07113123 54.9489441 -13.7417297
v -6.07113123 11.108326 0.400405884
v -6.07113123 25.9575672 15.249649
v -6.07113123 49.2683716 -14.3004761
v -6.07113123 49.0744781 -15.8146172
v -6.07113123 48.6274796 -17.2742119
v -6.07113123 41.0397339 -4.95092773
v -6.07113123 42.5442848 -5.20890808
v -6.07113123 43.9835892 -5.71744919
v -6.07113123 31.925478 -17.2742119
v -6.07113123 31.4784832 -15.8146172
v -6.07113123 31.2845898 -14.3004761
v -6.07113123 49.2035866 -12.7753448
v -6.07113123 48.8819809 -11.2831001
v -6.07113123 48.3128128 -9.86667252
v -6.07113123 39.5132256 -4.95092773
v -6.07113123 38.0086784 -5.20890808
v -6.07113123 36.5693665 -5.71744919
v -6.07113123 35.2367096 -6.46191788
v -6.07113123 34.0490303 -7.42089844
v -6.07113123 33.0405045 -8.56680679
v -6.07113123 32.2401505 -9.86667252
v -6.07113123 31.6709805 -11.2831001
v -6.07113123 31.3493767 -12.7753448
v -6.07113123 47.5124512 -8.56680679
v -6.07113123 46.503933 -7.42089844
v -6.07113123 45.3162537 -6.46191788
v -6.07113123 32.6127205 -18.63727
v -6.07113123 33.5204315 -19.8645782
v -6.07113123 34.6225014 -20.920826
v -6.07113123 35.8872261 -21.775631
v -6.07113123 37.2782249 -22.4044018
v -6.07113123 38.7554741 -22.7890491
v -6.07113123 40.2764778 -22.9185047
v -6.07113123 41.7974892 -22.7890491
v -6.07113123 43.2747383 -22.4044018
v -6.07113123 44.6657333 -21.775631
v -6.07113123 45.9304619 -20.920826
v -6.07113123 47.0325317 -19.8645782
v -6.07113123 47.9402428 -18.63727
v -10.5711308 19.5936069 15.135437
v -10.5711308 19.8133087 15.1167374
v -10.5711308 20.0266895 15.0611763
v -10.5711308 20.2276115 14.970356
v -10.5711308 20.4102936 14.8468819
v -10.5711308 20.5694809 14.694313
v -10.5711308 20.7005939 14.5170364
v -10.5711308 20.7998619 14.3201485
v -10.5711308 20.8644295 14.1093178
v -10.5711308 20.8924351 13.8906097
v -10.5711308 20.8830776 13.670311
v -10.5711308 20.8366241 13.4547653
v -10.5711308 20.7544098 13.2501717
v -10.5711308 20.6388035 13.0624123
v -10.5711308 20.4931278 12.8968925
v -10.5711308 20.3215733 12.7583733
v -10.5711308 20.1290798 12.6508408
v -10.5711308 19.9211788 12.5773849
v -10.5711308 19.7038536 12.5401192
v -10.5711308 19.4833603 12.5401192
v -10.5711308 19.2660351 12.5773849
v -10.5711308 19.0581341 12.6508408
v -10.5711308 18.8656387 12.7583733
v -10.5711308 18.6940861 12.8968925
v -10.5711308 18.5484104 13.0624123
v -10.5711308 18.4328041 13.2501717
v -10.5711308 18.3505898 13.4547653
v -10.5711308 18.3041363 13.670311
v -10.5711308 18.2947769 13.8906097
v -10.5711308 18.3227844 14.1093178
v -10.5711308 18.387352 14.3201485
v -10.5711308 18.486618 14.5170364
v -10.5711308 18.617733 14.694313
v -10.5711308 18.7769222 14.8468819
v -10.5711308 18.9596043 14.970356
v -10.5711308 19.1605263 15.0611763
v -10.5711308 19.3739052 15.1167374
v -10.5711308 19.5936069 13.8354378
v -10.5711308 12.5225391 8.0643692
v -10.5711308 12.74224 8.04566956
v -10.5711308 12.9556208 7.99010849
v -10.5711308 13.1565428 7.89928818
v -10.5711308 13.3392248 7.77581406
v -10.5711308 13.4984131 7.62324524
v -10.5711308 13.6295271 7.44596863
v -10.5711308 13.7287951 7.24908066
v -10.5711308 13.7933607 7.03824997
v -10.5711308 13.8213682 6.81954193
v -10.5711308 13.8120089 6.59924698
v -10.5711308 13.7655554 6.38369751
v -10.5711308 13.683342 6.17910385
v -10.5711308 13.5677357 5.99134445
v -10.5711308 13.42206 5.82582474
v -10.5711308 13.2505064 5.68730545
v -10.5711308 13.0580101 5.57977295
v -10.5711308 12.8501101 5.50631714
v -10.5711308 12.6327868 5.46905136
v -10.5711308 12.4122906 5.46905136
v -10.5711308 12.1949682 5.50631714
v -10.5711308 11.9870682 5.57977295
v -10.5711308 11.7945719 5.68730545
v -10.5711308 11.6230183 5.82582474
v -10.5711308 11.4773426 5.99134445
v -10.5711308 11.3617353 6.17910385
v -10.5711308 11.2795229 6.38369751
v -10.5711308 11.2330685 6.59924698
v -10.5711308 11.2237101 6.81954193
v -10.5711308 11.2517166 7.03824997
v -10.5711308 11.3162832 7.24908066
v -10.5711308 11.4155512 7.44596863
v -10.5711308 11.5466652 7.62324524
v -10.5711308 11.7058535 7.77581406
v -10.5711308 11.8885355 7.89928818
v -10.5711308 12.0894575 7.99010849
v -10.5711308 12.3028383 8.04566956
v -10.5711308 12.5225391 6.76436996
v -10.5711308 46.463665 -25.8767567
v -10.5711308 46.6833687 -25.8954563
v -10.5711308 46.8967438 -25.9510174
v -10.5711308 47.0976677 -26.0418377
v -10.5711308 47.2803497 -26.1653099
v -10.5711308 47.439537 -26.3178806
v -10.5711308 47.570652 -26.4951572
v -10.5711308 47.6699219 -26.6920452
v -10.5711308 47.7344894 -26.902874
v -10.5711308 47.7624931 -27.1215839
v -10.5711308 47.7531357 -27.3418808
v -10.5711308 47.7066841 -27.5574284
v -10.5711308 47.6244698 -27.762022
v -10.5711308 47.5088615 -27.9497814
v -10.5711308 47.3631859 -28.1152992
v -10.5711308 47.1916313 -28.2538204
v -10.5711308 46.9991379 -28.3613548
v -10.5711308 46.7912369 -28.4348106
v -10.5711308 46.5739098 -28.4720745
v -10.5711308 46.3534203 -28.4720745
v -10.5711308 46.1360931 -28.4348106
v -10.5711308 45.9281921 -28.3613548
v -10.5711308 45.7356987 -28.2538204
v -10.5711308 45.5641441 -28.1152992
v -10.5711308 45.4184685 -27.9497814
v -10.5711308 45.3028603 -27.762022
v -10.5711308 45.2206459 -27.5574284
v -10.5711308 45.1741943 -27.3418808
v -10.5711308 45.1648331 -27.1215839
v -10.5711308 45.1928406 -26.902874
v -10.5711308 45.2574081 -26.6920452
v -10.5711308 45.3566742 -26.4951572
v -10.5711308 45.487793 -26.3178806
v -10.5711308 45.6469765 -26.1653099
v -10.5711308 45.8296623 -26.0418377
v -10.5711308 46.0305824 -25.9510174
v -10.5711308 46.2439613 -25.8954563
v -10.5711308 46.463665 -27.1767559
v -10.5711308 53.5347328 -18.8056889
v -10.5711308 53.7544327 -18.8243885
v -10.5711308 53.9678154 -18.8799477
v -10.5711308 54.1687355 -18.9707718
v -10.5711308 54.3514175 -19.0942421
v -10.5711308 54.5106049 -19.2468109
v -10.5711308 54.6417198 -19.4240913
v -10.5711308 54.7409859 -19.6209755
v -10.5711308 54.8055534 -19.8318062
v -10.5711308 54.8335609 -20.0505142
v -10.5711308 54.8242035 -20.2708111
v -10.5711308 54.7777481 -20.4863586
v -10.5711308 54.6955338 -20.6909542
v -10.5711308 54.5799294 -20.8787117
v -10.5711308 54.4342499 -21.0442333
v -10.5711308 54.2626991 -21.1827526
v -10.5711308 54.0702057 -21.2902851
v -10.5711308 53.8623047 -21.3637409
v -10.5711308 53.6449814 -21.4010048
v -10.5711308 53.4244843 -21.4010048
v -10.5711308 53.2071609 -21.3637409
v -10.5711308 52.9992599 -21.2902851
v -10.5711308 52.8067665 -21.1827526
v -10.5711308 52.6352119 -21.0442333
v -10.5711308 52.4895363 -20.8787117
v -10.5711308 52.3739281 -20.6909542
v -10.5711308 52.2917175 -20.4863586
v -10.5711308 52.2452621 -20.2708111
v -10.5711308 52.2359047 -20.0505142
v -10.5711308 52.2639122 -19.8318062
v -10.5711308 52.328476 -19.6209755
v -10.5711308 52.427742 -19.4240913
v -10.5711308 52.558857 -19.2468109
v -10.5711308 52.7180481 -19.0942421
v -10.5711308 52.9007263 -18.9707718
v -10.5711308 53.1016502 -18.8799477
v -10.5711308 53.315033 -18.8243885
v -10.5711308 53.5347328 -20.1056881
v -23.549572 24.6920128 -28.7297955
v -23.3748474 26.2122269 -30.1803246
v -22.9592857 30.0798187 -32.8467407
v -23.0501175 29.2005138 -32.3460121
v -23.192358 27.8633366 -31.4731026
v -23.26227 27.222641 -31.0020428
v -22.6210346 33.5575333 -34.3416748
v -22.654995 33.1921692 -34.2178307
v -22.7637539 32.0478745 -33.7815399
v -22.9070301 30.5953236 -33.1155167
v -22.0944672 39.8430519 -35.414135
v -22.2183723 38.2405205 -35.3218918
v -22.3476028 36.6588478 -35.1119652
v -22.3624973 36.4818077 -35.0809822
v -22.4819126 35.0978127 -34.7854958
v -21.7706738 44.5608292 -34.9873047
v -21.8537693 43.2612419 -35.2103119
v -21.8706017 43.0064964 -35.2444763
v -21.9784679 41.4336548 -35.3873444
v -21.6784401 46.0966187 -34.6157494
v -21.6506691 46.5813942 -34.473259
v -21.4497929 50.4992905 -32.832634
v -21.4852657 49.7438049 -33.2218666
v -21.5175209 49.0839691 -33.5317154
v -21.5937214 47.6127472 -34.1281357
v -21.3898678 51.8591728 -32.0317917
v -21.3565636 52.6692886 -31.487463
v -21.2612343 55.2847176 -29.3134003
v -21.3126545 53.8111458 -30.623682
v -21.2040443 57.1701927 -27.2170944
v -21.2513218 55.5899429 -29.0098209
v -21.1424427 59.7008133 -23.1350842
v -21.150322 59.3328323 -23.8736744
v -21.1682816 58.5509834 -25.2451305
v -21.1943703 57.5245781 -26.7541256
v -21.1246624 60.6038017 -20.9220753
v -21.1235504 60.6642494 -20.744112
v -21.1131382 61.2592697 -18.605999
v -21.1094303 61.4855003 -17.4437618
v -21.1087399 61.5286102 -10.6632156
v -21.1070747 61.6337547 -11.4452744
v -21.1048679 61.7763634 -13.8475723
v -21.1048717 61.7760468 -14.0551987
v -21.1067982 61.6513748 -16.2344971
v -21.147604 59.4578781 -4.20645142
v -21.1438751 59.6326942 -4.55971146
v -21.1255283 60.5571365 -6.78093719
v -21.1220016 60.7493896 -7.35268784
v -21.1137276 61.2240715 -9.07615662
v -21.1703205 58.4665146 -2.45671463
v -21.1900692 57.6863899 -1.3032341
v -21.2548866 55.4792786 1.28429031
v -21.2065029 57.0820465 -0.50869751
v -21.3898678 51.8591728 4.3689537
v -21.8581276 43.195015 11.7516212
v -22.5841885 33.9584656 23.5609207
v -21.1923409 57.6005936 3.40561295
v -21.3898678 51.8591728 8.30027008
v -21.6928635 45.8492012 13.4238701
v -22.0944672 39.8430519 18.5442123
v -21.1185741 60.941803 -0.758171082
v -21.1361732 60.0067215 0.606220245
v -21.149065 59.3903351 1.40828705
v -21.1688919 58.5256042 2.42834473
v -21.1071568 61.6286163 -1.90450668
v -21.1020279 61.9649696 -2.5229187
v -21.0832558 63.4308662 -5.91073608
v -21.0846081 63.3078232 -5.5634346
v -21.0904102 62.8171425 -4.31806183
v -21.0978489 62.2553139 -3.09349823
v -21.0712166 64.7644501 -13.1506844
v -21.0718098 64.6836777 -11.7880669
v -21.0739956 64.4041443 -9.66339874
v -21.0742683 64.3711395 -9.48033524
v -21.0780506 63.9444885 -7.58800125
v -21.0739574 64.408699 -18.1477108
v -21.0724277 64.6018524 -16.8384609
v -21.0718021 64.6845856 -16.0384712
v -21.0711288 64.7764816 -13.9186058
v -21.0780296 63.9465675 -20.2412395
v -21.0785961 63.8870583 -20.4599552
v -21.0846081 63.3078232 -22.2735767
v -21.0927124 62.6362877 -23.9329548
v -21.1326103 60.1861992 -28.1962185
v -21.1197014 60.8779182 -27.1786213
v -21.1106167 61.4120941 -26.3094635
v -21.0951214 62.4538651 -24.3306885
v -21.1622791 58.8043251 -29.9487553
v -21.1658688 58.6518898 -30.1232662
v -21.2012405 57.2716255 -31.5654602
v -21.2381325 56.0087128 -32.700058
v -21.3140965 53.772171 -34.3663979
v -21.2514153 55.5870514 -33.0453568
v -21.486454 49.7190704 -36.5257492
v -21.4513931 50.4645081 -36.1997528
v -21.3898678 51.8591728 -35.5076523
v -21.343153 53.0083809 -34.8505058
v -21.6715775 46.2154045 -37.6877975
v -21.597887 47.5354958 -37.3184319
v -21.5206013 49.0222092 -36.8043594
v -21.8993912 42.5768814 -38.3102684
v -21.8732262 42.9670067 -38.2703247
v -21.7741108 44.5056229 -38.0507317
v -21.6823959 46.0285034 -37.7337112
v -21.9799576 41.4126129 -38.3921471
v -22.0944672 39.8430519 -38.4146729
v -22.4760418 35.164444 -37.8792458
v -22.3436222 36.7063332 -38.1569901
v -22.2163639 38.265789 -38.3358574
v -22.1676025 38.8861504 -38.3790245
v -22.6134071 33.6401329 -37.5025864
v -22.7554817 32.1335869 -37.0257187
v -23.1418247 28.3330688 -35.3102074
v -23.0462418 29.2375851 -35.790699
v -22.9004517 30.6607552 -36.452652
v -22.7992439 31.6824913 -36.8617706
v -23.192358 27.8633366 -35.0410957
v -23.3504467 26.4290791 -34.1298752
v -23.8106976 22.5174351 -30.7964878
v -23.6617317 23.7444897 -32.0000763
v -23.5075264 25.0527725 -33.1145668
v -23.4841423 25.2547646 -33.2730408
v -23.9921074 21.0677433 -29.4593258
v -24.0382652 20.7061844 -29.1764202
v -24.1989594 19.4691067 -28.3324356
v -24.3067455 18.6572342 -27.8701477
v -24.429493 17.7491245 -27.4283352
v -24.6126957 16.4244232 -26.9119015
v -24.6846504 15.9136171 -26.7502708
v -24.8346577 14.8650255 -26.4797401
v -25.3146744 11.6445494 -26.1299458
v -25.1495514 12.7305212 -26.1693096
v -24.9895897 13.8039703 -26.2861958
v -24.9509869 14.0663242 -26.3267365
v -24.8576412 14.706255 -20.550169
v -24.8732796 14.5984926 -20.4843483
v -26.0062485 7.31359482 -16.6509495
v -25.4969501 10.470335 -18.1931591
v -25.4430408 10.8150282 -18.3702469
v -25.1631622 12.6401625 -19.3467255
v -23.8425407 22.2595406 -26.3107986
v -23.9625397 21.3008575 -25.4362316
v -24.073349 20.4332581 -24.6832943
v -24.3167706 18.5824108 -23.196146
v -24.3980637 17.9800301 -22.7455959
v -24.5773144 16.6774979 -21.8235283
v -24.6836109 15.9209766 -21.3185463
v -23.6206284 24.0892849 -28.1040783
v -22.0074577 41.0270615 13.523777
v -22.0938072 39.8518448 14.4231262
v -22.1463718 39.1605415 14.9325829
v -22.4885597 35.022541 17.6914291
v -22.3534718 36.5889931 16.704361
v -22.1723747 38.8248291 15.1748428
v -23.0133076 29.5543423 20.6234055
v -22.8833637 30.8312378 20.0076141
v -22.7677555 32.0064888 19.4044724
v -22.5516052 34.3171387 18.1138535
v -23.1918678 27.8678513 21.3752441
v -23.2581406 27.2602024 21.6293564
v -23.8438053 22.2493343 23.4002762
v -23.8025894 22.5833435 23.2996902
v -23.520937 24.9373722 22.5210266
v -23.3338184 26.577528 21.9044266
v -24.1040916 20.1954422 23.9661255
v -24.4181194 17.832552 24.5079727
v -24.9505272 14.0694609 25.1402817
v -24.7711182 15.3065548 24.9628754
v -24.6843815 15.9155188 24.8646927
v -24.4265308 17.7708321 24.5205994
v -25.7843819 8.66743279 25.5815277
v -25.7197151 9.06807327 25.5668564
v -25.3250237 11.5772104 25.4100037
v -25.0626812 13.3107834 25.2346725
v -26.1349659 6.54226732 25.6127701
v -2.07113099 13 18.5496445
v -2.07113099 13 24.5496445
v 13.8919353 13.4693031 24.5496445
v 13.7820415 13.9270506 24.5496445
v 9.92886925 12 24.5496445
v 13.6018887 14.3619709 24.5496445
v 11.3981762 15.9630642 24.5496445
v 10.9288692 16 24.5496445
v -1.92429948 13.9270506 24.5496445
v -2.03419328 13.4693031 24.5496445
v 1.92886901 12 24.5496445
v 1.92886901 8 24.5496445
v 9.92886925 8 24.5496445
v 13.9288692 13 24.5496445
v 0.459565878 15.9630642 24.5496445
v 0.00182127056 15.8531704 24.5496445
v -0.433099985 15.6730194 24.5496445
v -0.834486246 15.4270515 24.5496445
v -1.19244981 15.1213207 24.5496445
v -1.49817872 14.7633562 24.5496445
v -1.7441504 14.3619709 24.5496445
v 13.3559208 14.7633562 24.5496445
v 13.0501919 15.1213207 24.5496445
v 12.6922283 15.4270515 24.5496445
v 0.928869009 16 24.5496445
v 12.2908421 15.6730194 24.5496445
v 11.8559208 15.8531704 24.5496445
v 13.9288692 13 18.5496445
v 1.92886901 12 18.5496445
v 1.92886901 8 18.5496445
v 9.92886925 8 18.5496445
v 9.92886925 12 18.5496445
v 13.8919353 13.4693031 18.5496445
v -2.03419328 13.4693031 18.5496445
v -1.92429948 13.9270506 18.5496445
v -1.7441504 14.3619709 18.5496445
v 13.0501919 15.1213207 18.5496445
v 13.3559208 14.7633562 18.5496445
v -0.834486246 15.4270515 18.5496445
v -0.433099985 15.6730194 18.5496445
v 0.00182127056 15.8531704 18.5496445
v -1.49817872 14.7633562 18.5496445
v -1.19244981 15.1213207 18.5496445
v 13.6018887 14.3619709 18.5496445
v 13.7820415 13.9270506 18.5496445
v 0.459565878 15.9630642 18.5496445
v 0.928869009 16 18.5496445
v 10.9288692 16 18.5496445
v 11.3981762 15.9630642 18.5496445
v 11.8559208 15.8531704 18.5496445
v 12.2908421 15.6730194 18.5496445
v 12.6922283 15.4270515 18.5496445
v -21.0839272 63.3693504 -14.0921555
f 1 2 3
f 4 5 6
f 6 5 2
f 4 7 5
f 5 7 8
f 5 8 9
f 10 3 11
f 11 3 2
f 11 2 12
f 12 2 5
f 13 14 15
f 15 16 17
f 17 16 18
f 19 20 3
f 3 20 21
f 3 21 1
f 22 23 24
f 24 23 25
f 24 25 3
f 3 25 26
f 3 26 19
f 14 27 15
f 15 27 28
f 15 28 29
f 30 31 15
f 32 33 34
f 35 36 37
f 37 36 38
f 37 38 34
f 34 38 39
f 34 39 40
f 16 41 18
f 18 41 42
f 18 42 37
f 37 42 43
f 37 43 35
f 9 44 5
f 5 44 45
f 5 45 46
f 46 45 47
f 46 47 16
f 16 47 48
f 48 49 16
f 16 49 50
f 16 50 51
f 29 52 15
f 15 52 53
f 15 53 24
f 24 53 54
f 24 54 22
f 40 55 34
f 34 55 56
f 34 56 57
f 51 58 16
f 16 58 59
f 16 59 41
f 60 61 62
f 63 64 17
f 31 65 15
f 15 65 66
f 15 66 13
f 67 68 34
f 57 69 34
f 34 69 70
f 34 70 71
f 62 72 73
f 73 72 74
f 63 17 75
f 76 77 17
f 78 79 80
f 61 81 62
f 62 81 82
f 62 82 72
f 83 84 34
f 34 84 85
f 34 85 17
f 17 85 86
f 17 86 75
f 64 87 17
f 17 87 88
f 17 88 89
f 15 90 91
f 34 92 93
f 94 95 96
f 97 98 15
f 15 98 99
f 15 99 90
f 91 100 15
f 15 100 101
f 15 101 30
f 31 102 65
f 65 102 103
f 65 103 104
f 104 103 105
f 104 105 106
f 106 105 107
f 106 107 108
f 108 107 109
f 80 79 110
f 110 79 111
f 110 111 112
f 68 113 34
f 34 113 114
f 34 114 92
f 93 115 34
f 34 115 116
f 34 116 83
f 72 117 74
f 74 117 118
f 74 118 119
f 119 118 120
f 119 120 94
f 94 120 121
f 94 121 95
f 77 122 17
f 17 122 123
f 17 123 15
f 15 123 124
f 15 124 97
f 80 125 78
f 78 125 126
f 78 126 127
f 127 126 128
f 127 128 109
f 109 128 129
f 109 129 108
f 112 111 130
f 130 111 131
f 130 131 71
f 131 132 71
f 71 132 133
f 71 133 34
f 34 133 134
f 34 134 32
f 96 135 94
f 94 135 136
f 94 136 137
f 137 136 138
f 137 138 139
f 139 138 33
f 33 138 34
f 34 138 140
f 34 140 67
f 89 141 17
f 17 141 142
f 17 142 143
f 76 17 144
f 144 17 143
f 144 143 62
f 62 143 145
f 62 145 60
f 146 147 148
f 149 150 147
f 147 150 11
f 11 150 151
f 11 151 152
f 153 154 155
f 155 154 156
f 155 156 157
f 152 158 11
f 11 158 159
f 11 159 160
f 160 161 11
f 11 161 162
f 11 162 163
f 163 164 11
f 11 164 165
f 11 165 166
f 146 167 147
f 147 167 168
f 147 168 169
f 166 170 11
f 11 170 154
f 11 154 10
f 10 154 153
f 171 146 172
f 172 146 154
f 171 173 146
f 146 173 174
f 146 174 175
f 169 176 147
f 147 176 177
f 147 177 178
f 170 179 154
f 154 179 180
f 154 180 181
f 175 182 146
f 146 182 183
f 146 183 167
f 178 184 147
f 147 184 185
f 147 185 149
f 181 186 154
f 154 186 187
f 154 187 188
f 188 189 154
f 154 189 190
f 154 190 172
f 191 192 156
f 156 192 193
f 156 193 157
f 191 156 194
f 194 156 195
f 194 195 196
f 197 198 199
f 199 198 200
f 199 200 201
f 195 202 203
f 204 199 205
f 205 199 206
f 207 208 199
f 199 208 209
f 199 209 197
f 203 210 195
f 195 210 211
f 195 211 196
f 204 212 199
f 199 212 213
f 199 213 195
f 214 215 216
f 217 218 219
f 220 221 222
f 206 223 224
f 224 223 225
f 217 219 226
f 227 228 199
f 199 228 229
f 229 230 199
f 199 230 231
f 199 231 232
f 221 233 222
f 222 233 234
f 222 234 235
f 213 236 195
f 195 236 237
f 195 237 238
f 219 239 226
f 226 239 240
f 226 240 241
f 232 242 199
f 199 242 243
f 199 243 206
f 206 243 244
f 206 244 223
f 235 245 222
f 222 245 246
f 222 246 247
f 247 246 248
f 247 248 223
f 223 248 249
f 223 249 225
f 238 250 195
f 195 250 251
f 195 251 252
f 240 253 241
f 241 253 254
f 241 254 201
f 255 202 256
f 256 202 195
f 256 195 257
f 257 195 252
f 255 258 202
f 202 258 259
f 202 259 260
f 260 259 261
f 260 261 262
f 254 263 201
f 201 263 264
f 201 264 199
f 199 264 265
f 199 265 227
f 262 266 260
f 260 266 267
f 260 267 268
f 269 270 271
f 271 270 272
f 272 273 271
f 271 273 274
f 271 274 275
f 274 276 275
f 275 276 277
f 275 277 217
f 217 277 278
f 217 278 218
f 268 279 260
f 260 279 280
f 260 280 281
f 215 214 282
f 220 222 283
f 283 222 284
f 283 284 214
f 214 284 285
f 214 285 282
f 281 214 260
f 260 214 216
f 260 216 286
f 286 216 287
f 286 287 288
f 288 287 289
f 288 289 290
f 290 289 291
f 290 291 269
f 269 291 292
f 269 292 270
f 293 294 207
f 207 294 295
f 207 295 208
f 296 297 298
f 299 300 147
f 301 302 303
f 296 298 304
f 293 207 305
f 305 207 298
f 305 298 306
f 300 307 147
f 147 307 308
f 147 308 309
f 310 311 312
f 302 313 303
f 303 313 314
f 303 314 315
f 309 316 147
f 147 316 317
f 147 317 318
f 319 320 148
f 148 320 321
f 148 321 298
f 298 321 322
f 298 322 304
f 312 323 310
f 310 323 324
f 310 324 303
f 303 324 325
f 303 325 301
f 318 326 147
f 147 326 327
f 147 327 148
f 148 327 328
f 148 328 329
f 329 330 148
f 148 330 331
f 148 331 319
f 297 332 298
f 298 332 333
f 298 333 306
f 306 333 334
f 306 334 335
f 335 336 306
f 306 336 337
f 306 337 311
f 311 337 338
f 311 338 312
f 315 299 303
f 303 299 147
f 303 147 339
f 339 147 11
f 339 11 12
f 340 341 342
f 343 344 345
f 345 344 346
f 345 346 347
f 343 348 344
f 344 348 349
f 344 349 350
f 350 349 351
f 350 351 352
f 342 341 353
f 341 354 353
f 353 354 355
f 353 355 346
f 346 355 356
f 346 356 347
f 357 358 342
f 342 358 359
f 342 359 340
f 360 13 361
f 361 13 66
f 361 66 362
f 362 66 65
f 362 65 363
f 363 65 104
f 363 104 364
f 364 104 106
f 364 106 365
f 365 106 108
f 365 108 366
f 366 108 129
f 366 129 367
f 367 129 128
f 367 128 368
f 368 128 126
f 368 126 369
f 369 126 125
f 369 125 370
f 370 125 80
f 370 80 371
f 371 80 110
f 371 110 372
f 372 110 112
f 372 112 373
f 373 112 130
f 373 130 374
f 374 130 71
f 374 71 375
f 375 71 70
f 375 70 376
f 376 70 69
f 376 69 377
f 377 69 57
f 377 57 378
f 378 57 56
f 378 56 379
f 379 56 55
f 379 55 380
f 380 55 40
f 380 40 381
f 381 40 39
f 381 39 382
f 382 39 38
f 382 38 383
f 383 38 36
f 383 36 384
f 384 36 35
f 384 35 385
f 385 35 43
f 385 43 386
f 386 43 42
f 386 42 387
f 387 42 41
f 387 41 388
f 388 41 59
f 388 59 389
f 389 59 58
f 389 58 390
f 390 58 51
f 390 51 391
f 391 51 50
f 391 50 392
f 392 50 49
f 392 49 393
f 393 49 48
f 393 48 394
f 394 48 47
f 394 47 395
f 395 47 45
f 395 45 396
f 396 45 44
f 396 44 397
f 397 44 9
f 397 9 398
f 398 9 8
f 398 8 399
f 399 8 7
f 399 7 400
f 400 7 4
f 400 4 401
f 401 4 6
f 401 6 402
f 402 6 2
f 402 2 403
f 403 2 1
f 403 1 404
f 404 1 21
f 404 21 405
f 405 21 20
f 405 20 406
f 406 20 19
f 406 19 407
f 407 19 26
f 407 26 408
f 408 26 25
f 408 25 409
f 409 25 23
f 409 23 410
f 410 23 22
f 410 22 411
f 411 22 54
f 411 54 412
f 412 54 53
f 412 53 413
f 413 53 52
f 413 52 414
f 414 52 29
f 414 29 415
f 415 29 28
f 415 28 416
f 416 28 27
f 416 27 417
f 417 27 14
f 417 14 360
f 360 14 13
f 418 416 419
f 419 416 417
f 419 417 420
f 420 417 360
f 420 360 421
f 422 423 424
f 425 426 407
f 422 427 423
f 423 427 428
f 423 428 429
f 425 407 430
f 431 393 432
f 432 393 394
f 432 394 433
f 434 412 435
f 435 412 413
f 435 413 436
f 436 413 414
f 436 414 418
f 418 414 415
f 418 415 416
f 437 402 438
f 438 402 403
f 438 403 439
f 440 389 441
f 441 389 390
f 441 390 442
f 442 390 391
f 442 391 431
f 431 391 392
f 431 392 393
f 424 443 422
f 422 443 444
f 422 444 445
f 445 444 446
f 447 400 437
f 437 400 401
f 437 401 402
f 394 395 433
f 433 395 396
f 433 396 448
f 448 396 397
f 448 397 449
f 449 397 398
f 449 398 447
f 447 398 399
f 447 399 400
f 450 451 452
f 452 451 453
f 452 453 454
f 407 408 430
f 430 408 409
f 430 409 455
f 455 409 410
f 455 410 434
f 434 410 411
f 434 411 412
f 454 456 452
f 452 456 457
f 452 457 458
f 458 457 407
f 458 407 459
f 459 407 460
f 461 462 450
f 450 462 463
f 450 463 451
f 461 464 462
f 462 464 465
f 462 465 466
f 467 468 469
f 469 468 470
f 469 470 471
f 471 470 472
f 471 472 446
f 446 472 473
f 446 473 445
f 474 407 467
f 467 407 426
f 467 426 468
f 474 475 407
f 407 475 476
f 407 476 477
f 477 478 407
f 407 478 479
f 407 479 460
f 403 404 439
f 439 404 405
f 439 405 480
f 480 405 406
f 480 406 481
f 481 406 407
f 481 407 482
f 482 407 457
f 483 385 484
f 484 385 386
f 484 386 485
f 485 386 387
f 485 387 440
f 440 387 388
f 440 388 389
f 383 486 382
f 382 486 487
f 488 366 489
f 489 366 367
f 489 367 490
f 360 361 421
f 421 361 362
f 421 362 491
f 491 362 363
f 491 363 492
f 492 363 364
f 492 364 488
f 488 364 365
f 488 365 366
f 367 368 490
f 490 368 369
f 490 369 493
f 493 369 370
f 493 370 494
f 495 383 483
f 483 383 384
f 483 384 385
f 495 496 383
f 383 496 497
f 383 497 498
f 499 380 487
f 487 380 381
f 487 381 382
f 500 377 501
f 501 377 378
f 501 378 499
f 499 378 379
f 499 379 380
f 498 502 383
f 383 502 503
f 383 503 504
f 504 505 506
f 506 505 507
f 506 507 508
f 509 510 383
f 383 510 511
f 383 511 512
f 513 375 500
f 500 375 376
f 500 376 377
f 370 371 494
f 494 371 372
f 494 372 514
f 514 372 373
f 514 373 513
f 513 373 374
f 513 374 375
f 466 515 462
f 462 515 516
f 462 516 517
f 517 516 506
f 517 506 518
f 518 506 508
f 504 506 383
f 383 506 519
f 383 519 509
f 512 520 383
f 383 520 521
f 383 521 522
f 428 523 429
f 429 523 524
f 429 524 525
f 522 526 383
f 383 526 527
f 383 527 486
f 486 527 429
f 486 429 528
f 528 429 525
f 31 420 102
f 102 420 421
f 102 421 103
f 103 421 491
f 103 491 105
f 105 491 492
f 105 492 107
f 107 492 488
f 107 488 109
f 109 488 489
f 109 489 127
f 127 489 490
f 127 490 78
f 78 490 493
f 78 493 79
f 79 493 494
f 79 494 111
f 111 494 514
f 111 514 131
f 131 514 513
f 131 513 132
f 132 513 500
f 132 500 133
f 133 500 501
f 133 501 134
f 134 501 499
f 134 499 32
f 32 499 487
f 32 487 33
f 33 487 486
f 33 486 139
f 139 486 528
f 139 528 137
f 137 528 525
f 137 525 94
f 94 525 524
f 94 524 119
f 119 524 523
f 119 523 74
f 74 523 428
f 74 428 73
f 73 428 427
f 73 427 62
f 62 427 422
f 62 422 144
f 144 422 445
f 144 445 76
f 76 445 473
f 76 473 77
f 77 473 472
f 77 472 122
f 122 472 470
f 122 470 123
f 123 470 468
f 123 468 124
f 124 468 426
f 124 426 97
f 97 426 425
f 97 425 98
f 98 425 430
f 98 430 99
f 99 430 455
f 99 455 90
f 90 455 434
f 90 434 91
f 91 434 435
f 91 435 100
f 100 435 436
f 100 436 101
f 101 436 418
f 101 418 30
f 30 418 419
f 30 419 31
f 31 419 420
f 120 451 121
f 121 451 463
f 121 463 95
f 95 463 462
f 95 462 96
f 96 462 517
f 96 517 135
f 135 517 518
f 135 518 136
f 136 518 508
f 136 508 138
f 138 508 507
f 138 507 140
f 140 507 505
f 140 505 67
f 67 505 504
f 67 504 68
f 68 504 503
f 68 503 113
f 113 503 502
f 113 502 114
f 114 502 498
f 114 498 92
f 92 498 497
f 92 497 93
f 93 497 496
f 93 496 115
f 115 496 495
f 115 495 116
f 116 495 483
f 116 483 83
f 83 483 484
f 83 484 84
f 84 484 485
f 84 485 85
f 85 485 440
f 85 440 86
f 86 440 441
f 86 441 75
f 75 441 442
f 75 442 63
f 63 442 431
f 63 431 64
f 64 431 432
f 64 432 87
f 87 432 433
f 87 433 88
f 88 433 448
f 88 448 89
f 89 448 449
f 89 449 141
f 141 449 447
f 141 447 142
f 142 447 437
f 142 437 143
f 143 437 438
f 143 438 145
f 145 438 439
f 145 439 60
f 60 439 480
f 60 480 61
f 61 480 481
f 61 481 81
f 81 481 482
f 81 482 82
f 82 482 457
f 82 457 72
f 72 457 456
f 72 456 117
f 117 456 454
f 117 454 118
f 118 454 453
f 118 453 120
f 120 453 451
f 529 446 530
f 530 446 444
f 530 444 531
f 531 444 443
f 531 443 532
f 532 443 424
f 532 424 533
f 533 424 423
f 533 423 534
f 534 423 429
f 534 429 535
f 535 429 527
f 535 527 536
f 536 527 526
f 536 526 537
f 537 526 522
f 537 522 538
f 538 522 521
f 538 521 539
f 539 521 520
f 539 520 540
f 540 520 512
f 540 512 541
f 541 512 511
f 541 511 542
f 542 511 510
f 542 510 543
f 543 510 509
f 543 509 544
f 544 509 519
f 544 519 545
f 545 519 506
f 545 506 546
f 546 506 516
f 546 516 547
f 547 516 515
f 547 515 548
f 548 515 466
f 548 466 549
f 549 466 465
f 549 465 550
f 550 465 464
f 550 464 551
f 551 464 461
f 551 461 552
f 552 461 450
f 552 450 553
f 553 450 452
f 553 452 554
f 554 452 458
f 554 458 555
f 555 458 459
f 555 459 556
f 556 459 460
f 556 460 557
f 557 460 479
f 557 479 558
f 558 479 478
f 558 478 559
f 559 478 477
f 559 477 560
f 560 477 476
f 560 476 561
f 561 476 475
f 561 475 562
f 562 475 474
f 562 474 563
f 563 474 467
f 563 467 564
f 564 467 469
f 564 469 565
f 565 469 471
f 565 471 529
f 529 471 446
f 529 530 566
f 563 564 566
f 566 564 565
f 566 565 529
f 560 561 566
f 566 561 562
f 566 562 563
f 557 558 566
f 566 558 559
f 566 559 560
f 554 555 566
f 566 555 556
f 566 556 557
f 551 552 566
f 566 552 553
f 566 553 554
f 548 549 566
f 566 549 550
f 566 550 551
f 545 546 566
f 566 546 547
f 566 547 548
f 542 543 566
f 566 543 544
f 566 544 545
f 539 540 566
f 566 540 541
f 566 541 542
f 536 537 566
f 566 537 538
f 566 538 539
f 533 534 566
f 566 534 535
f 566 535 536
f 530 531 566
f 566 531 532
f 566 532 533
f 46 16 352
f 352 16 350
f 567 568 16
f 569 570 15
f 15 570 571
f 572 573 574
f 574 573 575
f 574 575 576
f 576 575 577
f 576 577 578
f 578 577 579
f 578 579 580
f 580 579 581
f 580 581 582
f 582 581 583
f 582 583 584
f 584 583 585
f 584 585 586
f 587 588 589
f 589 588 590
f 589 590 591
f 591 590 592
f 591 592 593
f 593 592 594
f 593 594 595
f 595 594 596
f 595 596 597
f 597 596 598
f 597 598 599
f 599 598 600
f 599 600 601
f 601 600 602
f 601 602 572
f 572 602 603
f 572 603 573
f 571 604 15
f 15 604 605
f 15 605 16
f 16 605 606
f 16 606 567
f 568 607 16
f 16 607 608
f 16 608 350
f 609 610 611
f 611 610 612
f 611 612 613
f 613 612 614
f 613 614 615
f 615 614 616
f 615 616 617
f 617 616 618
f 617 618 619
f 619 618 620
f 619 620 587
f 587 620 621
f 587 621 588
f 569 622 570
f 570 622 623
f 570 623 609
f 609 623 624
f 609 624 610
f 342 625 357
f 357 625 626
f 357 626 627
f 627 628 357
f 357 628 629
f 357 629 585
f 585 629 630
f 585 630 586
f 342 353 625
f 625 353 346
f 625 346 608
f 608 346 344
f 608 344 350
f 631 632 195
f 195 632 199
f 631 195 633
f 633 195 156
f 633 156 154
f 633 154 146
f 633 146 634
f 634 146 148
f 634 148 298
f 199 632 207
f 207 632 634
f 207 634 298
f 635 632 636
f 636 632 637
f 638 634 639
f 639 634 640
f 641 633 642
f 642 633 643
f 635 644 632
f 632 644 645
f 632 645 646
f 638 647 634
f 634 647 648
f 634 648 649
f 649 650 634
f 634 650 651
f 634 651 633
f 633 651 652
f 633 652 653
f 653 654 633
f 633 654 655
f 633 655 643
f 646 656 632
f 632 656 657
f 632 657 634
f 634 657 658
f 634 658 640
f 641 659 633
f 633 659 660
f 633 660 631
f 631 660 661
f 631 661 662
f 662 663 631
f 631 663 664
f 631 664 665
f 665 666 631
f 631 666 667
f 631 667 668
f 668 669 631
f 631 669 670
f 631 670 632
f 632 670 671
f 632 671 637
f 672 323 673
f 673 323 312
f 673 312 674
f 674 312 338
f 674 338 675
f 675 338 337
f 675 337 676
f 676 337 336
f 676 336 677
f 677 336 335
f 677 335 678
f 678 335 334
f 678 334 679
f 679 334 333
f 679 333 680
f 680 333 332
f 680 332 681
f 681 332 297
f 681 297 682
f 682 297 296
f 682 296 683
f 683 296 304
f 683 304 684
f 684 304 322
f 684 322 685
f 685 322 321
f 685 321 686
f 686 321 320
f 686 320 687
f 687 320 319
f 687 319 688
f 688 319 331
f 688 331 689
f 689 331 330
f 689 330 690
f 690 330 329
f 690 329 691
f 691 329 328
f 691 328 692
f 692 328 327
f 692 327 693
f 693 327 326
f 693 326 694
f 694 326 318
f 694 318 695
f 695 318 317
f 695 317 696
f 696 317 316
f 696 316 697
f 697 316 309
f 697 309 698
f 698 309 308
f 698 308 699
f 699 308 307
f 699 307 700
f 700 307 300
f 700 300 701
f 701 300 299
f 701 299 702
f 702 299 315
f 702 315 703
f 703 315 314
f 703 314 704
f 704 314 313
f 704 313 705
f 705 313 302
f 705 302 706
f 706 302 301
f 706 301 707
f 707 301 325
f 707 325 708
f 708 325 324
f 708 324 672
f 672 324 323
f 672 673 709
f 706 707 709
f 709 707 708
f 709 708 672
f 703 704 709
f 709 704 705
f 709 705 706
f 700 701 709
f 709 701 702
f 709 702 703
f 697 698 709
f 709 698 699
f 709 699 700
f 694 695 709
f 709 695 696
f 709 696 697
f 691 692 709
f 709 692 693
f 709 693 694
f 688 689 709
f 709 689 690
f 709 690 691
f 685 686 709
f 709 686 687
f 709 687 688
f 682 683 709
f 709 683 684
f 709 684 685
f 679 680 709
f 709 680 681
f 709 681 682
f 676 677 709
f 709 677 678
f 709 678 679
f 673 674 709
f 709 674 675
f 709 675 676
f 710 150 711
f 711 150 149
f 711 149 712
f 712 149 185
f 712 185 713
f 713 185 184
f 713 184 714
f 714 184 178
f 714 178 715
f 715 178 177
f 715 177 716
f 716 177 176
f 716 176 717
f 717 176 169
f 717 169 718
f 718 169 168
f 718 168 719
f 719 168 167
f 719 167 720
f 720 167 183
f 720 183 721
f 721 183 182
f 721 182 722
f 722 182 175
f 722 175 723
f 723 175 174
f 723 174 724
f 724 174 173
f 724 173 725
f 725 173 171
f 725 171 726
f 726 171 172
f 726 172 727
f 727 172 190
f 727 190 728
f 728 190 189
f 728 189 729
f 729 189 188
f 729 188 730
f 730 188 187
f 730 187 731
f 731 187 186
f 731 186 732
f 732 186 181
f 732 181 733
f 733 181 180
f 733 180 734
f 734 180 179
f 734 179 735
f 735 179 170
f 735 170 736
f 736 170 166
f 736 166 737
f 737 166 165
f 737 165 738
f 738 165 164
f 738 164 739
f 739 164 163
f 739 163 740
f 740 163 162
f 740 162 741
f 741 162 161
f 741 161 742
f 742 161 160
f 742 160 743
f 743 160 159
f 743 159 744
f 744 159 158
f 744 158 745
f 745 158 152
f 745 152 746
f 746 152 151
f 746 151 710
f 710 151 150
f 710 711 747
f 744 745 747
f 747 745 746
f 747 746 710
f 741 742 747
f 747 742 743
f 747 743 744
f 738 739 747
f 747 739 740
f 747 740 741
f 735 736 747
f 747 736 737
f 747 737 738
f 732 733 747
f 747 733 734
f 747 734 735
f 729 730 747
f 747 730 731
f 747 731 732
f 726 727 747
f 747 727 728
f 747 728 729
f 723 724 747
f 747 724 725
f 747 725 726
f 720 721 747
f 747 721 722
f 747 722 723
f 717 718 747
f 747 718 719
f 747 719 720
f 714 715 747
f 747 715 716
f 747 716 717
f 711 712 747
f 747 712 713
f 747 713 714
f 748 206 749
f 749 206 224
f 749 224 750
f 750 224 225
f 750 225 751
f 751 225 249
f 751 249 752
f 752 249 248
f 752 248 753
f 753 248 246
f 753 246 754
f 754 246 245
f 754 245 755
f 755 245 235
f 755 235 756
f 756 235 234
f 756 234 757
f 757 234 233
f 757 233 758
f 758 233 221
f 758 221 759
f 759 221 220
f 759 220 760
f 760 220 283
f 760 283 761
f 761 283 214
f 761 214 762
f 762 214 281
f 762 281 763
f 763 281 280
f 763 280 764
f 764 280 279
f 764 279 765
f 765 279 268
f 765 268 766
f 766 268 267
f 766 267 767
f 767 267 266
f 767 266 768
f 768 266 262
f 768 262 769
f 769 262 261
f 769 261 770
f 770 261 259
f 770 259 771
f 771 259 258
f 771 258 772
f 772 258 255
f 772 255 773
f 773 255 256
f 773 256 774
f 774 256 257
f 774 257 775
f 775 257 252
f 775 252 776
f 776 252 251
f 776 251 777
f 777 251 250
f 777 250 778
f 778 250 238
f 778 238 779
f 779 238 237
f 779 237 780
f 780 237 236
f 780 236 781
f 781 236 213
f 781 213 782
f 782 213 212
f 782 212 783
f 783 212 204
f 783 204 784
f 784 204 205
f 784 205 748
f 748 205 206
f 748 749 785
f 782 783 785
f 785 783 784
f 785 784 748
f 779 780 785
f 785 780 781
f 785 781 782
f 776 777 785
f 785 777 778
f 785 778 779
f 773 774 785
f 785 774 775
f 785 775 776
f 770 771 785
f 785 771 772
f 785 772 773
f 767 768 785
f 785 768 769
f 785 769 770
f 764 765 785
f 785 765 766
f 785 766 767
f 761 762 785
f 785 762 763
f 785 763 764
f 758 759 785
f 785 759 760
f 785 760 761
f 755 756 785
f 785 756 757
f 785 757 758
f 752 753 785
f 785 753 754
f 785 754 755
f 749 750 785
f 785 750 751
f 785 751 752
f 786 228 787
f 787 228 227
f 787 227 788
f 788 227 265
f 788 265 789
f 789 265 264
f 789 264 790
f 790 264 263
f 790 263 791
f 791 263 254
f 791 254 792
f 792 254 253
f 792 253 793
f 793 253 240
f 793 240 794
f 794 240 239
f 794 239 795
f 795 239 219
f 795 219 796
f 796 219 218
f 796 218 797
f 797 218 278
f 797 278 798
f 798 278 277
f 798 277 799
f 799 277 276
f 799 276 800
f 800 276 274
f 800 274 801
f 801 274 273
f 801 273 802
f 802 273 272
f 802 272 803
f 803 272 270
f 803 270 804
f 804 270 292
f 804 292 805
f 805 292 291
f 805 291 806
f 806 291 289
f 806 289 807
f 807 289 287
f 807 287 808
f 808 287 216
f 808 216 809
f 809 216 215
f 809 215 810
f 810 215 282
f 810 282 811
f 811 282 285
f 811 285 812
f 812 285 284
f 812 284 813
f 813 284 222
f 813 222 814
f 814 222 247
f 814 247 815
f 815 247 223
f 815 223 816
f 816 223 244
f 816 244 817
f 817 244 243
f 817 243 818
f 818 243 242
f 818 242 819
f 819 242 232
f 819 232 820
f 820 232 231
f 820 231 821
f 821 231 230
f 821 230 822
f 822 230 229
f 822 229 786
f 786 229 228
f 786 787 823
f 820 821 823
f 823 821 822
f 823 822 786
f 817 818 823
f 823 818 819
f 823 819 820
f 814 815 823
f 823 815 816
f 823 816 817
f 811 812 823
f 823 812 813
f 823 813 814
f 808 809 823
f 823 809 810
f 823 810 811
f 805 806 823
f 823 806 807
f 823 807 808
f 802 803 823
f 823 803 804
f 823 804 805
f 799 800 823
f 823 800 801
f 823 801 802
f 796 797 823
f 823 797 798
f 823 798 799
f 793 794 823
f 823 794 795
f 823 795 796
f 790 791 823
f 823 791 792
f 823 792 793
f 787 788 823
f 823 788 789
f 823 789 790
f 665 587 666
f 666 587 589
f 666 589 667
f 667 589 591
f 667 591 668
f 668 591 593
f 668 593 669
f 669 593 595
f 669 595 670
f 670 595 597
f 670 597 671
f 671 597 599
f 671 599 637
f 637 599 601
f 637 601 636
f 636 601 572
f 636 572 635
f 635 572 574
f 635 574 644
f 644 574 576
f 644 576 645
f 645 576 578
f 645 578 646
f 646 578 580
f 646 580 656
f 656 580 582
f 656 582 657
f 657 582 584
f 657 584 658
f 658 584 586
f 658 586 640
f 640 586 630
f 640 630 639
f 639 630 629
f 639 629 638
f 638 629 628
f 638 628 647
f 647 628 627
f 647 627 648
f 648 627 626
f 648 626 649
f 649 626 625
f 649 625 650
f 650 625 608
f 650 608 651
f 651 608 607
f 651 607 652
f 652 607 568
f 652 568 653
f 653 568 567
f 653 567 654
f 654 567 606
f 654 606 655
f 655 606 605
f 655 605 643
f 643 605 604
f 643 604 642
f 642 604 571
f 642 571 641
f 641 571 570
f 641 570 659
f 659 570 609
f 659 609 660
f 660 609 611
f 660 611 661
f 661 611 613
f 661 613 662
f 662 613 615
f 662 615 663
f 663 615 617
f 663 617 664
f 664 617 619
f 664 619 665
f 665 619 587
f 824 194 825
f 825 194 196
f 826 827 211
f 211 827 828
f 211 828 196
f 196 828 829
f 196 829 825
f 830 831 210
f 210 831 832
f 210 832 211
f 211 832 833
f 211 833 826
f 202 834 203
f 203 834 835
f 835 836 203
f 203 836 837
f 203 837 210
f 210 837 838
f 210 838 830
f 839 840 260
f 260 840 841
f 260 841 202
f 202 841 842
f 202 842 834
f 839 260 843
f 843 260 286
f 843 286 844
f 845 846 288
f 288 846 847
f 288 847 286
f 286 847 848
f 286 848 844
f 845 288 849
f 849 288 290
f 849 290 850
f 269 851 290
f 290 851 852
f 290 852 850
f 271 853 269
f 269 853 854
f 269 854 851
f 855 856 275
f 275 856 857
f 275 857 271
f 271 857 858
f 271 858 853
f 855 275 859
f 859 275 217
f 859 217 860
f 860 217 861
f 861 217 226
f 861 226 862
f 201 863 864
f 201 864 241
f 864 865 241
f 241 865 866
f 241 866 226
f 226 866 867
f 226 867 862
f 198 868 869
f 198 869 200
f 869 870 200
f 200 870 871
f 200 871 201
f 201 871 872
f 201 872 863
f 868 198 873
f 873 198 197
f 873 197 874
f 209 875 197
f 197 875 876
f 197 876 874
f 877 875 209
f 877 209 878
f 878 209 208
f 878 208 295
f 879 358 357
f 880 881 585
f 585 881 882
f 585 882 357
f 357 882 883
f 357 883 879
f 884 885 583
f 583 885 886
f 583 886 585
f 585 886 887
f 585 887 880
f 884 583 888
f 888 583 581
f 888 581 889
f 890 891 579
f 579 891 892
f 579 892 581
f 581 892 893
f 581 893 889
f 575 894 895
f 575 895 577
f 895 896 577
f 577 896 897
f 577 897 579
f 579 897 898
f 579 898 890
f 899 900 573
f 573 900 901
f 573 901 575
f 575 901 902
f 575 902 894
f 899 573 903
f 903 573 603
f 903 603 904
f 904 603 905
f 905 603 602
f 905 602 906
f 907 908 600
f 600 908 909
f 600 909 602
f 602 909 910
f 602 910 906
f 907 600 911
f 911 600 598
f 911 598 912
f 912 598 913
f 913 598 596
f 913 596 914
f 594 915 596
f 596 915 916
f 596 916 914
f 917 918 592
f 592 918 919
f 592 919 594
f 594 919 920
f 594 920 915
f 590 921 922
f 590 922 592
f 592 922 923
f 592 923 917
f 924 925 588
f 588 925 926
f 588 926 590
f 590 926 927
f 590 927 921
f 924 588 928
f 928 588 621
f 928 621 929
f 930 931 620
f 620 931 932
f 620 932 621
f 621 932 933
f 621 933 929
f 930 620 934
f 934 620 618
f 934 618 935
f 936 937 616
f 616 937 938
f 616 938 618
f 618 938 939
f 618 939 935
f 936 616 940
f 940 616 614
f 940 614 941
f 942 943 612
f 612 943 944
f 612 944 614
f 614 944 945
f 614 945 941
f 942 612 946
f 946 612 610
f 946 610 947
f 947 610 948
f 948 610 624
f 948 624 949
f 949 624 950
f 950 624 623
f 950 623 951
f 951 623 952
f 952 623 622
f 952 622 953
f 954 955 569
f 569 955 956
f 569 956 622
f 622 956 957
f 622 957 953
f 569 15 954
f 954 15 24
f 958 959 157
f 10 153 3
f 3 153 960
f 960 153 961
f 961 153 155
f 961 155 962
f 157 959 155
f 155 959 963
f 155 963 962
f 964 965 191
f 191 965 966
f 191 966 192
f 966 967 192
f 192 967 968
f 192 968 193
f 193 968 969
f 193 969 157
f 157 969 970
f 157 970 958
f 964 191 971
f 971 191 194
f 971 194 824
f 878 295 972
f 972 295 294
f 972 294 973
f 973 294 974
f 293 975 976
f 293 976 294
f 294 976 977
f 294 977 974
f 978 979 305
f 305 979 980
f 305 980 293
f 293 980 981
f 293 981 975
f 978 305 982
f 982 305 306
f 982 306 983
f 984 985 311
f 311 985 986
f 311 986 306
f 306 986 987
f 306 987 983
f 984 311 988
f 988 311 310
f 988 310 989
f 990 991 303
f 303 991 992
f 303 992 310
f 310 992 993
f 310 993 989
f 994 995 339
f 339 995 996
f 339 996 303
f 303 996 997
f 303 997 990
f 994 339 998
f 998 339 12
f 998 12 5
f 999 17 1000
f 1000 17 18
f 1001 1002 1003
f 1003 1002 1004
f 1005 1006 1003
f 1007 1008 1009
f 1009 1008 1000
f 1009 1000 1010
f 1010 1000 18
f 1010 18 1011
f 1011 18 37
f 1011 37 1003
f 1003 37 1012
f 1003 1012 1001
f 1013 1014 1009
f 1014 1015 1009
f 1009 1015 1016
f 1009 1016 1017
f 1017 1018 1009
f 1009 1018 1019
f 1009 1019 1007
f 1004 1020 1003
f 1003 1020 1021
f 1003 1021 1022
f 1003 1006 1009
f 1009 1006 1023
f 1009 1023 1013
f 1022 1024 1003
f 1003 1024 1025
f 1003 1025 1005
f 1012 37 1026
f 1026 37 34
f 999 1027 17
f 17 1027 1028
f 17 1028 34
f 34 1028 1029
f 34 1029 1026
f 1026 1029 1030
f 1026 1030 1031
f 999 1032 1027
f 1027 1032 1033
f 1027 1033 1034
f 1030 1035 1036
f 1037 1038 1027
f 1027 1038 1039
f 1034 1040 1027
f 1027 1040 1041
f 1027 1041 1037
f 1036 1042 1030
f 1030 1042 1043
f 1030 1043 1031
f 1039 1044 1027
f 1027 1044 1045
f 1027 1045 1030
f 1045 1046 1030
f 1030 1046 1047
f 1030 1047 1048
f 1048 1049 1030
f 1030 1049 1050
f 1030 1050 1035
f 1023 1006 1045
f 1045 1006 1046
f 1023 1045 1044
f 1023 1044 1013
f 1013 1044 1039
f 1013 1039 1014
f 1014 1039 1038
f 1014 1038 1015
f 1015 1038 1037
f 1015 1037 1016
f 1016 1037 1041
f 1016 1041 1017
f 1017 1041 1040
f 1017 1040 1018
f 1018 1040 1034
f 1018 1034 1019
f 1019 1034 1033
f 1019 1033 1007
f 1007 1033 1032
f 1007 1032 1008
f 1008 1032 999
f 1008 999 1000
f 1046 1006 1005
f 1046 1005 1047
f 1047 1005 1025
f 1047 1025 1048
f 1048 1025 1024
f 1048 1024 1049
f 1049 1024 1022
f 1049 1022 1050
f 1050 1022 1021
f 1050 1021 1035
f 1035 1021 1020
f 1035 1020 1036
f 1036 1020 1004
f 1036 1004 1042
f 1042 1004 1002
f 1042 1002 1043
f 1043 1002 1001
f 1043 1001 1031
f 1031 1001 1012
f 1031 1012 1026
f 1011 1003 1029
f 1029 1003 1030
f 1010 1011 1028
f 1028 1011 1029
f 1009 1010 1027
f 1027 1010 1028
f 1003 1009 1030
f 1030 1009 1027
f 845 849 919
f 996 352 997
f 997 352 351
f 997 351 990
f 990 351 349
f 990 349 991
f 991 349 348
f 991 348 992
f 996 995 352
f 352 995 994
f 352 994 46
f 46 994 998
f 46 998 5
f 985 340 986
f 986 340 359
f 986 359 987
f 348 343 992
f 992 343 345
f 992 345 993
f 993 345 347
f 993 347 989
f 989 347 356
f 989 356 988
f 988 356 355
f 988 355 984
f 984 355 354
f 984 354 985
f 985 354 341
f 985 341 340
f 972 973 883
f 883 973 974
f 981 980 879
f 974 977 883
f 883 977 976
f 883 976 879
f 879 976 975
f 879 975 981
f 980 979 879
f 879 979 978
f 879 978 358
f 358 978 982
f 358 982 359
f 359 982 983
f 359 983 987
f 972 883 878
f 878 883 882
f 878 882 877
f 877 882 881
f 877 881 875
f 919 849 920
f 920 849 850
f 920 850 915
f 915 850 916
f 916 850 852
f 916 852 914
f 914 852 851
f 914 851 913
f 913 851 854
f 913 854 912
f 912 854 853
f 912 853 911
f 911 853 907
f 907 853 858
f 907 858 908
f 908 858 857
f 908 857 909
f 909 857 856
f 909 856 910
f 910 856 855
f 910 855 906
f 906 855 859
f 906 859 905
f 859 860 905
f 905 860 861
f 905 861 862
f 862 867 905
f 905 867 866
f 905 866 865
f 865 864 891
f 891 864 863
f 891 863 872
f 872 871 891
f 891 871 870
f 891 870 892
f 892 870 869
f 873 888 868
f 868 888 889
f 868 889 869
f 869 889 893
f 869 893 892
f 881 880 875
f 875 880 887
f 875 887 876
f 876 887 886
f 876 886 874
f 874 886 885
f 874 885 873
f 873 885 884
f 873 884 888
f 843 927 839
f 839 927 926
f 839 926 840
f 840 926 925
f 840 925 841
f 841 925 924
f 841 924 842
f 842 924 928
f 842 928 834
f 845 919 846
f 846 919 918
f 846 918 847
f 847 918 917
f 847 917 848
f 848 917 923
f 848 923 844
f 844 923 922
f 844 922 843
f 843 922 921
f 843 921 927
f 928 929 834
f 834 929 933
f 834 933 835
f 835 933 932
f 835 932 836
f 836 932 931
f 836 931 837
f 837 931 930
f 837 930 838
f 838 930 934
f 838 934 830
f 830 934 935
f 830 935 831
f 831 935 939
f 831 939 832
f 832 939 938
f 832 938 833
f 833 938 937
f 833 937 826
f 826 937 936
f 826 936 827
f 827 936 940
f 827 940 828
f 828 940 941
f 828 941 829
f 941 945 829
f 829 945 944
f 829 944 825
f 825 944 943
f 825 943 824
f 824 943 942
f 824 942 971
f 971 942 946
f 971 946 964
f 964 946 947
f 964 947 965
f 965 947 948
f 965 948 966
f 966 948 949
f 966 949 967
f 967 949 950
f 967 950 968
f 968 950 951
f 968 951 969
f 969 951 952
f 969 952 970
f 970 952 953
f 970 953 958
f 958 953 957
f 958 957 959
f 959 957 956
f 959 956 963
f 963 956 955
f 963 955 962
f 962 955 954
f 962 954 961
f 961 954 24
f 961 24 960
f 960 24 3
f 891 890 1051
f 865 891 905
f 905 891 1051
f 905 1051 904
f 900 1051 901
f 901 1051 902
f 900 899 1051
f 1051 899 903
f 1051 903 904
f 890 898 1051
f 1051 898 897
f 1051 897 896
f 896 895 1051
f 1051 895 894
f 1051 894 902
