# component mesh in local component coordinates
v 6.40650368 29.098505 -12.5
v 6.5 28 -12.5
v 6.5 34.5 -12.5
v 0 34.5 -12.5
v 0.275867462 34.4941444 -12.5
v 1.36941528 34.3541107 -12.5
v 2.42356682 34.0312805 -12.5
v 5.0572319 32.0834312 -12.5
v 5.67459106 31.1700172 -12.5
v 6.12870407 30.1654072 -12.5
v 3.40799713 33.5349388 -12.5
v 4.29438591 32.8793716 -12.5
v -6.5 34.5 -12.5
v -5.92298508 30.6773586 -12.5
v -5.38531303 31.6398373 -12.5
v -2.92632389 33.8040199 -12.5
v -1.90334797 34.2150841 -12.5
v -0.825615883 34.4473534 -12.5
v -6.5 28 -12.5
v -6.47658443 28.5512371 -12.5
v -6.29026413 29.6378574 -12.5
v -4.69271469 32.4976044 -12.5
v -3.86511612 33.2259789 -12.5
v 11.6913433 36.25 -3.5
v 10.7102699 37.7182808 -3.5
v 6.5 34.5 -3.5
v 0.0424404144 35.8008995 -3.5
v -6.5 34.5 -3.5
v -0.127017975 8.20809937 -3.5
v -13.5 5 -3.5
v 0.0424404144 8.20090103 -3.5
v 13.5 5 -3.5
v -0.292823792 8.24383354 -3.5
v -0.450202942 8.30707455 -3.5
v -0.594633102 8.39600277 -3.5
v -0.450202942 10.092926 -3.5
v -0.292823792 10.156167 -3.5
v -6.5 11.5 -3.5
v -13.5 29.5 -3.5
v 6.5 11.5 -3.5
v 13.5 29.5 -3.5
v 13.3845043 31.262104 -3.5
v -0.721956253 8.50806141 -3.5
v -0.828509331 8.64002514 -3.5
v -0.91122818 8.78809834 -3.5
v -0.967733383 8.94802189 -3.5
v -0.996397972 9.11519432 -3.5
v -0.996397972 9.2848053 -3.5
v 0.37285614 10.1278887 -3.5
v 0.524307251 10.0515289 -3.5
v 0.942876816 8.86686039 -3.5
v 0.87301445 8.71230507 -3.5
v -12.472374 34.6662254 -3.5
v -11.6913433 36.25 -3.5
v -10.7102699 37.7182808 -3.5
v -13.039999 32.9940567 -3.5
v -13.3845053 31.262104 -3.5
v 13.039999 32.9940567 -3.5
v 12.472374 34.6662254 -3.5
v -0.967733383 9.45197773 -3.5
v -0.91122818 9.61190128 -3.5
v -0.828509331 9.75997448 -3.5
v -0.721956253 9.89193821 -3.5
v -0.594633102 10.0039968 -3.5
v -0.127017975 10.1919003 -3.5
v 0.0424404144 10.1990986 -3.5
v 0.210680008 10.1775551 -3.5
v 0.660675049 9.95067215 -3.5
v 0.778036118 9.82822037 -3.5
v 0.87301445 9.68769455 -3.5
v 0.985616684 9.03099918 -3.5
v -0.127017975 35.8081017 -3.5
v -0.292823792 35.8438339 -3.5
v -0.450202942 35.907074 -3.5
v 0.778036118 8.5717802 -3.5
v 0.660675049 8.44932842 -3.5
v 0.524307251 8.34847069 -3.5
v 0.37285614 8.27211189 -3.5
v 0.210680008 8.22244453 -3.5
v 1.76210403 42.8845062 -3.5
v 0 43 -3.5
v 0.0424404144 37.799099 -3.5
v 0.942876816 36.4668579 -3.5
v 0.87301445 36.3123055 -3.5
v 0.524307251 35.9484711 -3.5
v 0.37285614 35.8721085 -3.5
v 0.210680008 35.8224449 -3.5
v 0.942876816 9.53314018 -3.5
v 0.985616684 9.36900043 -3.5
v 1 9.19999981 -3.5
v -0.594633102 35.9960022 -3.5
v -0.721956253 36.1080627 -3.5
v -0.828509331 36.2400246 -3.5
v -0.91122818 36.3880997 -3.5
v -0.967733383 36.5480232 -3.5
v -3.49405766 42.5399971 -3.5
v -0.450202942 37.6929283 -3.5
v -1.76210403 42.8845062 -3.5
v -0.292823792 37.7561684 -3.5
v -0.127017975 37.7919006 -3.5
v 0.778036118 36.1717796 -3.5
v 0.660675049 36.0493279 -3.5
v -0.996397972 36.7151947 -3.5
v -0.996397972 36.8848076 -3.5
v -9.54594231 39.0459404 -3.5
v -0.967733383 37.0519791 -3.5
v -8.21827888 40.2102699 -3.5
v -0.91122818 37.2119026 -3.5
v -6.75 41.1913414 -3.5
v -0.828509331 37.3599739 -3.5
v -5.16622639 41.972374 -3.5
v -0.721956253 37.4919395 -3.5
v -0.594633102 37.6039963 -3.5
v 0.210680008 37.7775536 -3.5
v 0.37285614 37.72789 -3.5
v 3.4940567 42.5399971 -3.5
v 0.524307251 37.6515274 -3.5
v 5.16622734 41.972374 -3.5
v 0.660675049 37.5506744 -3.5
v 6.75 41.1913414 -3.5
v 0.778036118 37.4282188 -3.5
v 0.87301445 37.287693 -3.5
v 8.21827888 40.2102699 -3.5
v 0.942876816 37.1331367 -3.5
v 9.54594231 39.0459404 -3.5
v 0.985616684 36.9690018 -3.5
v 1 36.7999992 -3.5
v 0.985616684 36.6310005 -3.5
v 13.5 11.2867517 10.4340496
v 13.5 15.3746195 8.35714531
v 13.5 19.528904 6.43068504
v 13.5 23.7523499 4.65356636
v 13.5 28.0478725 3.02508163
v 13.5 29.5 2.51392365
v 13.5 5 13.1961536
v 13.5 6.34775925 13.1961536
v 13.5 7.26273298 12.6628857
v -13.5 22.600214 5.12070274
v -13.5 18.3978024 6.9373188
v -13.5 26.8691254 3.45446968
v -13.5 29.5 2.51392365
v -13.5 6.34775925 13.1961536
v -13.5 5 13.1961536
v -13.5 10.1780844 11.0294819
v -13.5 14.2576246 8.9064312
v -3.27015305 5 1.80489063
v -3.60006332 5 2.0712738
v 10.5 5 14
v 0.789470673 5 -0.165122986
v 0.743017197 5 -0.380669594
v 0.660802841 5 -0.585264206
v 0.31668663 5 1.01144695
v 0.134002686 5 1.13491917
v 12.3541012 5 13.7063408
v 13.2239437 5 13.3460388
v 0.475873947 5 0.858877182
v 0.606987 5 0.681599617
v -4.78798485 5 2.4909935
v -10.5 5 14
v -4.3700552 5 2.4193325
v -3.97024727 5 2.27807236
v 0.798828125 5 0.0551738739
v 0.770822525 5 0.27388382
v 0.706254959 5 0.484713554
v -10.1340027 5 1.13491917
v -10.3166857 5 1.01144695
v -10.4758739 5 0.858877182
v -10.7708225 5 0.27388382
v -10.7988281 5 0.0551738739
v -13.2239437 5 13.3460388
v -9.71970177 5 1.2813015
v -9.93308163 5 1.22574139
v -12.3541021 5 13.7063408
v -11.4386072 5 13.9261303
v -9.5 5 1.30000019
v -9.28029823 5 1.2813015
v -10.6069889 5 0.681599617
v -10.7062569 5 0.484713554
v -2.68027782 5 -0.93214035
v -2.55611229 5 -0.526698112
v -1.78947067 5 -0.165122986
v -2.50225258 5 -0.106102943
v -8.29374409 5 0.484713554
v -6.72984695 5 1.80489063
v -8.22917843 5 0.27388382
v -7.0099926 5 1.48658371
v -8.20117188 5 0.0551738739
v -8.21052933 5 -0.165122986
v 11.4386063 5 13.9261303
v -0.0669174194 5 1.22574139
v -0.280298233 5 1.2813015
v -0.5 5 1.30000019
v -1.31668568 5 1.01144695
v -2.76768589 5 1.12551022
v -1.13400364 5 1.13491917
v -0.933081627 5 1.22574139
v -2.9900074 5 1.48658371
v -0.719700813 5 1.2813015
v -10.7894707 5 -0.165122986
v -10.7430162 5 -0.380669594
v -10.6608038 5 -0.585264206
v -1.7430172 5 -0.380669594
v -3.12331963 5 -1.65168667
v -2.87117767 5 -1.31076813
v -1.47587395 5 0.858877182
v -1.60698795 5 0.681599617
v -2.6095829 5 0.732057571
v -1.70625591 5 0.484713554
v -2.52024937 5 0.317544937
v -1.77082157 5 0.27388382
v -1.79882908 5 0.0551738739
v -7.23231411 5 1.12551022
v -7.3904171 5 0.732057571
v -8.2569828 5 -0.380669594
v -7.47975063 5 0.317544937
v -8.33919621 5 -0.585264206
v -8.45480347 5 -0.773022652
v 0.227966309 5 -1.07706261
v 0.399520874 5 -0.938542366
v 0.545196533 5 -0.773022652
v -5.21201515 5 2.4909935
v -5.6299448 5 2.4193325
v -6.02975273 5 2.27807236
v -6.57054996 5 -1.94508934
v -6.21923733 5 -2.18253517
v -5.8328495 5 -2.35719299
v -0.389751434 5 -1.2953167
v -0.172428131 5 -1.25805283
v 0.0354709625 5 -1.18459702
v -8.39301205 5 0.681599617
v -8.52412605 5 0.858877182
v -6.39993668 5 2.0712738
v -8.68331337 5 1.01144695
v -8.86599636 5 1.13491917
v -9.06691742 5 1.22574139
v -8.60048008 5 -0.938542366
v -7.49774742 5 -0.106102943
v -7.44388866 5 -0.526698112
v -1.66080379 5 -0.585264206
v -1.54519653 5 -0.773022652
v -3.42945004 5 -1.94508934
v -1.39952087 5 -0.938542366
v -1.22796726 5 -1.07706261
v -1.03547192 5 -1.18459702
v -0.827571869 5 -1.25805283
v -0.610247612 5 -1.2953167
v -10.5451965 5 -0.773022652
v -10.3995209 5 -0.938542366
v -10.2279673 5 -1.07706261
v -3.78076267 5 -2.18253517
v -4.1671505 5 -2.35719299
v -5.42250156 5 -2.46403885
v -5 5 -2.49999905
v -4.57749844 5 -2.46403885
v -10.0354719 5 -1.18459702
v -9.82757187 5 -1.25805283
v -9.61024857 5 -1.2953167
v -7.31972313 5 -0.93214035
v -7.12882233 5 -1.31076813
v -6.87668037 5 -1.65168667
v -9.38975239 5 -1.2953167
v -9.17242813 5 -1.25805283
v -8.96452904 5 -1.18459702
v -8.77203178 5 -1.07706261
v 16.5 29.5 -14
v 16.5 29.5 2.51392365
v 16.5 28.0478725 3.02508163
v 16.5 2.60208521e-15 -14
v 16.5 16.1159821 8
v 16.5 2.60208521e-15 8
v 16.5 19.528904 6.43068504
v 16.5 23.7523499 4.65356636
v -16.5 2.60208521e-15 -14
v -16.5 2.60208521e-15 8
v -16.5 16.1159821 8
v -16.5 18.3978024 6.9373188
v -16.5 22.600214 5.12070274
v -16.5 29.5 -14
v -16.5 26.8691254 3.45446968
v -16.5 29.5 2.51392365
v -6.29026413 29.6378574 -14
v -6.47658443 28.5512371 -14
v -5.38531303 24.3601627 -14
v -4.69271469 23.5023956 -14
v -3.86511612 22.7740192 -14
v -2.92632389 22.195982 -14
v -1.90334797 21.7849159 -14
v -0.825615883 21.5526466 -14
v 0.275867462 21.5058575 -14
v 1.36941528 21.6458912 -14
v -6.47658443 27.4487629 -14
v -6.29026413 26.3621426 -14
v -5.92298508 25.3226414 -14
v 2.42356682 34.0312805 -14
v 7.66793251 44.1100273 -14
v 3.40799713 33.5349388 -14
v 9.37306786 43.0792351 -14
v 4.29438591 32.8793716 -14
v -1.90334797 34.2150841 -14
v -3.94870853 45.5205421 -14
v -0.825615883 34.4473534 -14
v -1.98885536 45.8796959 -14
v 0.275867462 34.4941444 -14
v -5.38531303 31.6398373 -14
v -13.5792332 38.8730698 -14
v -4.69271469 32.4976044 -14
v -12.3504276 40.4415245 -14
v -3.86511612 33.2259789 -14
v 2.42356682 21.9687214 -14
v 3.40799713 22.4650612 -14
v 4.29438591 23.1206303 -14
v 5.67459106 31.1700172 -14
v 15.4277687 35.3509827 -14
v 6.12870407 30.1654072 -14
v 16.0205383 33.4487076 -14
v 6.40650368 29.098505 -14
v 16.3796959 31.4888554 -14
v 6.5 28 -14
v 6.40650368 26.901495 -14
v 10.9415245 41.8504295 -14
v 12.3504276 40.4415245 -14
v 5.0572319 32.0834312 -14
v 13.5792332 38.8730698 -14
v 14.6100235 37.1679344 -14
v 0 46 -14
v 1.98885536 45.8796959 -14
v 1.36941528 34.3541107 -14
v 3.94870758 45.5205421 -14
v 5.85098076 44.9277687 -14
v -10.9415245 41.8504295 -14
v -9.37306786 43.0792351 -14
v -2.92632389 33.8040199 -14
v -7.66793251 44.1100273 -14
v -5.85098076 44.9277687 -14
v -16.3796978 31.4888554 -14
v -16.0205402 33.4487076 -14
v -5.92298508 30.6773586 -14
v -15.4277687 35.3509827 -14
v -14.6100245 37.1679344 -14
v 5.0572319 23.9165707 -14
v 5.67459106 24.8299847 -14
v 6.12870407 25.8345928 -14
v -10.5 2.60208521e-15 14
v 10.5 2.60208521e-15 14
v -10.5451965 2.60208521e-15 -0.773022652
v -10.6608038 2.60208521e-15 -0.585264206
v -10.7430162 2.60208521e-15 -0.380669594
v -10.7894707 2.60208521e-15 -0.165122986
v -10.0354719 2.60208521e-15 -1.18459702
v -10.2279673 2.60208521e-15 -1.07706261
v -10.3995209 2.60208521e-15 -0.938542366
v -10.7988281 2.60208521e-15 0.0551738739
v -10.7708225 2.60208521e-15 0.27388382
v -10.7062569 2.60208521e-15 0.484713554
v -5 2.60208521e-15 -2.49999905
v -5.42250156 2.60208521e-15 -2.46403885
v -5.8328495 2.60208521e-15 -2.35719299
v -6.21923733 2.60208521e-15 -2.18253517
v -6.57054996 2.60208521e-15 -1.94508934
v -6.87668037 2.60208521e-15 -1.65168667
v -9.38975239 2.60208521e-15 -1.2953167
v -9.61024857 2.60208521e-15 -1.2953167
v -9.82757187 2.60208521e-15 -1.25805283
v -7.12882233 2.60208521e-15 -1.31076813
v -7.31972313 2.60208521e-15 -0.93214035
v -8.33919621 2.60208521e-15 -0.585264206
v -7.44388866 2.60208521e-15 -0.526698112
v -8.45480347 2.60208521e-15 -0.773022652
v -8.60048008 2.60208521e-15 -0.938542366
v -8.22917843 2.60208521e-15 0.27388382
v -7.49774742 2.60208521e-15 -0.106102943
v -8.29374409 2.60208521e-15 0.484713554
v -7.47975063 2.60208521e-15 0.317544937
v -7.3904171 2.60208521e-15 0.732057571
v -8.20117188 2.60208521e-15 0.0551738739
v -8.21052933 2.60208521e-15 -0.165122986
v -8.2569828 2.60208521e-15 -0.380669594
v -8.77203178 2.60208521e-15 -1.07706261
v -8.96452904 2.60208521e-15 -1.18459702
v -9.17242813 2.60208521e-15 -1.25805283
v -0.389751434 2.60208521e-15 -1.2953167
v -0.610247612 2.60208521e-15 -1.2953167
v -2.68027782 2.60208521e-15 -0.93214035
v -2.87117767 2.60208521e-15 -1.31076813
v -1.66080379 2.60208521e-15 -0.585264206
v -7.23231411 2.60208521e-15 1.12551022
v -7.0099926 2.60208521e-15 1.48658371
v -8.39301205 2.60208521e-15 0.681599617
v -4.57749844 2.60208521e-15 -2.46403885
v -4.1671505 2.60208521e-15 -2.35719299
v -0.827571869 2.60208521e-15 -1.25805283
v 0.399520874 2.60208521e-15 -0.938542366
v 0.227966309 2.60208521e-15 -1.07706261
v -10.6069889 2.60208521e-15 0.681599617
v -10.4758739 2.60208521e-15 0.858877182
v -16.4261303 2.60208521e-15 8.93860817
v -10.3166857 2.60208521e-15 1.01144695
v -16.2063389 2.60208521e-15 9.85410118
v -10.1340027 2.60208521e-15 1.13491917
v -15.8460388 2.60208521e-15 10.7239437
v -15.3541012 2.60208521e-15 11.5267124
v -9.93308163 2.60208521e-15 1.22574139
v -14.7426405 2.60208521e-15 12.2426414
v -1.03547192 2.60208521e-15 -1.18459702
v -1.22796726 2.60208521e-15 -1.07706261
v -3.78076267 2.60208521e-15 -2.18253517
v -1.39952087 2.60208521e-15 -0.938542366
v -9.5 2.60208521e-15 1.30000019
v -9.71970177 2.60208521e-15 1.2813015
v -11.4386072 2.60208521e-15 13.9261303
v -5.6299448 2.60208521e-15 2.4193325
v -5.21201515 2.60208521e-15 2.4909935
v -1.54519653 2.60208521e-15 -0.773022652
v -3.12331963 2.60208521e-15 -1.65168667
v -3.42945004 2.60208521e-15 -1.94508934
v -2.76768589 2.60208521e-15 1.12551022
v 15.8460388 2.60208521e-15 10.7239437
v 15.3541012 2.60208521e-15 11.5267124
v 0.0354709625 2.60208521e-15 -1.18459702
v -0.172428131 2.60208521e-15 -1.25805283
v -12.3541021 2.60208521e-15 13.7063408
v -13.2239437 2.60208521e-15 13.3460388
v -14.0267115 2.60208521e-15 12.8541031
v -8.52412605 2.60208521e-15 0.858877182
v -6.72984695 2.60208521e-15 1.80489063
v -8.68331337 2.60208521e-15 1.01144695
v -6.39993668 2.60208521e-15 2.0712738
v -6.02975273 2.60208521e-15 2.27807236
v -4.78798485 2.60208521e-15 2.4909935
v -4.3700552 2.60208521e-15 2.4193325
v -3.97024727 2.60208521e-15 2.27807236
v -9.28029823 2.60208521e-15 1.2813015
v -9.06691742 2.60208521e-15 1.22574139
v -8.86599636 2.60208521e-15 1.13491917
v 13.2239437 2.60208521e-15 13.3460388
v -2.9900074 2.60208521e-15 1.48658371
v 14.0267124 2.60208521e-15 12.8541031
v 14.7426414 2.60208521e-15 12.2426414
v -0.5 2.60208521e-15 1.30000019
v -0.280298233 2.60208521e-15 1.2813015
v -0.0669174194 2.60208521e-15 1.22574139
v 0.134002686 2.60208521e-15 1.13491917
v -3.60006332 2.60208521e-15 2.0712738
v -3.27015305 2.60208521e-15 1.80489063
v 11.4386063 2.60208521e-15 13.9261303
v 12.3541012 2.60208521e-15 13.7063408
v -2.55611229 2.60208521e-15 -0.526698112
v -1.7430172 2.60208521e-15 -0.380669594
v -2.50225258 2.60208521e-15 -0.106102943
v -1.70625591 2.60208521e-15 0.484713554
v -1.60698795 2.60208521e-15 0.681599617
v -2.52024937 2.60208521e-15 0.317544937
v -1.47587395 2.60208521e-15 0.858877182
v -2.6095829 2.60208521e-15 0.732057571
v -1.31668568 2.60208521e-15 1.01144695
v -1.78947067 2.60208521e-15 -0.165122986
v -1.79882908 2.60208521e-15 0.0551738739
v -1.77082157 2.60208521e-15 0.27388382
v -1.13400364 2.60208521e-15 1.13491917
v -0.933081627 2.60208521e-15 1.22574139
v -0.719700813 2.60208521e-15 1.2813015
v 0.743017197 2.60208521e-15 -0.380669594
v 0.660802841 2.60208521e-15 -0.585264206
v 0.545196533 2.60208521e-15 -0.773022652
v 0.31668663 2.60208521e-15 1.01144695
v 0.475873947 2.60208521e-15 0.858877182
v 16.2063408 2.60208521e-15 9.85410118
v 0.606987 2.60208521e-15 0.681599617
v 16.4261284 2.60208521e-15 8.93860817
v 0.706254959 2.60208521e-15 0.484713554
v 0.770822525 2.60208521e-15 0.27388382
v 0.798828125 2.60208521e-15 0.0551738739
v 0.789470673 2.60208521e-15 -0.165122986
v 13.4800053 30.2344666 2.26278687
v 11.6916981 36.2493858 0.387922287
v 11.9326992 35.8135338 0.513122559
v 14.7637615 36.8675842 0.213133812
v 15.2527714 35.7930908 0.519034386
v 12.4501343 34.719593 0.834582329
v 12.4724274 34.6660995 0.850567818
v 15.4279804 35.3504219 0.647945404
v 12.8665218 33.5868835 1.17841721
v 16.4836159 30.2351627 2.26255226
v 16.4346886 30.9666443 2.01733017
v 13.4201927 30.9657421 2.01763153
v 16.3797188 31.4886761 1.84529018
v 13.3845367 31.2618732 1.91973305
v 16.3534203 31.6944504 1.77815056
v 13.3205585 31.6937904 1.77836514
v 16.23983 32.4185448 1.54491138
v 13.180748 32.4185448 1.54491138
v 16.0205879 33.4485092 1.22119331
v 13.0401859 32.9933586 1.36308765
v 15.9938698 33.555378 1.18814182
v 15.6650162 34.6824036 0.845692635
v 7.11371422 40.9736671 -0.866117477
v 7.82265091 40.502552 -0.749399185
v 11.4315186 41.3983345 -0.969771385
v 8.21846771 40.210125 -0.676033974
v 8.50348663 39.98526 -0.619140625
v 9.14564896 39.4301109 -0.476888657
v 11.9331417 40.8951797 -0.846797943
v 9.54611969 39.0457611 -0.376904488
v 9.74725151 38.8402939 -0.322948456
v 12.3504772 40.4414635 -0.734131813
v 10.3088932 38.2164612 -0.156968117
v 12.413969 40.3693771 -0.716074944
v 12.8730545 39.8215523 -0.577456474
v 13.3052387 39.2581024 -0.432294846
v 10.7104092 37.7180977 -0.02202034
v 10.8307209 37.558876 0.0215349197
v 11.3123245 36.8675842 0.213133812
v 14.6101189 37.1677513 0.129441261
v 14.439024 37.4852715 0.0417423248
v 14.0878334 38.0896988 -0.122841835
v 13.7100105 38.6807213 -0.280801773
v 13.5793285 38.8729324 -0.331542969
v -5.63832569 41.7661858 -1.05836964
v -6.90735626 44.4846077 -1.67931652
v -7.61297512 44.1387367 -1.60358906
v -8.96860027 43.3497009 -1.42727375
v -9.37317467 43.0791588 -1.36567497
v -6.37805843 41.3983345 -0.969771385
v -8.30005169 43.7604027 -1.51966667
v -7.66796112 44.1100082 -1.59725666
v -9.6185112 42.9065018 -1.32605648
v -10.2493429 42.4306221 -1.21562099
v -10.8545513 41.9269371 -1.09674168
v -6.18305302 44.7977066 -1.7470541
v -5.16634464 41.9723244 -1.10753918
v -5.85105228 44.927742 -1.77495861
v -4.87993813 42.0871468 -1.13477612
v -5.43979168 45.077507 -1.80693245
v -4.10299778 42.361393 -1.19940281
v -4.68235874 45.321682 -1.85868359
v -3.49412251 42.5399818 -1.24116039
v -3.94871616 45.5205383 -1.90048504
v -3.3073988 42.5885887 -1.25248146
v -3.91824245 45.5280151 -1.90205193
v -2.49285603 42.7678452 -1.29406738
v -3.14760208 45.696991 -1.93731785
v -2.37048054 45.8288345 -1.96467972
v -1.76212502 42.8845024 -1.32099152
v -1.9888792 45.8796921 -1.97519875
v -1.66707611 42.8966713 -1.32379436
v -1.58687782 45.9235115 -1.9842453
v -0.836126328 42.9740791 -1.34159279
v -0.796749115 45.980751 -1.99603939
v 0 46 -2
v 0 43 -1.34754086
v 0.797807693 45.9806976 -1.9960289
v 0.835611343 42.9741135 -1.34159946
v 1.59167671 45.9230499 -1.98414898
v 1.66228485 42.8972702 -1.32393169
v 1.98888016 45.8796921 -1.97519779
v 2.38162041 45.8272133 -1.96434402
v 1.76212502 42.8845024 -1.32099152
v 3.16762733 45.6930885 -1.93650627
v 2.48015404 42.7702217 -1.29461765
v 3.9451046 45.5214272 -1.90067196
v 3.28924179 42.5931625 -1.25354576
v 4.7083168 45.3139725 -1.85705757
v 3.49412727 42.5399818 -1.24116039
v 4.08947182 42.3656998 -1.20041275
v 5.45746613 45.0713234 -1.80561543
v 4.87718201 42.0882149 -1.13502979
v 10.9415874 41.8503685 -1.07849121
v 6.37805748 41.3983345 -0.969771385
v 6.75016594 41.191246 -0.919408798
v 10.8580055 41.9239197 -1.09602356
v 10.2597275 42.4223824 -1.21369267
v 9.63657188 42.8935204 -1.32306957
v 9.37317848 43.0791588 -1.36567497
v 8.98825645 43.3369484 -1.42438412
v 8.31436348 43.7520676 -1.51780415
v 7.66795731 44.1100121 -1.59725666
v 7.62124062 44.1344337 -1.60264111
v 5.6402359 41.7653046 -1.05815887
v 6.91395187 44.4815636 -1.67865467
v 5.1663456 41.9723244 -1.10753822
v 6.19267082 44.7938194 -1.74621677
v 5.85105133 44.927742 -1.77495861
v -8.50400734 39.9848404 -0.61903286
v -8.21846485 40.2101288 -0.676034927
v -11.4315186 41.3983345 -0.969771385
v -7.83089924 40.4966812 -0.747933388
v -7.12171364 40.9687042 -0.864896774
v -10.9415903 41.8503685 -1.07849121
v -6.75016975 41.191246 -0.919407845
v -13.5 32.4185448 1.54491138
v -13.180748 32.4185448 1.54491138
v -13.5 35.6152687 0.570615768
v -13.040184 32.9933662 1.36308575
v -12.8684387 33.5808449 1.18028069
v -11.9291983 35.8201447 0.511210442
v -13.5 36.8675842 0.213133812
v -12.4485064 34.7234764 0.833422661
v -12.4724302 34.6660919 0.850570679
v -11.6916933 36.2493935 0.387919426
v -11.3123245 36.8675842 0.213133812
v -13.5 38.9868317 -0.361465454
v -10.8347473 37.553463 0.0230197906
v -13.0262499 39.6275291 -0.527767181
v -10.7104149 37.7180901 -0.0220193863
v -12.5235004 40.2429962 -0.684315681
v -10.3099918 38.2151642 -0.156619072
v -12.3505497 40.4413872 -0.734111786
v -9.74364948 38.8440514 -0.32393837
v -11.9919281 40.8332977 -0.831531525
v -9.54611874 39.0457649 -0.376904488
v -9.14155579 39.4338799 -0.477862358
v -13.5 31.2064953 1.9379797
v -13.4798727 30.2369061 2.26196098
v -13.4198408 30.9689732 2.01655769
v -13.3845358 31.2618771 1.91973305
v -13.3201609 31.6962032 1.77757931
v 15.8480415 10.7510576 10.7200108
v 15.9841042 11.2867517 10.4340496
v 16.1886101 12.2888508 9.9078064
v 16.338089 13.3072872 9.38446426
v 16.4262772 14.1949167 8.93766975
v 16.4370766 14.3375893 8.86665916
v 16.4893608 15.3746195 8.35714531
v 14.2759113 7.26273298 12.6628857
v 14.5825348 7.72557688 12.3969212
v 14.7441616 7.99877739 12.2411194
v 14.8582821 8.20559788 12.1237564
v 15.3275299 9.20623684 11.5629978
v 15.6970787 10.2353344 10.9983902
v 13.9115753 6.7924943 12.9357033
v 14.0289955 6.93552542 12.8524418
v -16.4778347 30.3549671 2.22205544
v -16.0230637 33.4384537 1.22430706
v -16.256258 32.3256149 1.57458305
v -16.3797436 31.4884586 1.84536171
v -16.4115162 31.2064953 1.9379797
v -15.3249311 35.6152687 0.570615768
v -15.4279222 35.3505745 0.647899628
v -15.7112017 34.5406456 0.888154984
v -16.020546 33.4486885 1.221138
v -14.9463778 36.4896927 0.319590569
v -14.6101437 37.1677055 0.129453659
v -13.5793362 38.872921 -0.331540108
v -14.0348415 38.1760139 -0.146093369
v -14.516571 37.3434181 0.0808172226
v -15.8478336 10.7502985 10.720417
v -15.6790209 10.1780844 11.0294819
v -15.3050203 9.15163422 11.5932961
v -14.8286972 8.1508007 12.1548023
v -14.7439985 7.99848986 12.2412834
v -14.5489616 7.6715126 12.4278584
v -14.2376738 7.20957947 12.6935902
v -14.028986 6.9355135 12.8524494
v -13.8901901 6.76726294 12.9504166
v -16.3271408 13.2181044 9.42983246
v -16.206871 12.3954983 9.85246277
v -16.1713142 12.1911364 9.95862579
v -15.9579535 11.1774435 10.492136
v -16.4830418 15.1822519 8.45078087
v -16.4311371 14.2576246 8.9064312
v 6.5 11.5 -12.5
v -6.5 11.5 -12.5
v 3.40799713 22.4650612 -12.5
v 2.42356682 21.9687214 -12.5
v 1.36941528 21.6458912 -12.5
v 0.275867462 21.5058575 -12.5
v -0.825615883 21.5526466 -12.5
v -1.90334797 21.7849159 -12.5
v -2.92632389 22.195982 -12.5
v -3.86511612 22.7740192 -12.5
v -4.69271469 23.5023956 -12.5
v -6.47658443 27.4487629 -12.5
v -6.29026413 26.3621426 -12.5
v 6.40650368 26.901495 -12.5
v 6.12870407 25.8345928 -12.5
v 5.67459106 24.8299847 -12.5
v -5.38531303 24.3601627 -12.5
v -5.92298508 25.3226414 -12.5
v 5.0572319 23.9165707 -12.5
v 4.29438591 23.1206303 -12.5
v 1 9.19999981 -11.5
v 0.985616684 9.36900043 -11.5
v 0.942876816 9.53314018 -11.5
v 0.87301445 9.68769455 -11.5
v 0.778036118 9.82822037 -11.5
v 0.660675049 9.95067215 -11.5
v 0.524307251 10.0515289 -11.5
v 0.37285614 10.1278887 -11.5
v 0.210680008 10.1775551 -11.5
v 0.0424404144 10.1990986 -11.5
v -0.127017975 10.1919003 -11.5
v -0.292823792 10.156167 -11.5
v -0.450202942 10.092926 -11.5
v -0.594633102 10.0039968 -11.5
v -0.721956253 9.89193821 -11.5
v -0.828509331 9.75997448 -11.5
v -0.91122818 9.61190128 -11.5
v -0.967733383 9.45197773 -11.5
v -0.996397972 9.2848053 -11.5
v -0.996397972 9.11519432 -11.5
v -0.967733383 8.94802189 -11.5
v -0.91122818 8.78809834 -11.5
v -0.828509331 8.64002514 -11.5
v -0.721956253 8.50806141 -11.5
v -0.594633102 8.39600277 -11.5
v -0.450202942 8.30707455 -11.5
v -0.292823792 8.24383354 -11.5
v -0.127017975 8.20809937 -11.5
v 0.0424404144 8.20090103 -11.5
v 0.210680008 8.22244453 -11.5
v 0.37285614 8.27211189 -11.5
v 0.524307251 8.34847069 -11.5
v 0.660675049 8.44932842 -11.5
v 0.778036118 8.5717802 -11.5
v 0.87301445 8.71230507 -11.5
v 0.942876816 8.86686039 -11.5
v 0.985616684 9.03099918 -11.5
v 0 9.19999981 -11.5
v 1 36.7999992 -11.5
v 0.985616684 36.9690018 -11.5
v 0.942876816 37.1331367 -11.5
v 0.87301445 37.287693 -11.5
v 0.778036118 37.4282188 -11.5
v 0.660675049 37.5506744 -11.5
v 0.524307251 37.6515274 -11.5
v 0.37285614 37.72789 -11.5
v 0.210680008 37.7775536 -11.5
v 0.0424404144 37.799099 -11.5
v -0.127017975 37.7919006 -11.5
v -0.292823792 37.7561684 -11.5
v -0.450202942 37.6929283 -11.5
v -0.594633102 37.6039963 -11.5
v -0.721956253 37.4919395 -11.5
v -0.828509331 37.3599739 -11.5
v -0.91122818 37.2119026 -11.5
v -0.967733383 37.0519791 -11.5
v -0.996397972 36.8848076 -11.5
v -0.996397972 36.7151947 -11.5
v -0.967733383 36.5480232 -11.5
v -0.91122818 36.3880997 -11.5
v -0.828509331 36.2400246 -11.5
v -0.721956253 36.1080627 -11.5
v -0.594633102 35.9960022 -11.5
v -0.450202942 35.907074 -11.5
v -0.292823792 35.8438339 -11.5
v -0.127017975 35.8081017 -11.5
v 0.0424404144 35.8008995 -11.5
v 0.210680008 35.8224449 -11.5
v 0.37285614 35.8721085 -11.5
v 0.524307251 35.9484711 -11.5
v 0.660675049 36.0493279 -11.5
v 0.778036118 36.1717796 -11.5
v 0.87301445 36.3123055 -11.5
v 0.942876816 36.4668579 -11.5
v 0.985616684 36.6310005 -11.5
v 0 36.7999992 -11.5
v -0.5 -2.05012784e-16 1.30000019
v -0.280298233 -2.02063892e-16 1.2813015
v -0.0669174194 -1.93301971e-16 1.22574139
v 0.134002686 -1.78979134e-16 1.13491917
v 0.31668663 -1.59507302e-16 1.01144695
v 0.475873947 -1.35446683e-16 0.858877182
v 0.606987 -1.07489639e-16 0.681599617
v 0.706254959 -7.64403824e-17 0.484713554
v 0.770822525 -4.31918577e-17 0.27388382
v 0.798828125 -8.70090607e-18 0.0551738739
v 0.789470673 2.60402661e-17 -0.165122986
v 0.743017197 6.00324278e-17 -0.380669594
v 0.660802841 9.22974348e-17 -0.585264206
v 0.545196533 1.21907391e-16 -0.773022652
v 0.399520874 1.48010325e-16 -0.938542366
v 0.227966309 1.69855133e-16 -1.07706261
v 0.0354709625 1.86813567e-16 -1.18459702
v -0.172428131 1.98397616e-16 -1.25805283
v -0.389751434 2.04274118e-16 -1.2953167
v -0.610247612 2.04274118e-16 -1.2953167
v -0.827571869 1.98397616e-16 -1.25805283
v -1.03547192 1.86813567e-16 -1.18459702
v -1.22796726 1.69855133e-16 -1.07706261
v -1.39952087 1.48010325e-16 -0.938542366
v -1.54519653 1.21907391e-16 -0.773022652
v -1.66080379 9.22974348e-17 -0.585264206
v -1.7430172 6.00324278e-17 -0.380669594
v -1.78947067 2.60402661e-17 -0.165122986
v -1.79882908 -8.70090607e-18 0.0551738739
v -1.77082157 -4.31918577e-17 0.27388382
v -1.70625591 -7.64403824e-17 0.484713554
v -1.60698795 -1.07489639e-16 0.681599617
v -1.47587395 -1.35446683e-16 0.858877182
v -1.31668568 -1.59507302e-16 1.01144695
v -1.13400364 -1.78979134e-16 1.13491917
v -0.933081627 -1.93301971e-16 1.22574139
v -0.719700813 -2.02063892e-16 1.2813015
v -9.5 -2.05012784e-16 1.30000019
v -9.28029823 -2.02063892e-16 1.2813015
v -9.06691742 -1.93301971e-16 1.22574139
v -8.86599636 -1.78979134e-16 1.13491917
v -8.68331337 -1.59507302e-16 1.01144695
v -8.52412605 -1.35446683e-16 0.858877182
v -8.39301205 -1.07489639e-16 0.681599617
v -8.29374409 -7.64403824e-17 0.484713554
v -8.22917843 -4.31918577e-17 0.27388382
v -8.20117188 -8.70090607e-18 0.0551738739
v -8.21052933 2.60402661e-17 -0.165122986
v -8.2569828 6.00324278e-17 -0.380669594
v -8.33919621 9.22974348e-17 -0.585264206
v -8.45480347 1.21907391e-16 -0.773022652
v -8.60048008 1.48010325e-16 -0.938542366
v -8.77203178 1.69855133e-16 -1.07706261
v -8.96452904 1.86813567e-16 -1.18459702
v -9.17242813 1.98397616e-16 -1.25805283
v -9.38975239 2.04274118e-16 -1.2953167
v -9.61024857 2.04274118e-16 -1.2953167
v -9.82757187 1.98397616e-16 -1.25805283
v -10.0354719 1.86813567e-16 -1.18459702
v -10.2279673 1.69855133e-16 -1.07706261
v -10.3995209 1.48010325e-16 -0.938542366
v -10.5451965 1.21907391e-16 -0.773022652
v -10.6608038 9.22974348e-17 -0.585264206
v -10.7430162 6.00324278e-17 -0.380669594
v -10.7894707 2.60402661e-17 -0.165122986
v -10.7988281 -8.70090607e-18 0.0551738739
v -10.7708225 -4.31918577e-17 0.27388382
v -10.7062569 -7.64403824e-17 0.484713554
v -10.6069889 -1.07489639e-16 0.681599617
v -10.4758739 -1.35446683e-16 0.858877182
v -10.3166857 -1.59507302e-16 1.01144695
v -10.1340027 -1.78979134e-16 1.13491917
v -9.93308163 -1.93301971e-16 1.22574139
v -9.71970177 -2.02063892e-16 1.2813015
f 1 2 3
f 4 5 3
f 3 5 6
f 3 6 7
f 8 9 3
f 3 9 10
f 3 10 1
f 7 11 3
f 3 11 12
f 3 12 8
f 13 14 15
f 16 17 13
f 13 17 18
f 13 18 4
f 19 20 13
f 13 20 21
f 13 21 14
f 15 22 13
f 13 22 23
f 13 23 16
f 24 25 26
f 27 28 26
f 29 30 31
f 31 30 32
f 29 33 30
f 30 33 34
f 30 34 35
f 36 37 38
f 30 38 39
f 39 38 28
f 40 32 26
f 26 32 41
f 26 41 42
f 35 43 30
f 30 43 44
f 30 44 45
f 45 46 30
f 30 46 47
f 30 47 38
f 38 47 48
f 49 50 40
f 51 52 32
f 53 28 54
f 54 28 55
f 53 56 28
f 28 56 57
f 28 57 39
f 42 58 26
f 26 58 59
f 26 59 24
f 48 60 38
f 38 60 61
f 38 61 62
f 62 63 38
f 38 63 64
f 38 64 36
f 37 65 38
f 38 65 66
f 38 66 40
f 40 66 67
f 40 67 49
f 50 68 40
f 40 68 69
f 40 69 70
f 51 32 71
f 27 72 28
f 28 72 73
f 28 73 74
f 52 75 32
f 32 75 76
f 32 76 77
f 77 78 32
f 32 78 79
f 32 79 31
f 80 81 82
f 83 84 26
f 85 86 26
f 26 86 87
f 26 87 27
f 70 88 40
f 40 88 89
f 40 89 32
f 32 89 90
f 32 90 71
f 74 91 28
f 28 91 92
f 28 92 93
f 93 94 28
f 28 94 95
f 28 95 55
f 96 97 98
f 98 97 99
f 98 99 81
f 81 99 100
f 81 100 82
f 84 101 26
f 26 101 102
f 26 102 85
f 95 103 55
f 55 103 104
f 55 104 105
f 105 104 106
f 105 106 107
f 107 106 108
f 107 108 109
f 109 108 110
f 109 110 111
f 111 110 112
f 111 112 96
f 96 112 113
f 96 113 97
f 82 114 80
f 80 114 115
f 80 115 116
f 116 115 117
f 116 117 118
f 118 117 119
f 118 119 120
f 119 121 120
f 120 121 122
f 120 122 123
f 123 122 124
f 123 124 125
f 125 124 126
f 125 126 25
f 25 126 127
f 25 127 26
f 26 127 128
f 26 128 83
f 129 130 32
f 130 131 32
f 32 131 132
f 32 132 41
f 41 132 133
f 41 133 134
f 135 136 32
f 32 136 137
f 32 137 129
f 138 139 30
f 138 30 140
f 140 30 39
f 140 39 141
f 142 143 144
f 144 143 30
f 144 30 145
f 145 30 139
f 146 147 148
f 149 32 150
f 150 32 151
f 148 152 153
f 154 155 156
f 156 155 135
f 156 135 157
f 158 159 160
f 160 159 148
f 160 148 161
f 161 148 147
f 149 162 32
f 32 162 163
f 32 163 135
f 135 163 164
f 135 164 157
f 165 166 143
f 143 166 167
f 143 168 30
f 30 168 169
f 170 171 143
f 143 171 172
f 143 172 165
f 170 173 171
f 171 173 174
f 171 174 175
f 175 174 159
f 175 159 176
f 167 177 143
f 143 177 178
f 143 178 168
f 179 180 181
f 181 180 182
f 183 184 185
f 185 184 186
f 185 186 187
f 187 186 188
f 152 148 156
f 156 148 189
f 156 189 154
f 153 190 148
f 148 190 191
f 148 191 192
f 193 194 195
f 195 194 196
f 146 148 197
f 197 148 192
f 197 192 194
f 194 192 198
f 194 198 196
f 169 199 30
f 30 199 200
f 30 200 201
f 202 203 181
f 181 203 204
f 181 204 179
f 193 205 194
f 194 205 206
f 194 206 207
f 207 206 208
f 207 208 209
f 209 208 210
f 209 210 182
f 182 210 211
f 182 211 181
f 186 212 188
f 188 212 213
f 188 213 214
f 214 213 215
f 214 215 216
f 216 215 217
f 218 219 32
f 32 219 220
f 32 220 151
f 158 221 159
f 159 221 222
f 159 222 223
f 224 225 30
f 30 225 226
f 227 228 32
f 32 228 229
f 32 229 218
f 183 230 184
f 184 230 231
f 184 231 232
f 232 231 233
f 232 233 223
f 223 233 234
f 223 234 159
f 159 234 235
f 159 235 176
f 217 215 236
f 236 215 237
f 236 237 238
f 202 239 203
f 203 239 240
f 203 240 241
f 241 240 242
f 241 242 243
f 243 244 241
f 241 244 245
f 241 245 246
f 201 247 30
f 30 247 248
f 30 248 249
f 246 227 241
f 241 227 32
f 241 32 250
f 250 32 251
f 226 252 30
f 30 252 253
f 30 253 32
f 32 253 254
f 32 254 251
f 249 255 30
f 30 255 256
f 30 256 257
f 258 259 30
f 30 259 260
f 30 260 224
f 257 261 30
f 30 261 262
f 30 262 258
f 258 262 263
f 258 263 238
f 238 263 264
f 238 264 236
f 265 266 267
f 265 267 268
f 269 270 271
f 271 270 268
f 271 268 272
f 272 268 267
f 273 274 275
f 275 276 273
f 273 276 277
f 273 277 278
f 278 277 279
f 278 279 280
f 281 282 278
f 283 284 273
f 273 284 285
f 273 285 286
f 286 287 273
f 273 287 288
f 273 288 268
f 268 288 289
f 268 289 290
f 282 291 278
f 278 291 292
f 278 292 273
f 273 292 293
f 273 293 283
f 294 295 296
f 296 295 297
f 296 297 298
f 299 300 301
f 301 300 302
f 301 302 303
f 304 305 306
f 306 305 307
f 306 307 308
f 290 309 268
f 268 309 310
f 268 310 311
f 312 313 314
f 314 313 315
f 314 315 316
f 316 315 317
f 316 317 318
f 318 317 265
f 318 265 319
f 297 320 298
f 298 320 321
f 298 321 322
f 322 321 323
f 322 323 312
f 312 323 324
f 312 324 313
f 302 325 303
f 303 325 326
f 303 326 327
f 327 326 328
f 327 328 294
f 294 328 329
f 294 329 295
f 307 330 308
f 308 330 331
f 308 331 332
f 332 331 333
f 332 333 299
f 299 333 334
f 299 334 300
f 278 335 281
f 281 335 336
f 281 336 337
f 337 336 338
f 337 338 304
f 304 338 339
f 304 339 305
f 311 340 268
f 268 340 341
f 268 341 265
f 265 341 342
f 265 342 319
f 343 344 159
f 159 344 148
f 345 346 273
f 346 347 273
f 273 347 348
f 273 348 274
f 349 350 273
f 273 350 351
f 273 351 345
f 348 352 274
f 274 352 353
f 274 353 354
f 355 356 273
f 273 356 357
f 357 358 273
f 273 358 359
f 273 359 360
f 361 362 273
f 273 362 363
f 273 363 349
f 364 365 366
f 366 365 367
f 364 366 360
f 360 366 368
f 360 368 369
f 370 371 372
f 372 371 373
f 372 373 374
f 370 375 371
f 371 375 376
f 371 376 367
f 367 376 377
f 367 377 366
f 369 378 360
f 360 378 379
f 360 379 273
f 273 379 380
f 273 380 361
f 268 381 382
f 383 384 385
f 374 386 372
f 372 386 387
f 372 387 388
f 355 273 389
f 389 273 268
f 389 268 390
f 390 268 382
f 390 382 391
f 392 393 268
f 354 394 274
f 274 394 395
f 274 395 396
f 396 395 397
f 396 397 398
f 398 397 399
f 398 399 400
f 400 399 401
f 401 399 402
f 401 402 403
f 391 404 390
f 390 404 405
f 390 405 406
f 406 405 407
f 408 343 409
f 409 343 410
f 411 412 344
f 385 384 413
f 413 384 414
f 413 414 407
f 407 414 415
f 407 415 406
f 416 417 418
f 393 419 268
f 268 419 420
f 268 420 381
f 410 421 409
f 409 421 422
f 409 422 402
f 402 422 423
f 402 423 403
f 388 387 424
f 424 387 425
f 424 425 426
f 426 425 427
f 426 427 344
f 344 427 428
f 344 428 411
f 412 429 344
f 344 429 430
f 344 430 431
f 408 432 343
f 343 432 433
f 343 433 344
f 344 433 434
f 344 434 426
f 435 436 437
f 437 436 416
f 437 416 438
f 438 416 418
f 439 440 417
f 417 440 441
f 417 441 442
f 431 443 344
f 344 443 444
f 344 444 445
f 445 444 436
f 445 436 446
f 446 436 435
f 383 385 447
f 447 385 448
f 447 448 449
f 450 451 452
f 452 451 453
f 452 453 454
f 454 453 455
f 454 455 416
f 448 456 449
f 449 456 457
f 449 457 452
f 452 457 458
f 452 458 450
f 455 459 416
f 416 459 460
f 416 460 417
f 417 460 461
f 417 461 439
f 462 463 268
f 268 463 464
f 268 464 392
f 442 465 417
f 417 465 466
f 417 466 467
f 467 466 468
f 467 468 469
f 469 468 470
f 469 470 270
f 470 471 270
f 270 471 472
f 270 472 268
f 268 472 473
f 268 473 462
f 253 355 254
f 254 355 389
f 254 389 251
f 251 389 390
f 251 390 250
f 250 390 406
f 250 406 241
f 241 406 415
f 241 415 203
f 203 415 414
f 203 414 204
f 204 414 384
f 204 384 179
f 179 384 383
f 179 383 180
f 180 383 447
f 180 447 182
f 182 447 449
f 182 449 209
f 209 449 452
f 209 452 207
f 207 452 454
f 207 454 194
f 194 454 416
f 194 416 197
f 197 416 436
f 197 436 146
f 146 436 444
f 146 444 147
f 147 444 443
f 147 443 161
f 161 443 431
f 161 431 160
f 160 431 430
f 160 430 158
f 158 430 429
f 158 429 221
f 221 429 412
f 221 412 222
f 222 412 411
f 222 411 223
f 223 411 428
f 223 428 232
f 232 428 427
f 232 427 184
f 184 427 425
f 184 425 186
f 186 425 387
f 186 387 212
f 212 387 386
f 212 386 213
f 213 386 374
f 213 374 215
f 215 374 373
f 215 373 237
f 237 373 371
f 237 371 238
f 238 371 367
f 238 367 258
f 258 367 365
f 258 365 259
f 259 365 364
f 259 364 260
f 260 364 360
f 260 360 224
f 224 360 359
f 224 359 225
f 225 359 358
f 225 358 226
f 226 358 357
f 226 357 252
f 252 357 356
f 252 356 253
f 253 356 355
f 474 134 266
f 266 134 267
f 475 476 477
f 477 476 478
f 476 479 478
f 478 479 480
f 478 480 481
f 481 480 482
f 266 483 474
f 474 483 484
f 474 484 485
f 485 484 486
f 485 486 487
f 487 486 488
f 487 488 489
f 489 488 490
f 489 490 491
f 491 490 492
f 491 492 493
f 493 492 494
f 493 494 482
f 482 494 495
f 482 495 481
f 496 497 498
f 498 497 499
f 499 500 498
f 498 500 501
f 498 501 502
f 501 503 502
f 502 503 504
f 502 504 505
f 505 504 506
f 505 506 507
f 507 506 508
f 508 506 509
f 509 506 510
f 509 510 511
f 475 477 512
f 512 477 513
f 512 513 514
f 514 515 512
f 512 515 516
f 512 516 511
f 511 516 517
f 511 517 509
f 518 519 520
f 521 522 523
f 521 523 524
f 518 520 523
f 523 520 525
f 523 525 524
f 522 526 523
f 523 526 527
f 523 527 528
f 519 518 529
f 529 518 530
f 529 530 531
f 531 530 532
f 531 532 533
f 533 532 534
f 533 534 535
f 535 534 536
f 535 536 537
f 537 536 538
f 537 538 539
f 539 538 540
f 539 540 541
f 541 540 542
f 542 540 543
f 542 543 544
f 544 543 545
f 544 545 546
f 546 545 547
f 546 547 548
f 548 547 549
f 549 547 550
f 549 550 551
f 551 550 552
f 551 552 553
f 553 552 554
f 553 554 555
f 555 554 556
f 556 554 557
f 556 557 558
f 558 557 559
f 558 559 560
f 560 559 561
f 560 561 562
f 561 563 562
f 562 563 564
f 562 564 565
f 565 564 566
f 567 568 498
f 498 568 569
f 498 569 496
f 567 570 568
f 568 570 571
f 568 571 572
f 572 573 568
f 568 573 574
f 568 574 575
f 575 576 568
f 568 576 577
f 568 577 578
f 578 577 579
f 578 579 580
f 580 579 581
f 580 581 566
f 566 581 582
f 566 582 565
f 583 584 585
f 585 584 586
f 585 586 587
f 528 588 523
f 523 588 585
f 523 585 589
f 589 585 587
f 590 591 592
f 592 591 593
f 592 593 594
f 595 596 597
f 597 596 592
f 597 592 598
f 598 592 594
f 595 599 596
f 596 599 600
f 596 600 601
f 601 600 602
f 601 602 603
f 603 602 604
f 603 604 605
f 605 604 606
f 605 606 607
f 607 606 608
f 607 608 609
f 609 608 610
f 609 610 585
f 585 610 611
f 585 611 583
f 612 141 613
f 613 614 612
f 612 614 615
f 612 615 590
f 590 615 616
f 590 616 591
f 131 130 269
f 617 618 129
f 129 618 619
f 129 619 130
f 130 619 620
f 130 620 621
f 621 622 130
f 130 622 623
f 130 623 269
f 129 137 624
f 624 625 129
f 129 625 626
f 129 626 627
f 627 628 129
f 129 628 629
f 129 629 617
f 136 630 137
f 137 630 631
f 137 631 624
f 134 133 267
f 267 133 132
f 267 132 272
f 272 132 131
f 272 131 271
f 271 131 269
f 612 632 141
f 141 632 280
f 141 280 140
f 633 634 590
f 590 634 635
f 590 635 612
f 612 635 636
f 612 636 632
f 637 638 592
f 592 638 639
f 592 639 590
f 590 639 640
f 590 640 633
f 637 592 641
f 641 592 596
f 641 596 642
f 596 601 643
f 643 644 596
f 596 644 645
f 596 645 642
f 646 647 144
f 144 647 648
f 144 648 649
f 649 650 144
f 144 650 651
f 144 651 652
f 652 653 144
f 144 653 654
f 144 654 142
f 655 656 145
f 145 656 657
f 145 657 144
f 144 657 658
f 144 658 646
f 276 275 145
f 275 659 145
f 145 659 660
f 145 660 655
f 280 279 140
f 140 279 277
f 140 277 138
f 138 277 276
f 138 276 139
f 139 276 145
f 559 557 80
f 80 557 554
f 80 554 81
f 81 554 552
f 81 552 550
f 559 80 561
f 561 80 116
f 561 116 563
f 578 580 118
f 118 580 566
f 118 566 116
f 116 566 564
f 116 564 563
f 578 118 568
f 568 118 120
f 568 120 569
f 123 499 497
f 123 497 120
f 120 497 496
f 120 496 569
f 125 501 123
f 123 501 500
f 123 500 499
f 510 506 25
f 25 506 504
f 25 504 125
f 125 504 503
f 125 503 501
f 510 25 511
f 511 25 24
f 511 24 512
f 480 479 59
f 59 479 476
f 59 476 24
f 24 476 475
f 24 475 512
f 480 59 482
f 482 59 58
f 482 58 493
f 493 58 491
f 491 58 42
f 491 42 489
f 134 474 41
f 41 474 485
f 41 485 42
f 42 485 487
f 42 487 489
f 606 604 55
f 613 141 39
f 56 593 57
f 57 593 591
f 591 616 57
f 57 616 615
f 57 615 39
f 39 615 614
f 39 614 613
f 595 53 599
f 599 53 54
f 599 54 600
f 595 597 53
f 53 597 598
f 53 598 56
f 56 598 594
f 56 594 593
f 55 604 54
f 54 604 602
f 54 602 600
f 105 610 55
f 55 610 608
f 55 608 606
f 586 584 107
f 107 584 583
f 107 583 105
f 105 583 611
f 105 611 610
f 586 107 587
f 587 107 109
f 587 109 589
f 111 530 518
f 111 518 109
f 109 518 523
f 109 523 589
f 96 536 534
f 96 534 111
f 111 534 532
f 111 532 530
f 98 543 540
f 98 540 96
f 96 540 538
f 96 538 536
f 81 550 547
f 81 547 98
f 98 547 545
f 98 545 543
f 574 573 297
f 502 505 321
f 488 486 317
f 483 266 265
f 317 486 265
f 265 486 484
f 265 484 483
f 495 315 481
f 481 315 313
f 481 313 478
f 495 494 315
f 315 494 492
f 315 492 317
f 317 492 490
f 317 490 488
f 515 514 324
f 324 514 513
f 324 513 313
f 313 513 477
f 313 477 478
f 321 505 323
f 323 505 507
f 323 507 508
f 508 509 323
f 323 509 517
f 323 517 324
f 324 517 516
f 324 516 515
f 297 573 320
f 320 573 572
f 320 572 571
f 571 570 320
f 320 570 567
f 320 567 321
f 321 567 498
f 321 498 502
f 579 577 295
f 295 577 576
f 295 576 297
f 297 576 575
f 297 575 574
f 562 329 560
f 560 329 328
f 560 328 558
f 562 565 329
f 329 565 582
f 329 582 295
f 295 582 581
f 295 581 579
f 558 328 556
f 556 328 326
f 556 326 555
f 325 549 551
f 325 551 326
f 326 551 553
f 326 553 555
f 548 549 325
f 548 325 546
f 546 325 302
f 546 302 544
f 537 539 300
f 300 539 541
f 300 541 302
f 302 541 542
f 302 542 544
f 537 300 535
f 535 300 334
f 535 334 533
f 333 525 520
f 520 519 333
f 333 519 529
f 333 529 334
f 334 529 531
f 334 531 533
f 525 333 524
f 524 333 331
f 524 331 521
f 330 588 528
f 528 527 330
f 330 527 526
f 330 526 331
f 331 526 522
f 331 522 521
f 588 330 585
f 585 330 307
f 585 307 609
f 305 643 601
f 601 603 305
f 305 603 605
f 305 605 307
f 307 605 607
f 307 607 609
f 643 305 644
f 644 305 339
f 644 339 645
f 638 637 338
f 338 637 641
f 338 641 339
f 339 641 642
f 339 642 645
f 638 338 639
f 639 338 336
f 639 336 640
f 640 336 633
f 633 336 335
f 633 335 634
f 280 632 278
f 278 632 636
f 278 636 335
f 335 636 635
f 335 635 634
f 661 40 2
f 2 40 26
f 2 26 3
f 661 662 40
f 40 662 38
f 38 662 28
f 28 662 19
f 28 19 13
f 3 26 4
f 4 26 28
f 4 28 13
f 663 664 661
f 664 665 661
f 661 665 666
f 661 666 662
f 662 666 667
f 662 667 668
f 668 669 662
f 662 669 670
f 662 670 671
f 19 662 672
f 672 662 673
f 2 674 661
f 661 674 675
f 661 675 676
f 671 677 662
f 662 677 678
f 662 678 673
f 676 679 661
f 661 679 680
f 661 680 663
f 303 4 301
f 301 4 18
f 301 18 299
f 299 18 17
f 299 17 332
f 332 17 16
f 332 16 308
f 308 16 23
f 308 23 306
f 306 23 22
f 306 22 304
f 304 22 15
f 304 15 337
f 337 15 14
f 337 14 281
f 281 14 21
f 281 21 282
f 21 20 282
f 282 20 19
f 282 19 291
f 291 19 672
f 291 672 292
f 292 672 673
f 292 673 293
f 293 673 678
f 293 678 283
f 283 678 677
f 283 677 284
f 284 677 671
f 284 671 285
f 285 671 670
f 285 670 286
f 286 670 669
f 286 669 287
f 287 669 668
f 287 668 288
f 288 668 667
f 288 667 289
f 289 667 666
f 289 666 290
f 290 666 665
f 290 665 309
f 309 665 664
f 309 664 310
f 310 664 663
f 310 663 311
f 311 663 680
f 311 680 340
f 340 680 679
f 340 679 341
f 341 679 676
f 341 676 342
f 342 676 675
f 342 675 319
f 319 675 674
f 319 674 318
f 318 674 2
f 318 2 316
f 316 2 1
f 316 1 314
f 314 1 10
f 314 10 312
f 312 10 9
f 312 9 322
f 322 9 8
f 322 8 298
f 298 8 12
f 298 12 296
f 296 12 11
f 296 11 294
f 294 11 7
f 294 7 327
f 327 7 6
f 327 6 303
f 303 6 5
f 303 5 4
f 681 90 682
f 682 90 89
f 682 89 683
f 683 89 88
f 683 88 684
f 684 88 70
f 684 70 685
f 685 70 69
f 685 69 686
f 686 69 68
f 686 68 687
f 687 68 50
f 687 50 688
f 688 50 49
f 688 49 689
f 689 49 67
f 689 67 690
f 690 67 66
f 690 66 691
f 691 66 65
f 691 65 692
f 692 65 37
f 692 37 693
f 693 37 36
f 693 36 694
f 694 36 64
f 694 64 695
f 695 64 63
f 695 63 696
f 696 63 62
f 696 62 697
f 697 62 61
f 697 61 698
f 698 61 60
f 698 60 699
f 699 60 48
f 699 48 700
f 700 48 47
f 700 47 701
f 701 47 46
f 701 46 702
f 702 46 45
f 702 45 703
f 703 45 44
f 703 44 704
f 704 44 43
f 704 43 705
f 705 43 35
f 705 35 706
f 706 35 34
f 706 34 707
f 707 34 33
f 707 33 708
f 708 33 29
f 708 29 709
f 709 29 31
f 709 31 710
f 710 31 79
f 710 79 711
f 711 79 78
f 711 78 712
f 712 78 77
f 712 77 713
f 713 77 76
f 713 76 714
f 714 76 75
f 714 75 715
f 715 75 52
f 715 52 716
f 716 52 51
f 716 51 717
f 717 51 71
f 717 71 681
f 681 71 90
f 681 682 718
f 715 716 718
f 718 716 717
f 718 717 681
f 712 713 718
f 718 713 714
f 718 714 715
f 709 710 718
f 718 710 711
f 718 711 712
f 706 707 718
f 718 707 708
f 718 708 709
f 703 704 718
f 718 704 705
f 718 705 706
f 700 701 718
f 718 701 702
f 718 702 703
f 697 698 718
f 718 698 699
f 718 699 700
f 694 695 718
f 718 695 696
f 718 696 697
f 691 692 718
f 718 692 693
f 718 693 694
f 688 689 718
f 718 689 690
f 718 690 691
f 685 686 718
f 718 686 687
f 718 687 688
f 682 683 718
f 718 683 684
f 718 684 685
f 719 127 720
f 720 127 126
f 720 126 721
f 721 126 124
f 721 124 722
f 722 124 122
f 722 122 723
f 723 122 121
f 723 121 724
f 724 121 119
f 724 119 725
f 725 119 117
f 725 117 726
f 726 117 115
f 726 115 727
f 727 115 114
f 727 114 728
f 728 114 82
f 728 82 729
f 729 82 100
f 729 100 730
f 730 100 99
f 730 99 731
f 731 99 97
f 731 97 732
f 732 97 113
f 732 113 733
f 733 113 112
f 733 112 734
f 734 112 110
f 734 110 735
f 735 110 108
f 735 108 736
f 736 108 106
f 736 106 737
f 737 106 104
f 737 104 738
f 738 104 103
f 738 103 739
f 739 103 95
f 739 95 740
f 740 95 94
f 740 94 741
f 741 94 93
f 741 93 742
f 742 93 92
f 742 92 743
f 743 92 91
f 743 91 744
f 744 91 74
f 744 74 745
f 745 74 73
f 745 73 746
f 746 73 72
f 746 72 747
f 747 72 27
f 747 27 748
f 748 27 87
f 748 87 749
f 749 87 86
f 749 86 750
f 750 86 85
f 750 85 751
f 751 85 102
f 751 102 752
f 752 102 101
f 752 101 753
f 753 101 84
f 753 84 754
f 754 84 83
f 754 83 755
f 755 83 128
f 755 128 719
f 719 128 127
f 719 720 756
f 753 754 756
f 756 754 755
f 756 755 719
f 750 751 756
f 756 751 752
f 756 752 753
f 747 748 756
f 756 748 749
f 756 749 750
f 744 745 756
f 756 745 746
f 756 746 747
f 741 742 756
f 756 742 743
f 756 743 744
f 738 739 756
f 756 739 740
f 756 740 741
f 735 736 756
f 756 736 737
f 756 737 738
f 732 733 756
f 756 733 734
f 756 734 735
f 729 730 756
f 756 730 731
f 756 731 732
f 726 727 756
f 756 727 728
f 756 728 729
f 723 724 756
f 756 724 725
f 756 725 726
f 720 721 756
f 756 721 722
f 756 722 723
f 757 192 758
f 758 192 191
f 758 191 759
f 759 191 190
f 759 190 760
f 760 190 153
f 760 153 761
f 761 153 152
f 761 152 762
f 762 152 156
f 762 156 763
f 763 156 157
f 763 157 764
f 764 157 164
f 764 164 765
f 765 164 163
f 765 163 766
f 766 163 162
f 766 162 767
f 767 162 149
f 767 149 768
f 768 149 150
f 768 150 769
f 769 150 151
f 769 151 770
f 770 151 220
f 770 220 771
f 771 220 219
f 771 219 772
f 772 219 218
f 772 218 773
f 773 218 229
f 773 229 774
f 774 229 228
f 774 228 775
f 775 228 227
f 775 227 776
f 776 227 246
f 776 246 777
f 777 246 245
f 777 245 778
f 778 245 244
f 778 244 779
f 779 244 243
f 779 243 780
f 780 243 242
f 780 242 781
f 781 242 240
f 781 240 782
f 782 240 239
f 782 239 783
f 783 239 202
f 783 202 784
f 784 202 181
f 784 181 785
f 785 181 211
f 785 211 786
f 786 211 210
f 786 210 787
f 787 210 208
f 787 208 788
f 788 208 206
f 788 206 789
f 789 206 205
f 789 205 790
f 790 205 193
f 790 193 791
f 791 193 195
f 791 195 792
f 792 195 196
f 792 196 793
f 793 196 198
f 793 198 757
f 757 198 192
f 794 175 795
f 795 175 176
f 795 176 796
f 796 176 235
f 796 235 797
f 797 235 234
f 797 234 798
f 798 234 233
f 798 233 799
f 799 233 231
f 799 231 800
f 800 231 230
f 800 230 801
f 801 230 183
f 801 183 802
f 802 183 185
f 802 185 803
f 803 185 187
f 803 187 804
f 804 187 188
f 804 188 805
f 805 188 214
f 805 214 806
f 806 214 216
f 806 216 807
f 807 216 217
f 807 217 808
f 808 217 236
f 808 236 809
f 809 236 264
f 809 264 810
f 810 264 263
f 810 263 811
f 811 263 262
f 811 262 812
f 812 262 261
f 812 261 813
f 813 261 257
f 813 257 814
f 814 257 256
f 814 256 815
f 815 256 255
f 815 255 816
f 816 255 249
f 816 249 817
f 817 249 248
f 817 248 818
f 818 248 247
f 818 247 819
f 819 247 201
f 819 201 820
f 820 201 200
f 820 200 821
f 821 200 199
f 821 199 822
f 822 199 169
f 822 169 823
f 823 169 168
f 823 168 824
f 824 168 178
f 824 178 825
f 825 178 177
f 825 177 826
f 826 177 167
f 826 167 827
f 827 167 166
f 827 166 828
f 828 166 165
f 828 165 829
f 829 165 172
f 829 172 830
f 830 172 171
f 830 171 794
f 794 171 175
f 651 650 403
f 170 143 423
f 143 142 654
f 423 422 170
f 170 422 421
f 170 421 173
f 173 421 410
f 173 410 174
f 174 410 343
f 174 343 159
f 396 660 274
f 274 660 659
f 274 659 275
f 400 646 398
f 398 646 658
f 658 657 398
f 398 657 656
f 398 656 396
f 396 656 655
f 396 655 660
f 403 650 401
f 650 649 401
f 401 649 648
f 401 648 400
f 400 648 647
f 400 647 646
f 143 654 423
f 423 654 653
f 423 653 403
f 403 653 652
f 403 652 651
f 630 136 135
f 631 630 437
f 437 630 135
f 437 135 435
f 631 437 624
f 624 437 438
f 624 438 625
f 418 627 438
f 438 627 626
f 438 626 625
f 417 629 418
f 418 629 628
f 418 628 627
f 467 618 417
f 417 618 617
f 417 617 629
f 469 620 467
f 467 620 619
f 467 619 618
f 269 623 270
f 270 623 622
f 270 622 469
f 469 622 621
f 469 621 620
f 135 155 435
f 435 155 154
f 435 154 446
f 446 154 189
f 446 189 445
f 445 189 148
f 445 148 344
