# component mesh in local component coordinates
v -16.2999992 18.0499992 -6.19999981
v -16.2999992 15.6500006 -6.19999981
v -16.2999992 18.0499992 -0.549999893
v -16.2999992 15.6500006 -0.549999893
v -13.1423302 18.0499992 -0.753307045
v -13.0239773 18.0499992 -0.630704582
v -11.3000002 18.0499992 -6.19999981
v -12.9281578 18.0499992 -0.489786804
v -12.8576555 18.0499992 -0.334646881
v -12.8145199 18.0499992 -0.169788554
v -12.7999992 18.0499992 2.86102306e-07
v -11.3000002 18.0499992 6.20000076
v -14.1012192 18.0499992 0.953554928
v -14.258749 18.0499992 0.888566315
v -16.2999992 18.0499992 6.20000076
v -14.402956 18.0499992 -0.797774017
v -14.258749 18.0499992 -0.888565719
v -14.1012192 18.0499992 -0.953554809
v -13.9349422 18.0499992 -0.990853012
v -13.7647486 18.0499992 -0.999378383
v -13.5955763 18.0499992 -0.978882492
v -13.4323416 18.0499992 -0.929960907
v -13.2797823 18.0499992 -0.854034126
v -12.8145199 18.0499992 0.169788644
v -12.8576555 18.0499992 0.334647
v -12.9281578 18.0499992 0.4897874
v -13.2797823 18.0499992 0.854034245
v -13.4323416 18.0499992 0.929961026
v -14.6351643 18.0499992 0.550000012
v -16.2999992 18.0499992 0.550000012
v -14.5296545 18.0499992 0.683815777
v -14.402956 18.0499992 0.797774613
v -14.6351643 18.0499992 -0.549999893
v -14.5296545 18.0499992 -0.683815658
v -13.0239773 18.0499992 0.630704701
v -13.1423302 18.0499992 0.753307164
v -13.5955763 18.0499992 0.978882611
v -13.7647486 18.0499992 0.999378502
v -13.9349422 18.0499992 0.990853608
v -11.3000002 15.6500006 -6.19999981
v -12.8576555 15.6500006 -0.334646881
v -12.9281578 15.6500006 -0.489786804
v -13.0239773 15.6500006 -0.630704582
v -16.2999992 15.6500006 6.20000076
v -16.2999992 15.6500006 0.550000012
v -14.6351643 15.6500006 0.550000012
v -14.1012192 15.6500006 -0.953554809
v -14.258749 15.6500006 -0.888565719
v -14.5296545 15.6500006 0.683815777
v -14.402956 15.6500006 0.797774613
v -14.258749 15.6500006 0.888566315
v -13.5955763 15.6500006 0.978882611
v -13.4323416 15.6500006 0.929961026
v -11.3000002 15.6500006 6.20000076
v -13.2797823 15.6500006 0.854034245
v -13.1423302 15.6500006 0.753307164
v -12.8576555 15.6500006 0.334647
v -12.8145199 15.6500006 0.169788644
v -12.7999992 15.6500006 2.86102306e-07
v -12.8145199 15.6500006 -0.169788554
v -13.1423302 15.6500006 -0.753307045
v -13.2797823 15.6500006 -0.854034126
v -13.4323416 15.6500006 -0.929960907
v -13.5955763 15.6500006 -0.978882492
v -13.7647486 15.6500006 -0.999378383
v -13.9349422 15.6500006 -0.990853012
v -14.1012192 15.6500006 0.953554928
v -13.9349422 15.6500006 0.990853608
v -13.7647486 15.6500006 0.999378502
v -13.0239773 15.6500006 0.630704701
v -12.9281578 15.6500006 0.4897874
v -14.6351643 15.6500006 -0.549999893
v -14.5296545 15.6500006 -0.683815658
v -14.402956 15.6500006 -0.797774017
v 16.3000031 15.6500006 -6.19999981
v 16.3000031 15.6500006 -0.549999893
v 14.6351652 15.6500006 -0.549999893
v 13.5955763 15.6500006 -0.978882492
v 13.4323416 15.6500006 -0.929960907
v 11.3000002 15.6500006 -6.19999981
v 13.2797823 15.6500006 -0.854034126
v 13.1423311 15.6500006 -0.753307045
v 13.0239763 15.6500006 -0.630704582
v 12.9281588 15.6500006 -0.489786804
v 12.8576555 15.6500006 -0.334646881
v 12.8145208 15.6500006 -0.169788554
v 12.8000002 15.6500006 2.86102306e-07
v 11.3000002 15.6500006 6.20000076
v 12.8145208 15.6500006 0.169788644
v 12.8576555 15.6500006 0.334647
v 12.9281588 15.6500006 0.4897874
v 13.0239763 15.6500006 0.630704701
v 14.5296545 15.6500006 -0.683815658
v 14.402957 15.6500006 -0.797774017
v 14.2587481 15.6500006 -0.888565719
v 13.1423311 15.6500006 0.753307164
v 13.2797823 15.6500006 0.854034245
v 13.4323416 15.6500006 0.929961026
v 13.5955763 15.6500006 0.978882611
v 13.7647486 15.6500006 0.999378502
v 16.3000031 15.6500006 6.20000076
v 14.1012201 15.6500006 -0.953554809
v 13.9349432 15.6500006 -0.990853012
v 13.7647486 15.6500006 -0.999378383
v 13.9349432 15.6500006 0.990853608
v 14.1012201 15.6500006 0.953554928
v 14.2587481 15.6500006 0.888566315
v 14.6351652 15.6500006 0.550000012
v 16.3000031 15.6500006 0.550000012
v 14.5296545 15.6500006 0.683815777
v 14.402957 15.6500006 0.797774613
v 14.1012201 18.0499992 -0.953554809
v 14.2587481 18.0499992 -0.888565719
v 16.3000031 18.0499992 -6.19999981
v 13.1423311 18.0499992 0.753307164
v 13.0239763 18.0499992 0.630704701
v 11.3000002 18.0499992 6.20000076
v 12.9281588 18.0499992 0.4897874
v 12.8576555 18.0499992 0.334647
v 12.8145208 18.0499992 -0.169788554
v 11.3000002 18.0499992 -6.19999981
v 12.8000002 18.0499992 2.86102306e-07
v 12.8145208 18.0499992 0.169788644
v 12.8576555 18.0499992 -0.334646881
v 12.9281588 18.0499992 -0.489786804
v 13.0239763 18.0499992 -0.630704582
v 13.1423311 18.0499992 -0.753307045
v 13.2797823 18.0499992 -0.854034126
v 13.4323416 18.0499992 -0.929960907
v 16.3000031 18.0499992 6.20000076
v 14.402957 18.0499992 0.797774613
v 14.2587481 18.0499992 0.888566315
v 14.6351652 18.0499992 -0.549999893
v 16.3000031 18.0499992 -0.549999893
v 14.5296545 18.0499992 -0.683815658
v 14.402957 18.0499992 -0.797774017
v 16.3000031 18.0499992 0.550000012
v 14.6351652 18.0499992 0.550000012
v 14.5296545 18.0499992 0.683815777
v 14.1012201 18.0499992 0.953554928
v 13.9349432 18.0499992 0.990853608
v 13.7647486 18.0499992 0.999378502
v 13.5955763 18.0499992 0.978882611
v 13.4323416 18.0499992 0.929961026
v 13.2797823 18.0499992 0.854034245
v 13.5955763 18.0499992 -0.978882492
v 13.7647486 18.0499992 -0.999378383
v 13.9349432 18.0499992 -0.990853012
v 0.9666664 22.2999992 -1.27888846
v 1.18221974 22.2999992 -1.29987836
v 0.697795093 22.2999992 -2.19672036
v 0.290959537 22.2999992 -3.06228018
v 11.3000002 22.2999992 -6.19999981
v -5.10000038 22.2999992 -6.19999981
v -4.31018829 22.2999992 -6.1494875
v -3.37379813 22.2999992 -5.95484877
v -2.47848582 22.2999992 -5.61851072
v -1.6455543 22.2999992 -5.14847565
v 1.99032712 22.2999992 -1.0321734
v 2.15071607 22.2999992 -0.886644542
v 2.28471875 22.2999992 -0.716507614
v 2.38861775 22.2999992 -0.526485622
v -0.894822896 22.2999992 -4.55592871
v -0.244158551 22.2999992 -3.85497046
v 2.28471875 22.2999992 0.71650821
v 11.3000002 22.2999992 6.20000076
v 2.38861775 22.2999992 0.526486218
v 2.45952916 22.2999992 0.321852505
v 2.15071607 22.2999992 0.886644661
v 1.99032712 22.2999992 1.03217387
v 1.80800557 22.2999992 1.14905667
v 0.290959537 22.2999992 3.06228042
v -0.244158551 22.2999992 3.85497069
v 1.39826512 22.2999992 -1.28479218
v 1.6088078 22.2999992 -1.2340486
v 1.80800557 22.2999992 -1.1490562
v -0.894822896 22.2999992 4.55592918
v -1.6455543 22.2999992 5.1484766
v -2.47848582 22.2999992 5.6185112
v 2.45952916 22.2999992 -0.321851909
v 2.49548268 22.2999992 -0.108285621
v 2.49548268 22.2999992 0.108286187
v 0.9666664 22.2999992 1.27888846
v 0.697795093 22.2999992 2.19672084
v 1.18221974 22.2999992 1.29987836
v 1.39826512 22.2999992 1.28479266
v 1.6088078 22.2999992 1.23404908
v -3.37379813 22.2999992 5.95484924
v -4.31018829 22.2999992 6.1494875
v -5.10000038 22.2999992 6.20000076
v -11.3000002 22.2999992 2.86102306e-07
v -11.2262325 22.2999992 -0.953554809
v -11.3000002 22.2999992 -6.19999981
v -11.0066872 22.2999992 -1.8844192
v -10.6465893 22.2999992 -2.77044225
v -10.1545038 22.2999992 -3.59054065
v -9.54214478 22.2999992 -4.32519913
v -7.14129639 22.2999992 -5.85432386
v -6.21661854 22.2999992 -6.09861946
v -5.26537132 22.2999992 -6.19779396
v -8.82407951 22.2999992 -4.95693684
v -8.01739883 22.2999992 -5.47072029
v 11.3000002 0 -6.19999981
v 11.3000002 0 6.20000076
v -11.3000002 0 -6.19999981
v -11.3000002 0 6.20000076
v -11.3000002 22.2999992 6.20000076
v -11.2262325 22.2999992 0.953554928
v -10.1545038 22.2999992 3.59054065
v -10.6465893 22.2999992 2.77044272
v -11.0066872 22.2999992 1.8844192
v -7.14129639 22.2999992 5.85432434
v -8.01739883 22.2999992 5.47072124
v -5.26537132 22.2999992 6.19779491
v -6.21661854 22.2999992 6.09862041
v -8.82407951 22.2999992 4.95693684
v -9.54214478 22.2999992 4.32520008
v 0.9666664 26.6000004 1.27888846
v 1.18221974 26.6000004 1.29987836
v 1.39826512 26.6000004 1.28479266
v 1.6088078 26.6000004 1.23404908
v 1.80800557 26.6000004 1.14905667
v 1.99032712 26.6000004 1.03217387
v 2.15071607 26.6000004 0.886644661
v 2.28471875 26.6000004 0.71650821
v 2.38861775 26.6000004 0.526486218
v 2.45952916 26.6000004 0.321852505
v 2.49548268 26.6000004 0.108286187
v 2.49548268 26.6000004 -0.108285621
v 2.45952916 26.6000004 -0.321851909
v 2.38861775 26.6000004 -0.526485622
v 2.28471875 26.6000004 -0.716507614
v 2.15071607 26.6000004 -0.886644542
v 1.99032712 26.6000004 -1.0321734
v 1.80800557 26.6000004 -1.1490562
v 1.6088078 26.6000004 -1.2340486
v 1.39826512 26.6000004 -1.28479218
v 1.18221974 26.6000004 -1.29987836
v 0.9666664 26.6000004 -1.27888846
v 0.697795093 26.6000004 -2.19672036
v 0.290959537 26.6000004 -3.06228018
v -0.244158551 26.6000004 -3.85497046
v -0.894822896 26.6000004 -4.55592871
v -1.6455543 26.6000004 -5.14847565
v -2.47848582 26.6000004 -5.61851072
v -3.37379813 26.6000004 -5.95484877
v -4.31018829 26.6000004 -6.1494875
v -5.26537132 26.6000004 -6.19779396
v -6.21661854 26.6000004 -6.09861946
v -7.14129639 26.6000004 -5.85432386
v -8.01739883 26.6000004 -5.47072029
v -8.82407951 26.6000004 -4.95693684
v -9.54214478 26.6000004 -4.32519913
v -10.1545038 26.6000004 -3.59054065
v -10.6465893 26.6000004 -2.77044225
v -11.0066872 26.6000004 -1.8844192
v -11.2262325 26.6000004 -0.953554809
v -11.3000002 26.6000004 2.86102306e-07
v -11.2262325 26.6000004 0.953554928
v -11.0066872 26.6000004 1.8844192
v -10.6465893 26.6000004 2.77044272
v -10.1545038 26.6000004 3.59054065
v -9.54214478 26.6000004 4.32520008
v -8.82407951 26.6000004 4.95693684
v -8.01739883 26.6000004 5.47072124
v -7.14129639 26.6000004 5.85432434
v -6.21661854 26.6000004 6.09862041
v -5.26537132 26.6000004 6.19779491
v -4.31018829 26.6000004 6.1494875
v -3.37379813 26.6000004 5.95484924
v -2.47848582 26.6000004 5.6185112
v -1.6455543 26.6000004 5.1484766
v -0.894822896 26.6000004 4.55592918
v -0.244158551 26.6000004 3.85497069
v 0.290959537 26.6000004 3.06228042
v 0.697795093 26.6000004 2.19672084
v -6.12975311 26.6000004 2.27807117
v -5.72994518 26.6000004 2.41933227
v -5.31201458 26.6000004 2.49099422
v -2.78027701 26.6000004 -0.932141006
v -2.65611148 26.6000004 -0.526697814
v -4.67749786 26.6000004 -2.46403956
v -4.26715088 26.6000004 -2.35719347
v -3.88076282 26.6000004 -2.18253541
v -7.22882271 26.6000004 -1.31076789
v -7.41972256 26.6000004 -0.932141006
v -7.54388809 26.6000004 -0.526697814
v -7.59774685 26.6000004 -0.10610266
v -7.57975101 26.6000004 0.317544758
v -7.49041653 26.6000004 0.732056916
v -7.33231449 26.6000004 1.1255095
v -7.10999298 26.6000004 1.48658299
v -6.82984734 26.6000004 1.80489039
v -6.49993706 26.6000004 2.07127452
v -3.52944922 26.6000004 -1.9450891
v -3.22331882 26.6000004 -1.65168691
v -2.97117686 26.6000004 -1.31076789
v -5.10000038 26.6000004 -2.49999976
v -5.52250195 26.6000004 -2.46403956
v -5.93284893 26.6000004 -2.35719347
v -6.31923771 26.6000004 -2.18253541
v -6.67055035 26.6000004 -1.9450891
v -6.97668076 26.6000004 -1.65168691
v -2.60225272 26.6000004 -0.10610266
v -2.62024856 26.6000004 0.317544758
v -2.70958304 26.6000004 0.732056916
v -2.86768508 26.6000004 1.1255095
v -3.09000659 26.6000004 1.48658299
v -3.37015224 26.6000004 1.80489039
v -3.70006251 26.6000004 2.07127452
v -4.0702467 26.6000004 2.27807117
v -4.47005463 26.6000004 2.41933227
v -4.88798523 26.6000004 2.49099422
v -5.10000038 26.6000004 2.49999976
v -4.88798523 29.8999996 2.49099422
v -5.10000038 29.8999996 2.49999976
v -5.31201458 29.8999996 2.49099422
v -5.72994518 29.8999996 2.41933227
v -6.12975311 29.8999996 2.27807117
v -6.49993706 29.8999996 2.07127452
v -6.82984734 29.8999996 1.80489039
v -7.10999298 29.8999996 1.48658299
v -7.33231449 29.8999996 1.1255095
v -7.49041653 29.8999996 0.732056916
v -7.57975101 29.8999996 0.317544758
v -7.59774685 29.8999996 -0.10610266
v -7.54388809 29.8999996 -0.526697814
v -7.41972256 29.8999996 -0.932141006
v -7.22882271 29.8999996 -1.31076789
v -6.97668076 29.8999996 -1.65168691
v -6.67055035 29.8999996 -1.9450891
v -6.31923771 29.8999996 -2.18253541
v -5.93284893 29.8999996 -2.35719347
v -5.52250195 29.8999996 -2.46403956
v -5.10000038 29.8999996 -2.49999976
v -4.67749786 29.8999996 -2.46403956
v -4.26715088 29.8999996 -2.35719347
v -3.88076282 29.8999996 -2.18253541
v -3.52944922 29.8999996 -1.9450891
v -3.22331882 29.8999996 -1.65168691
v -2.97117686 29.8999996 -1.31076789
v -2.78027701 29.8999996 -0.932141006
v -2.65611148 29.8999996 -0.526697814
v -2.60225272 29.8999996 -0.10610266
v -2.62024856 29.8999996 0.317544758
v -2.70958304 29.8999996 0.732056916
v -2.86768508 29.8999996 1.1255095
v -3.09000659 29.8999996 1.48658299
v -3.37015224 29.8999996 1.80489039
v -3.70006251 29.8999996 2.07127452
v -4.0702467 29.8999996 2.27807117
v -4.47005463 29.8999996 2.41933227
v -5.10000038 29.8999996 2.86102306e-07
v -13.6000004 4.54007578 0.59866029
v -13.6000004 4.5 0.600000203
v -11.3000002 4.5 0.600000203
v -11.3000002 4.4599247 0.59866029
v -13.6000004 4.4599247 0.59866029
v -13.6000004 4.3804884 0.587977231
v -11.3000002 4.3804884 0.587977231
v -13.6000004 4.30318546 0.566801846
v -11.3000002 4.30318546 0.566801846
v -13.6000004 4.22939396 0.535511315
v -11.3000002 4.22939396 0.535511315
v -13.6000004 4.16043186 0.494664967
v -11.3000002 4.16043186 0.494664967
v -13.6000004 4.09752941 0.44499141
v -11.3000002 4.09752941 0.44499141
v -13.6000004 4.04180861 0.387377083
v -11.3000002 4.04180861 0.387377083
v -13.6000004 3.9942646 0.322849572
v -11.3000002 3.9942646 0.322849572
v -13.6000004 3.9557457 0.252560914
v -11.3000002 3.9557457 0.252560914
v -13.6000004 3.9269383 0.177765653
v -11.3000002 3.9269383 0.177765653
v -13.6000004 3.9083581 0.0997980088
v -11.3000002 3.9083581 0.0997980088
v -13.6000004 3.90033507 0.020049382
v -11.3000002 3.90033507 0.020049382
v -13.6000004 3.90301347 -0.0600573532
v -11.3000002 3.90301347 -0.0600573532
v -13.6000004 3.91634464 -0.139091685
v -11.3000002 3.91634464 -0.139091685
v -13.6000004 3.94009137 -0.215644553
v -11.3000002 3.94009137 -0.215644553
v -13.6000004 3.97382998 -0.288348854
v -11.3000002 3.97382998 -0.288348854
v -13.6000004 4.01695824 -0.355907619
v -11.3000002 4.01695824 -0.355907619
v -13.6000004 4.06870556 -0.41711539
v -11.3000002 4.06870556 -0.41711539
v -13.6000004 4.12814999 -0.470879257
v -11.3000002 4.12814999 -0.470879257
v -13.6000004 4.19423008 -0.516240776
v -11.3000002 4.19423008 -0.516240776
v -13.6000004 4.26576662 -0.552389801
v -11.3000002 4.26576662 -0.552389801
v -13.6000004 4.34148264 -0.578681171
v -11.3000002 4.34148264 -0.578681171
v -13.6000004 4.42002773 -0.594646156
v -11.3000002 4.42002773 -0.594646156
v -13.6000004 4.5 -0.599999607
v -11.3000002 4.5 -0.599999607
v -13.6000004 4.57997179 -0.594646156
v -11.3000002 4.57997179 -0.594646156
v -13.6000004 4.65851736 -0.578681171
v -11.3000002 4.65851736 -0.578681171
v -13.6000004 4.73423338 -0.552389801
v -11.3000002 4.73423338 -0.552389801
v -13.6000004 4.80576992 -0.516240776
v -11.3000002 4.80576992 -0.516240776
v -13.6000004 4.87185001 -0.470879257
v -11.3000002 4.87185001 -0.470879257
v -13.6000004 4.93129444 -0.41711539
v -11.3000002 4.93129444 -0.41711539
v -13.6000004 4.98304176 -0.355907619
v -11.3000002 4.98304176 -0.355907619
v -13.6000004 5.02617025 -0.288348854
v -11.3000002 5.02617025 -0.288348854
v -13.6000004 5.05990791 -0.215644553
v -11.3000002 5.05990791 -0.215644553
v -13.6000004 5.08365488 -0.139091685
v -11.3000002 5.08365488 -0.139091685
v -13.6000004 5.09698677 -0.0600573532
v -11.3000002 5.09698677 -0.0600573532
v -13.6000004 5.09966469 0.020049382
v -11.3000002 5.09966469 0.020049382
v -13.6000004 5.0916419 0.0997980088
v -11.3000002 5.0916419 0.0997980088
v -13.6000004 5.07306147 0.177765653
v -11.3000002 5.07306147 0.177765653
v -13.6000004 5.0442543 0.252560914
v -11.3000002 5.0442543 0.252560914
v -13.6000004 5.0057354 0.322849572
v -11.3000002 5.0057354 0.322849572
v -13.6000004 4.95819139 0.387377083
v -11.3000002 4.95819139 0.387377083
v -13.6000004 4.90247107 0.44499141
v -11.3000002 4.90247107 0.44499141
v -13.6000004 4.83956861 0.494664967
v -11.3000002 4.83956861 0.494664967
v -13.6000004 4.77060652 0.535511315
v -11.3000002 4.77060652 0.535511315
v -13.6000004 4.69681501 0.566801846
v -11.3000002 4.69681501 0.566801846
v -13.6000004 4.6195116 0.587977231
v -11.3000002 4.6195116 0.587977231
v -11.3000002 4.54007578 0.59866029
v -13.6000004 4.5 2.86102306e-07
v -11.3000002 4.5 2.86102306e-07
v -13.6000004 4.54007578 -0.601339519
v -11.3000002 4.4599247 -0.601339519
v -13.6000004 4.4599247 -0.601339519
v -13.6000004 4.3804884 -0.612022579
v -11.3000002 4.3804884 -0.612022579
v -13.6000004 4.30318546 -0.63319844
v -11.3000002 4.30318546 -0.63319844
v -13.6000004 4.22939396 -0.664488494
v -11.3000002 4.22939396 -0.664488494
v -13.6000004 4.16043186 -0.705334842
v -11.3000002 4.16043186 -0.705334842
v -13.6000004 4.09752941 -0.755008399
v -11.3000002 4.09752941 -0.755008399
v -13.6000004 4.04180861 -0.812623203
v -11.3000002 4.04180861 -0.812623203
v -13.6000004 3.9942646 -0.877150238
v -11.3000002 3.9942646 -0.877150238
v -13.6000004 3.9557457 -0.947438896
v -11.3000002 3.9557457 -0.947438896
v -13.6000004 3.9269383 -1.02223468
v -11.3000002 3.9269383 -1.02223468
v -13.6000004 3.9083581 -1.10020232
v -11.3000002 3.9083581 -1.10020232
v -13.6000004 3.90033507 -1.17995095
v -11.3000002 3.90033507 -1.17995095
v -13.6000004 3.90301347 -1.26005721
v -11.3000002 3.90301347 -1.26005721
v -13.6000004 3.91634464 -1.33909202
v -11.3000002 3.91634464 -1.33909202
v -13.6000004 3.94009137 -1.41564441
v -11.3000002 3.94009137 -1.41564441
v -13.6000004 3.97382998 -1.48834872
v -11.3000002 3.97382998 -1.48834872
v -13.6000004 4.01695824 -1.55590796
v -11.3000002 4.01695824 -1.55590796
v -13.6000004 4.06870556 -1.61711526
v -11.3000002 4.06870556 -1.61711526
v -13.6000004 4.12814999 -1.6708796
v -11.3000002 4.12814999 -1.6708796
v -13.6000004 4.19423008 -1.71624064
v -11.3000002 4.19423008 -1.71624064
v -13.6000004 4.26576662 -1.75238967
v -11.3000002 4.26576662 -1.75238967
v -13.6000004 4.34148264 -1.77868152
v -11.3000002 4.34148264 -1.77868152
v -13.6000004 4.42002773 -1.7946465
v -11.3000002 4.42002773 -1.7946465
v -13.6000004 4.5 -1.79999995
v -11.3000002 4.5 -1.79999995
v -13.6000004 4.57997179 -1.7946465
v -11.3000002 4.57997179 -1.7946465
v -13.6000004 4.65851736 -1.77868152
v -11.3000002 4.65851736 -1.77868152
v -13.6000004 4.73423338 -1.75238967
v -11.3000002 4.73423338 -1.75238967
v -13.6000004 4.80576992 -1.71624064
v -11.3000002 4.80576992 -1.71624064
v -13.6000004 4.87185001 -1.6708796
v -11.3000002 4.87185001 -1.6708796
v -13.6000004 4.93129444 -1.61711526
v -11.3000002 4.93129444 -1.61711526
v -13.6000004 4.98304176 -1.55590796
v -11.3000002 4.98304176 -1.55590796
v -13.6000004 5.02617025 -1.48834872
v -11.3000002 5.02617025 -1.48834872
v -13.6000004 5.05990791 -1.41564441
v -11.3000002 5.05990791 -1.41564441
v -13.6000004 5.08365488 -1.33909202
v -11.3000002 5.08365488 -1.33909202
v -13.6000004 5.09698677 -1.26005721
v -11.3000002 5.09698677 -1.26005721
v -13.6000004 5.09966469 -1.17995095
v -11.3000002 5.09966469 -1.17995095
v -13.6000004 5.0916419 -1.10020232
v -11.3000002 5.0916419 -1.10020232
v -13.6000004 5.07306147 -1.02223468
v -11.3000002 5.07306147 -1.02223468
v -13.6000004 5.0442543 -0.947438896
v -11.3000002 5.0442543 -0.947438896
v -13.6000004 5.0057354 -0.877150238
v -11.3000002 5.0057354 -0.877150238
v -13.6000004 4.95819139 -0.812623203
v -11.3000002 4.95819139 -0.812623203
v -13.6000004 4.90247107 -0.755008399
v -11.3000002 4.90247107 -0.755008399
v -13.6000004 4.83956861 -0.705334842
v -11.3000002 4.83956861 -0.705334842
v -13.6000004 4.77060652 -0.664488494
v -11.3000002 4.77060652 -0.664488494
v -13.6000004 4.69681501 -0.63319844
v -11.3000002 4.69681501 -0.63319844
v -13.6000004 4.6195116 -0.612022579
v -11.3000002 4.6195116 -0.612022579
v -11.3000002 4.54007578 -0.601339519
v -13.6000004 4.5 -1.20000005
v -11.3000002 4.5 -1.20000005
v -13.6000004 4.54007578 1.79866004
v -13.6000004 4.5 1.79999995
v -11.3000002 4.5 1.79999995
v -11.3000002 4.4599247 1.79866004
v -13.6000004 4.4599247 1.79866004
v -13.6000004 4.3804884 1.78797698
v -11.3000002 4.3804884 1.78797698
v -13.6000004 4.30318546 1.7668016
v -11.3000002 4.30318546 1.7668016
v -13.6000004 4.22939396 1.73551154
v -11.3000002 4.22939396 1.73551154
v -13.6000004 4.16043186 1.69466519
v -11.3000002 4.16043186 1.69466519
v -13.6000004 4.09752941 1.64499116
v -11.3000002 4.09752941 1.64499116
v -13.6000004 4.04180861 1.58737683
v -11.3000002 4.04180861 1.58737683
v -13.6000004 3.9942646 1.5228498
v -11.3000002 3.9942646 1.5228498
v -13.6000004 3.9557457 1.45256114
v -11.3000002 3.9557457 1.45256114
v -13.6000004 3.9269383 1.37776542
v -11.3000002 3.9269383 1.37776542
v -13.6000004 3.9083581 1.29979777
v -11.3000002 3.9083581 1.29979777
v -13.6000004 3.90033507 1.22004914
v -11.3000002 3.90033507 1.22004914
v -13.6000004 3.90301347 1.13994288
v -11.3000002 3.90301347 1.13994288
v -13.6000004 3.91634464 1.06090808
v -11.3000002 3.91634464 1.06090808
v -13.6000004 3.94009137 0.984355748
v -11.3000002 3.94009137 0.984355748
v -13.6000004 3.97382998 0.911650956
v -11.3000002 3.97382998 0.911650956
v -13.6000004 4.01695824 0.84409219
v -11.3000002 4.01695824 0.84409219
v -13.6000004 4.06870556 0.782884896
v -11.3000002 4.06870556 0.782884896
v -13.6000004 4.12814999 0.729120553
v -11.3000002 4.12814999 0.729120553
v -13.6000004 4.19423008 0.683759034
v -11.3000002 4.19423008 0.683759034
v -13.6000004 4.26576662 0.647610009
v -11.3000002 4.26576662 0.647610009
v -13.6000004 4.34148264 0.621318638
v -11.3000002 4.34148264 0.621318638
v -13.6000004 4.42002773 0.605353653
v -11.3000002 4.42002773 0.605353653
v -13.6000004 4.57997179 0.605353653
v -11.3000002 4.57997179 0.605353653
v -13.6000004 4.65851736 0.621318638
v -11.3000002 4.65851736 0.621318638
v -13.6000004 4.73423338 0.647610009
v -11.3000002 4.73423338 0.647610009
v -13.6000004 4.80576992 0.683759034
v -11.3000002 4.80576992 0.683759034
v -13.6000004 4.87185001 0.729120553
v -11.3000002 4.87185001 0.729120553
v -13.6000004 4.93129444 0.782884896
v -11.3000002 4.93129444 0.782884896
v -13.6000004 4.98304176 0.84409219
v -11.3000002 4.98304176 0.84409219
v -13.6000004 5.02617025 0.911650956
v -11.3000002 5.02617025 0.911650956
v -13.6000004 5.05990791 0.984355748
v -11.3000002 5.05990791 0.984355748
v -13.6000004 5.08365488 1.06090808
v -11.3000002 5.08365488 1.06090808
v -13.6000004 5.09698677 1.13994288
v -11.3000002 5.09698677 1.13994288
v -13.6000004 5.09966469 1.22004914
v -11.3000002 5.09966469 1.22004914
v -13.6000004 5.0916419 1.29979777
v -11.3000002 5.0916419 1.29979777
v -13.6000004 5.07306147 1.37776542
v -11.3000002 5.07306147 1.37776542
v -13.6000004 5.0442543 1.45256114
v -11.3000002 5.0442543 1.45256114
v -13.6000004 5.0057354 1.5228498
v -11.3000002 5.0057354 1.5228498
v -13.6000004 4.95819139 1.58737683
v -11.3000002 4.95819139 1.58737683
v -13.6000004 4.90247107 1.64499116
v -11.3000002 4.90247107 1.64499116
v -13.6000004 4.83956861 1.69466519
v -11.3000002 4.83956861 1.69466519
v -13.6000004 4.77060652 1.73551154
v -11.3000002 4.77060652 1.73551154
v -13.6000004 4.69681501 1.7668016
v -11.3000002 4.69681501 1.7668016
v -13.6000004 4.6195116 1.78797698
v -11.3000002 4.6195116 1.78797698
v -11.3000002 4.54007578 1.79866004
v -13.6000004 4.5 1.20000005
v -11.3000002 4.5 1.20000005
f 1 2 3
f 3 2 4
f 5 6 7
f 7 6 8
f 7 8 9
f 9 10 7
f 7 10 11
f 7 11 12
f 13 14 15
f 1 16 17
f 17 18 1
f 1 18 19
f 1 19 7
f 7 19 20
f 7 20 21
f 21 22 7
f 7 22 23
f 7 23 5
f 11 24 12
f 12 24 25
f 12 25 26
f 12 27 28
f 29 30 31
f 31 30 15
f 31 15 32
f 32 15 14
f 3 33 1
f 1 33 34
f 1 34 16
f 26 35 12
f 12 35 36
f 12 36 27
f 28 37 12
f 12 37 38
f 12 38 15
f 15 38 39
f 15 39 13
f 2 1 40
f 40 1 7
f 41 42 40
f 40 42 43
f 44 45 46
f 2 47 48
f 46 49 44
f 44 49 50
f 44 50 51
f 52 53 54
f 54 53 55
f 54 55 56
f 57 58 54
f 54 58 59
f 54 59 40
f 40 59 60
f 40 60 41
f 43 61 40
f 40 61 62
f 40 62 63
f 63 64 40
f 40 64 65
f 40 65 2
f 2 65 66
f 2 66 47
f 51 67 44
f 44 67 68
f 44 68 54
f 54 68 69
f 54 69 52
f 56 70 54
f 54 70 71
f 54 71 57
f 72 4 73
f 73 4 2
f 73 2 74
f 74 2 48
f 15 44 12
f 12 44 54
f 44 15 45
f 45 15 30
f 54 40 12
f 12 40 7
f 33 3 72
f 72 3 4
f 46 29 49
f 49 29 31
f 49 31 50
f 50 31 32
f 50 32 51
f 51 32 14
f 51 14 67
f 67 14 13
f 67 13 68
f 68 13 39
f 68 39 69
f 69 39 38
f 69 38 52
f 52 38 37
f 52 37 53
f 53 37 28
f 53 28 55
f 55 28 27
f 55 27 56
f 56 27 36
f 56 36 70
f 70 36 35
f 70 35 71
f 71 35 26
f 71 26 57
f 57 26 25
f 57 25 58
f 58 25 24
f 58 24 59
f 59 24 11
f 59 11 60
f 60 11 10
f 60 10 41
f 41 10 9
f 41 9 42
f 42 9 8
f 42 8 43
f 43 8 6
f 43 6 61
f 61 6 5
f 61 5 62
f 62 5 23
f 62 23 63
f 63 23 22
f 63 22 64
f 64 22 21
f 64 21 65
f 65 21 20
f 65 20 66
f 66 20 19
f 66 19 47
f 47 19 18
f 47 18 48
f 48 18 17
f 48 17 74
f 74 17 16
f 74 16 73
f 73 16 34
f 73 34 72
f 72 34 33
f 30 29 45
f 45 29 46
f 75 76 77
f 78 79 80
f 80 79 81
f 80 81 82
f 82 83 80
f 80 83 84
f 80 84 85
f 85 86 80
f 80 86 87
f 80 87 88
f 88 87 89
f 89 90 88
f 88 90 91
f 88 91 92
f 77 93 75
f 75 93 94
f 75 94 95
f 92 96 88
f 88 96 97
f 88 97 98
f 98 99 88
f 88 99 100
f 88 100 101
f 95 102 75
f 75 102 103
f 75 103 80
f 80 103 104
f 80 104 78
f 100 105 101
f 101 105 106
f 101 106 107
f 108 109 110
f 110 109 101
f 110 101 111
f 111 101 107
f 112 113 114
f 115 116 117
f 117 116 118
f 117 118 119
f 120 121 122
f 122 121 117
f 122 117 123
f 123 117 119
f 120 124 121
f 121 124 125
f 121 125 126
f 126 127 121
f 121 127 128
f 121 128 129
f 130 131 132
f 133 134 135
f 135 134 114
f 135 114 136
f 136 114 113
f 137 138 130
f 130 138 139
f 130 139 131
f 132 140 130
f 130 140 141
f 130 141 117
f 117 141 142
f 117 142 143
f 143 144 117
f 117 144 145
f 117 145 115
f 129 146 121
f 121 146 147
f 121 147 114
f 114 147 148
f 114 148 112
f 76 75 134
f 134 75 114
f 101 130 88
f 88 130 117
f 114 75 121
f 121 75 80
f 130 101 137
f 137 101 109
f 121 80 117
f 117 80 88
f 77 133 93
f 93 133 135
f 93 135 94
f 94 135 136
f 94 136 95
f 95 136 113
f 95 113 102
f 102 113 112
f 102 112 103
f 103 112 148
f 103 148 104
f 104 148 147
f 104 147 78
f 78 147 146
f 78 146 79
f 79 146 129
f 79 129 81
f 81 129 128
f 81 128 82
f 82 128 127
f 82 127 83
f 83 127 126
f 83 126 84
f 84 126 125
f 84 125 85
f 85 125 124
f 85 124 86
f 86 124 120
f 86 120 87
f 87 120 122
f 87 122 89
f 89 122 123
f 89 123 90
f 90 123 119
f 90 119 91
f 91 119 118
f 91 118 92
f 92 118 116
f 92 116 96
f 96 116 115
f 96 115 97
f 97 115 145
f 97 145 98
f 98 145 144
f 98 144 99
f 99 144 143
f 99 143 100
f 100 143 142
f 100 142 105
f 105 142 141
f 105 141 106
f 106 141 140
f 106 140 107
f 107 140 132
f 107 132 111
f 111 132 131
f 111 131 110
f 110 131 139
f 110 139 108
f 108 139 138
f 133 77 134
f 134 77 76
f 138 137 108
f 108 137 109
f 149 150 151
f 151 150 152
f 153 154 155
f 155 156 153
f 153 156 157
f 153 157 158
f 159 160 153
f 153 160 161
f 153 161 162
f 158 163 153
f 153 163 164
f 153 164 152
f 165 166 167
f 167 166 168
f 165 169 166
f 166 169 170
f 166 170 171
f 172 173 166
f 150 174 152
f 152 174 175
f 152 175 153
f 153 175 176
f 153 176 159
f 173 177 166
f 166 177 178
f 166 178 179
f 162 180 153
f 153 180 181
f 153 181 166
f 166 181 182
f 166 182 168
f 183 184 185
f 185 184 172
f 185 172 186
f 186 172 166
f 186 166 187
f 187 166 171
f 179 188 166
f 166 188 189
f 166 189 190
f 191 192 193
f 193 192 194
f 194 195 193
f 193 195 196
f 193 196 197
f 198 199 193
f 193 199 200
f 193 200 154
f 197 201 193
f 193 201 202
f 193 202 198
f 153 166 203
f 203 166 204
f 153 203 154
f 154 203 205
f 154 205 193
f 193 205 191
f 191 205 206
f 191 206 207
f 207 206 190
f 190 206 204
f 190 204 166
f 208 191 207
f 209 210 207
f 207 210 211
f 207 211 208
f 207 212 213
f 190 214 207
f 207 214 215
f 207 215 212
f 213 216 207
f 207 216 217
f 207 217 209
f 206 205 204
f 204 205 203
f 218 183 185
f 218 185 219
f 219 185 186
f 219 186 220
f 220 186 187
f 220 187 221
f 221 187 171
f 221 171 222
f 222 171 170
f 222 170 223
f 223 170 169
f 223 169 224
f 224 169 165
f 224 165 225
f 225 165 167
f 225 167 226
f 226 167 168
f 226 168 227
f 227 168 182
f 227 182 228
f 228 182 181
f 228 181 229
f 229 181 180
f 229 180 230
f 230 180 162
f 230 162 231
f 231 162 161
f 231 161 232
f 232 161 160
f 232 160 233
f 233 160 159
f 233 159 234
f 234 159 176
f 234 176 235
f 235 176 175
f 235 175 236
f 236 175 174
f 236 174 237
f 237 174 150
f 237 150 238
f 238 150 149
f 238 149 239
f 239 149 151
f 239 151 240
f 240 151 152
f 240 152 241
f 241 152 164
f 241 164 242
f 242 164 163
f 242 163 243
f 243 163 158
f 243 158 244
f 244 158 157
f 244 157 245
f 245 157 156
f 245 156 246
f 246 156 155
f 246 155 247
f 247 155 154
f 247 154 248
f 154 200 248
f 248 200 199
f 248 199 249
f 249 199 198
f 249 198 250
f 250 198 202
f 250 202 251
f 251 202 201
f 251 201 252
f 252 201 197
f 252 197 253
f 253 197 196
f 253 196 254
f 254 196 195
f 254 195 255
f 255 195 194
f 255 194 256
f 256 194 192
f 256 192 257
f 257 192 191
f 257 191 258
f 258 191 208
f 258 208 259
f 259 208 211
f 259 211 260
f 260 211 210
f 260 210 261
f 261 210 209
f 261 209 262
f 262 209 217
f 262 217 263
f 263 217 216
f 263 216 264
f 264 216 213
f 264 213 265
f 265 213 212
f 265 212 266
f 266 212 215
f 266 215 267
f 267 215 214
f 267 214 268
f 268 214 190
f 268 190 269
f 190 189 269
f 269 189 188
f 269 188 270
f 270 188 179
f 270 179 271
f 271 179 178
f 271 178 272
f 272 178 177
f 272 177 273
f 273 177 173
f 273 173 274
f 274 173 172
f 274 172 275
f 275 172 184
f 275 184 276
f 276 184 183
f 276 183 218
f 223 224 231
f 241 242 243
f 219 238 218
f 218 238 239
f 218 239 247
f 247 239 240
f 247 240 246
f 246 240 245
f 277 266 278
f 278 266 267
f 278 267 279
f 279 267 268
f 280 281 218
f 241 243 240
f 240 243 244
f 240 244 245
f 282 283 247
f 247 283 284
f 220 231 219
f 219 231 232
f 285 255 286
f 286 255 256
f 286 256 287
f 287 256 257
f 287 257 288
f 288 257 258
f 288 258 289
f 289 258 259
f 289 259 290
f 290 259 260
f 290 260 291
f 291 260 261
f 291 261 292
f 292 261 262
f 292 262 293
f 293 262 263
f 293 263 294
f 294 263 264
f 294 264 277
f 277 264 265
f 277 265 266
f 284 295 247
f 247 295 296
f 247 296 218
f 218 296 297
f 218 297 280
f 220 221 231
f 231 221 222
f 231 222 223
f 224 225 231
f 231 225 226
f 231 226 227
f 227 228 231
f 231 228 229
f 231 229 230
f 232 233 219
f 219 233 234
f 219 234 235
f 235 236 219
f 219 236 237
f 219 237 238
f 282 247 298
f 298 247 248
f 298 248 299
f 299 248 249
f 299 249 300
f 300 249 250
f 300 250 301
f 301 250 251
f 301 251 302
f 302 251 252
f 302 252 303
f 303 252 253
f 303 253 285
f 285 253 254
f 285 254 255
f 281 304 218
f 218 304 305
f 218 305 276
f 276 305 306
f 276 306 275
f 275 306 307
f 275 307 274
f 274 307 308
f 274 308 273
f 273 308 309
f 273 309 272
f 272 309 310
f 272 310 271
f 271 310 311
f 271 311 270
f 270 311 312
f 270 312 269
f 269 312 313
f 269 313 268
f 268 313 314
f 268 314 279
f 315 316 314
f 314 316 279
f 316 317 279
f 279 317 318
f 279 318 278
f 278 318 319
f 278 319 277
f 277 319 320
f 277 320 294
f 294 320 321
f 294 321 293
f 293 321 322
f 293 322 292
f 292 322 323
f 292 323 291
f 291 323 324
f 291 324 290
f 290 324 325
f 290 325 289
f 289 325 326
f 289 326 288
f 288 326 327
f 288 327 287
f 287 327 328
f 287 328 286
f 286 328 329
f 286 329 285
f 285 329 330
f 285 330 303
f 303 330 331
f 303 331 302
f 302 331 332
f 302 332 301
f 301 332 333
f 301 333 300
f 300 333 334
f 300 334 299
f 299 334 335
f 299 335 298
f 298 335 336
f 298 336 282
f 282 336 337
f 282 337 283
f 283 337 338
f 283 338 284
f 284 338 339
f 284 339 295
f 295 339 340
f 295 340 296
f 296 340 341
f 296 341 297
f 297 341 342
f 297 342 280
f 280 342 343
f 280 343 281
f 281 343 344
f 281 344 304
f 304 344 345
f 304 345 305
f 305 345 346
f 305 346 306
f 306 346 347
f 306 347 307
f 307 347 348
f 307 348 308
f 308 348 349
f 308 349 309
f 309 349 350
f 309 350 310
f 310 350 351
f 310 351 311
f 311 351 352
f 311 352 312
f 312 352 315
f 312 315 313
f 313 315 314
f 316 315 353
f 316 353 317
f 320 319 353
f 353 319 318
f 353 318 317
f 323 322 353
f 353 322 321
f 353 321 320
f 326 325 353
f 353 325 324
f 353 324 323
f 329 328 353
f 353 328 327
f 353 327 326
f 332 331 353
f 353 331 330
f 353 330 329
f 335 334 353
f 353 334 333
f 353 333 332
f 338 337 353
f 353 337 336
f 353 336 335
f 341 340 353
f 353 340 339
f 353 339 338
f 344 343 353
f 353 343 342
f 353 342 341
f 347 346 353
f 353 346 345
f 353 345 344
f 350 349 353
f 353 349 348
f 353 348 347
f 315 352 353
f 353 352 351
f 353 351 350
f 354 355 356
f 356 355 357
f 355 358 357
f 357 358 359
f 357 359 360
f 360 359 361
f 360 361 362
f 362 361 363
f 362 363 364
f 364 363 365
f 364 365 366
f 366 365 367
f 366 367 368
f 368 367 369
f 368 369 370
f 370 369 371
f 370 371 372
f 372 371 373
f 372 373 374
f 374 373 375
f 374 375 376
f 376 375 377
f 376 377 378
f 378 377 379
f 378 379 380
f 380 379 381
f 380 381 382
f 382 381 383
f 382 383 384
f 384 383 385
f 384 385 386
f 386 385 387
f 386 387 388
f 388 387 389
f 388 389 390
f 390 389 391
f 390 391 392
f 392 391 393
f 392 393 394
f 394 393 395
f 394 395 396
f 396 395 397
f 396 397 398
f 398 397 399
f 398 399 400
f 400 399 401
f 400 401 402
f 402 401 403
f 402 403 404
f 404 403 405
f 404 405 406
f 406 405 407
f 406 407 408
f 408 407 409
f 408 409 410
f 410 409 411
f 410 411 412
f 412 411 413
f 412 413 414
f 414 413 415
f 414 415 416
f 416 415 417
f 416 417 418
f 418 417 419
f 418 419 420
f 420 419 421
f 420 421 422
f 422 421 423
f 422 423 424
f 424 423 425
f 424 425 426
f 426 425 427
f 426 427 428
f 428 427 429
f 428 429 430
f 430 429 431
f 430 431 432
f 432 431 433
f 432 433 434
f 434 433 435
f 434 435 436
f 436 435 437
f 436 437 438
f 438 437 439
f 438 439 440
f 440 439 441
f 440 441 442
f 442 441 443
f 442 443 444
f 444 443 445
f 444 445 446
f 446 445 447
f 446 447 448
f 448 447 354
f 448 354 449
f 449 354 356
f 359 358 450
f 450 358 355
f 450 355 354
f 365 363 450
f 450 363 361
f 450 361 359
f 371 369 450
f 450 369 367
f 450 367 365
f 377 375 450
f 450 375 373
f 450 373 371
f 383 381 450
f 450 381 379
f 450 379 377
f 389 387 450
f 450 387 385
f 450 385 383
f 395 393 450
f 450 393 391
f 450 391 389
f 401 399 450
f 450 399 397
f 450 397 395
f 407 405 450
f 450 405 403
f 450 403 401
f 413 411 450
f 450 411 409
f 450 409 407
f 419 417 450
f 450 417 415
f 450 415 413
f 425 423 450
f 450 423 421
f 450 421 419
f 431 429 450
f 450 429 427
f 450 427 425
f 437 435 450
f 450 435 433
f 450 433 431
f 443 441 450
f 450 441 439
f 450 439 437
f 354 447 450
f 450 447 445
f 450 445 443
f 448 449 451
f 451 449 356
f 451 356 357
f 442 444 451
f 451 444 446
f 451 446 448
f 436 438 451
f 451 438 440
f 451 440 442
f 430 432 451
f 451 432 434
f 451 434 436
f 424 426 451
f 451 426 428
f 451 428 430
f 418 420 451
f 451 420 422
f 451 422 424
f 412 414 451
f 451 414 416
f 451 416 418
f 406 408 451
f 451 408 410
f 451 410 412
f 400 402 451
f 451 402 404
f 451 404 406
f 394 396 451
f 451 396 398
f 451 398 400
f 388 390 451
f 451 390 392
f 451 392 394
f 382 384 451
f 451 384 386
f 451 386 388
f 376 378 451
f 451 378 380
f 451 380 382
f 370 372 451
f 451 372 374
f 451 374 376
f 364 366 451
f 451 366 368
f 451 368 370
f 357 360 451
f 451 360 362
f 451 362 364
f 452 403 404
f 404 403 453
f 403 454 453
f 453 454 455
f 453 455 456
f 456 455 457
f 456 457 458
f 458 457 459
f 458 459 460
f 460 459 461
f 460 461 462
f 462 461 463
f 462 463 464
f 464 463 465
f 464 465 466
f 466 465 467
f 466 467 468
f 468 467 469
f 468 469 470
f 470 469 471
f 470 471 472
f 472 471 473
f 472 473 474
f 474 473 475
f 474 475 476
f 476 475 477
f 476 477 478
f 478 477 479
f 478 479 480
f 480 479 481
f 480 481 482
f 482 481 483
f 482 483 484
f 484 483 485
f 484 485 486
f 486 485 487
f 486 487 488
f 488 487 489
f 488 489 490
f 490 489 491
f 490 491 492
f 492 491 493
f 492 493 494
f 494 493 495
f 494 495 496
f 496 495 497
f 496 497 498
f 498 497 499
f 498 499 500
f 500 499 501
f 500 501 502
f 502 501 503
f 502 503 504
f 504 503 505
f 504 505 506
f 506 505 507
f 506 507 508
f 508 507 509
f 508 509 510
f 510 509 511
f 510 511 512
f 512 511 513
f 512 513 514
f 514 513 515
f 514 515 516
f 516 515 517
f 516 517 518
f 518 517 519
f 518 519 520
f 520 519 521
f 520 521 522
f 522 521 523
f 522 523 524
f 524 523 525
f 524 525 526
f 526 525 527
f 526 527 528
f 528 527 529
f 528 529 530
f 530 529 531
f 530 531 532
f 532 531 533
f 532 533 534
f 534 533 535
f 534 535 536
f 536 535 537
f 536 537 538
f 538 537 539
f 538 539 540
f 540 539 541
f 540 541 542
f 542 541 543
f 542 543 544
f 544 543 452
f 544 452 545
f 545 452 404
f 455 454 546
f 546 454 403
f 546 403 452
f 461 459 546
f 546 459 457
f 546 457 455
f 467 465 546
f 546 465 463
f 546 463 461
f 473 471 546
f 546 471 469
f 546 469 467
f 479 477 546
f 546 477 475
f 546 475 473
f 485 483 546
f 546 483 481
f 546 481 479
f 491 489 546
f 546 489 487
f 546 487 485
f 497 495 546
f 546 495 493
f 546 493 491
f 503 501 546
f 546 501 499
f 546 499 497
f 509 507 546
f 546 507 505
f 546 505 503
f 515 513 546
f 546 513 511
f 546 511 509
f 521 519 546
f 546 519 517
f 546 517 515
f 527 525 546
f 546 525 523
f 546 523 521
f 533 531 546
f 546 531 529
f 546 529 527
f 539 537 546
f 546 537 535
f 546 535 533
f 452 543 546
f 546 543 541
f 546 541 539
f 544 545 547
f 547 545 404
f 547 404 453
f 538 540 547
f 547 540 542
f 547 542 544
f 532 534 547
f 547 534 536
f 547 536 538
f 526 528 547
f 547 528 530
f 547 530 532
f 520 522 547
f 547 522 524
f 547 524 526
f 514 516 547
f 547 516 518
f 547 518 520
f 508 510 547
f 547 510 512
f 547 512 514
f 502 504 547
f 547 504 506
f 547 506 508
f 496 498 547
f 547 498 500
f 547 500 502
f 490 492 547
f 547 492 494
f 547 494 496
f 484 486 547
f 547 486 488
f 547 488 490
f 478 480 547
f 547 480 482
f 547 482 484
f 472 474 547
f 547 474 476
f 547 476 478
f 466 468 547
f 547 468 470
f 547 470 472
f 460 462 547
f 547 462 464
f 547 464 466
f 453 456 547
f 547 456 458
f 547 458 460
f 548 549 550
f 550 549 551
f 549 552 551
f 551 552 553
f 551 553 554
f 554 553 555
f 554 555 556
f 556 555 557
f 556 557 558
f 558 557 559
f 558 559 560
f 560 559 561
f 560 561 562
f 562 561 563
f 562 563 564
f 564 563 565
f 564 565 566
f 566 565 567
f 566 567 568
f 568 567 569
f 568 569 570
f 570 569 571
f 570 571 572
f 572 571 573
f 572 573 574
f 574 573 575
f 574 575 576
f 576 575 577
f 576 577 578
f 578 577 579
f 578 579 580
f 580 579 581
f 580 581 582
f 582 581 583
f 582 583 584
f 584 583 585
f 584 585 586
f 586 585 587
f 586 587 588
f 588 587 589
f 588 589 590
f 590 589 591
f 590 591 592
f 592 591 593
f 592 593 594
f 594 593 595
f 594 595 596
f 596 595 355
f 596 355 356
f 356 355 597
f 356 597 598
f 598 597 599
f 598 599 600
f 600 599 601
f 600 601 602
f 602 601 603
f 602 603 604
f 604 603 605
f 604 605 606
f 606 605 607
f 606 607 608
f 608 607 609
f 608 609 610
f 610 609 611
f 610 611 612
f 612 611 613
f 612 613 614
f 614 613 615
f 614 615 616
f 616 615 617
f 616 617 618
f 618 617 619
f 618 619 620
f 620 619 621
f 620 621 622
f 622 621 623
f 622 623 624
f 624 623 625
f 624 625 626
f 626 625 627
f 626 627 628
f 628 627 629
f 628 629 630
f 630 629 631
f 630 631 632
f 632 631 633
f 632 633 634
f 634 633 635
f 634 635 636
f 636 635 637
f 636 637 638
f 638 637 639
f 638 639 640
f 640 639 548
f 640 548 641
f 641 548 550
f 553 552 642
f 642 552 549
f 642 549 548
f 559 557 642
f 642 557 555
f 642 555 553
f 565 563 642
f 642 563 561
f 642 561 559
f 571 569 642
f 642 569 567
f 642 567 565
f 577 575 642
f 642 575 573
f 642 573 571
f 583 581 642
f 642 581 579
f 642 579 577
f 589 587 642
f 642 587 585
f 642 585 583
f 595 593 642
f 642 593 591
f 642 591 589
f 599 597 642
f 642 597 355
f 642 355 595
f 605 603 642
f 642 603 601
f 642 601 599
f 611 609 642
f 642 609 607
f 642 607 605
f 617 615 642
f 642 615 613
f 642 613 611
f 623 621 642
f 642 621 619
f 642 619 617
f 629 627 642
f 642 627 625
f 642 625 623
f 635 633 642
f 642 633 631
f 642 631 629
f 548 639 642
f 642 639 637
f 642 637 635
f 640 641 643
f 643 641 550
f 643 550 551
f 634 636 643
f 643 636 638
f 643 638 640
f 628 630 643
f 643 630 632
f 643 632 634
f 622 624 643
f 643 624 626
f 643 626 628
f 616 618 643
f 643 618 620
f 643 620 622
f 610 612 643
f 643 612 614
f 643 614 616
f 604 606 643
f 643 606 608
f 643 608 610
f 598 600 643
f 643 600 602
f 643 602 604
f 594 596 643
f 643 596 356
f 643 356 598
f 588 590 643
f 643 590 592
f 643 592 594
f 582 584 643
f 643 584 586
f 643 586 588
f 576 578 643
f 643 578 580
f 643 580 582
f 570 572 643
f 643 572 574
f 643 574 576
f 564 566 643
f 643 566 568
f 643 568 570
f 558 560 643
f 643 560 562
f 643 562 564
f 551 554 643
f 643 554 556
f 643 556 558
