# component mesh in local component coordinates
v -7.22513533 53 -1.16844988
v -11.7872782 53 -1.37818575
v -6.13851595 53 -1.35476923
v -5.58727789 53 -1.37818575
v -8.26463604 53 -0.801170826
v -9.22711468 53 -0.263498813
v -10.0848808 53 0.42909953
v -10.8132591 53 1.25669909
v -11.3912964 53 2.19549036
v -11.7872782 53 3.16989183
v -0.0523382016 53 8.52980995
v 0.444001585 53 7.54538012
v 11.2127218 53 11.6218147
v -5.58727789 53 11.6218147
v -4.48877287 53 11.5283184
v -3.42186975 53 11.2505169
v -2.4172616 53 10.7964058
v -1.50384772 53 10.1790466
v -0.707907259 53 9.41620064
v 0.627805173 53 3.21846628
v 0.216741011 53 2.19549036
v 11.2127218 53 -1.37818575
v -0.361296266 53 1.25669909
v 0.766831815 53 6.49122953
v 0.906865537 53 5.39768267
v 0.860074461 53 4.29619837
v -1.08967459 53 0.42909953
v -1.9474417 53 -0.263498813
v -2.90992022 53 -0.801170826
v -3.94942045 53 -1.16844988
v -5.03603983 53 -1.35476923
v 13.3268194 45 4.03763723
v 13.146266 45 4.08464956
v 11.2127218 45 -1.37818575
v 12.9762564 45 4.16149855
v 12.821681 45 4.26597452
v 12.4609365 45 5.4439187
v 12.5305014 45 5.61703825
v 11.2127218 45 11.6218147
v 12.6283255 45 5.77591085
v 12.6869802 45 4.39507246
v 12.5760374 45 4.54507685
v 12.4920454 45 4.71167231
v 14.2738523 45 5.91596651
v 14.3971167 45 5.77591085
v 16.6672668 45 11.6218147
v 14.4949408 45 5.61703825
v 14.5645056 45 5.4439187
v 14.6038122 45 5.26153421
v 14.6117315 45 5.07512903
v 16.6672668 45 -1.37818575
v 14.5880308 45 4.89006758
v 14.5334005 45 4.71167231
v 14.4494047 45 4.54507685
v 14.3384619 45 4.39507246
v 14.2037649 45 4.26597452
v 14.0491858 45 4.16149855
v 13.8791761 45 4.08464956
v 13.6986227 45 4.03763723
v 13.5127211 45 4.02181387
v 12.4374113 45 4.89006758
v 12.4137125 45 5.07512903
v 12.4216318 45 5.26153421
v 12.7515898 45 5.91596651
v 12.8967505 45 6.03317499
v 13.0596304 45 6.12416601
v 13.2355452 45 6.18632078
v 13.4194365 45 6.21785116
v 13.6060095 45 6.21785116
v 13.789897 45 6.18632078
v 13.9658117 45 6.12416601
v 14.1286917 45 6.03317499
v 18.7127228 -41 -2.37818575
v 18.7127228 -6 5.12181425
v 18.7127228 -41 15.0168648
v 18.7127228 -5.99329376 5.21996355
v 18.7127228 -5.93969345 4.82797098
v 18.7127228 -5.97318268 4.92566633
v 18.7127228 -5.99329376 5.02366495
v 18.7127228 -5.05173111 3.98683786
v 18.7127228 -5.33773422 4.16510534
v 18.7127228 -5.5741806 4.34927225
v 18.7127228 -5.75961304 4.53820086
v 18.7127228 -4.33840179 3.6523509
v 18.7127228 0 -2.37818575
v 18.7127228 -3.45175552 3.3540473
v 18.7127228 -19.4715843 15.7568054
v 18.7127228 -22.2689819 15.9552364
v 18.7127228 -25.2357903 16.1485252
v 18.7127228 -29.5580482 16.4039478
v 18.7127228 -5.97318268 5.31796217
v 18.7127228 -5.93969345 5.41565752
v 18.7127228 -14.4019966 15.3457584
v 18.7127228 -5.89288712 5.51290083
v 18.7127228 -5.5741806 5.89435625
v 18.7127228 -12.1376228 15.1337719
v 18.7127228 -5.33773422 6.07852316
v 18.7127228 -10.0582771 14.9179153
v 18.7127228 -5.05173111 6.25679064
v 18.7127228 -8.16716766 14.6985168
v 18.7127228 -4.33840179 6.5912776
v 18.7127228 -6.46721268 14.4759159
v 18.7127228 -3.45175552 6.8895812
v 18.7127228 0 2.74527025
v 18.7127228 -1.24958038 2.89429808
v 18.7127228 -2.41362762 3.0992713
v 18.7127228 -5.83282852 4.63408899
v 18.7127228 -5.89288712 4.73072863
v 18.7127228 -16.847908 15.5535412
v 18.7127228 -5.83282852 5.60953951
v 18.7127228 -5.75961304 5.70542765
v 18.7127228 -34.1759682 16.6484718
v 18.7127228 -34.2542114 16.6305752
v 18.7127228 -1.24958038 7.34933138
v 18.7127228 -2.53896332 13.7923565
v 18.7127228 -2.41362762 7.1443572
v 18.7127228 -3.65093613 14.0224857
v 18.7127228 -4.96102905 14.2504559
v 18.7127228 0 7.49835825
v 18.7127228 0 12.6218147
v 18.7127228 -1.62681961 13.560421
v 18.7127228 -0.00159454346 12.6512661
v 18.7127228 -0.00637054443 12.6807175
v 18.7127228 -0.0143280029 12.7101669
v 18.7127228 -0.0254707336 12.7396164
v 18.7127228 -0.159164429 12.9162197
v 18.7127228 -0.915908813 13.3270378
v 18.7127228 -0.229175568 12.9750385
v 18.7127228 -0.407333374 13.0925694
v 18.7127228 -0.057308197 12.798502
v 18.7127228 -0.101875305 12.8573723
v -19.2872772 -41 -2.37818575
v -19.2872772 -6 5.12181425
v -19.2872772 -5.99329376 5.02366495
v -19.2872772 -5.97318268 4.92566633
v -19.2872772 -5.93969345 4.82797098
v -19.2872772 -5.89288712 4.73072863
v -19.2872772 -5.83282852 4.63408899
v -19.2872772 -5.75961304 4.53820086
v -19.2872772 -5.5741806 4.34927225
v -19.2872772 -5.33773422 4.16510534
v -19.2872772 -5.05173111 3.98683786
v -19.2872772 0 -2.37818575
v -19.2872772 -4.33840179 3.6523509
v -19.2872772 -3.45175552 3.3540473
v -19.2872772 0 12.6218147
v -19.2872772 0 7.49835825
v -19.2872772 -1.24958038 7.34933138
v -19.2872772 -5.99329376 5.21996355
v -19.2872772 -41 15.0168648
v -19.2872772 -5.97318268 5.31796217
v -19.2872772 -34.2542114 16.6305752
v -19.2872772 -5.93969345 5.41565752
v -19.2872772 -2.41362762 3.0992713
v -19.2872772 -1.24958038 2.89429808
v -19.2872772 0 2.74527025
v -19.2872772 -34.1759682 16.6484718
v -19.2872772 -29.5580482 16.4039478
v -19.2872772 -5.89288712 5.51290083
v -19.2872772 -25.2357903 16.1485252
v -19.2872772 -22.2689819 15.9552364
v -19.2872772 -5.83282852 5.60953951
v -19.2872772 -19.4715843 15.7568054
v -19.2872772 -5.75961304 5.70542765
v -19.2872772 -16.847908 15.5535412
v -19.2872772 -5.5741806 5.89435625
v -19.2872772 -14.4019966 15.3457584
v -19.2872772 -5.33773422 6.07852316
v -19.2872772 -12.1376228 15.1337719
v -19.2872772 -5.05173111 6.25679064
v -19.2872772 -10.0582771 14.9179153
v -19.2872772 -4.33840179 6.5912776
v -19.2872772 -8.16716766 14.6985168
v -19.2872772 -6.46721268 14.4759159
v -19.2872772 -3.45175552 6.8895812
v -19.2872772 -4.96102905 14.2504559
v -19.2872772 -2.41362762 7.1443572
v -19.2872772 -3.65093613 14.0224857
v -19.2872772 -2.53896332 13.7923565
v -19.2872772 -1.62681961 13.560421
v -19.2872772 -0.00159454346 12.6512661
v -19.2872772 -0.00637054443 12.6807175
v -19.2872772 -0.057308197 12.798502
v -19.2872772 -0.0254707336 12.7396164
v -19.2872772 -0.0143280029 12.7101669
v -19.2872772 -0.407333374 13.0925694
v -19.2872772 -0.229175568 12.9750385
v -19.2872772 -0.915908813 13.3270378
v -19.2872772 -0.159164429 12.9162197
v -19.2872772 -0.101875305 12.8573723
v 10.2065268 55 18.6218128
v 4.65699339 7.21690369 18.6218128
v 6.97656965 6.25610352 18.6218128
v 9.11728573 4.94426727 18.6218128
v 11.0264292 3.31370544 18.6218128
v 12.6417303 1.42553711 18.6218128
v -10.7810831 55 18.6218128
v -0.287277788 8 18.6218128
v 2.21567297 7.80300903 18.6218128
v -13.2162857 1.42553711 18.6218128
v -11.6009865 3.31370544 18.6218128
v -9.69184303 4.94426727 18.6218128
v -7.551126 6.25610352 18.6218128
v -5.23154974 7.21690369 18.6218128
v -2.79023027 7.80300903 18.6218128
v -10.7810831 55 -8.37818623
v 10.2065268 55 -8.37818623
v -12.9174461 8 -8.37818623
v 12.3428907 8 -8.37818623
v 15.7127218 -24.845314 18.3213444
v 15.7127218 -17.3665733 18.198185
v 15.7127218 -8 10.6218128
v 15.7127218 -10.0646095 18.0548115
v 15.7127218 -8 18.009882
v 15.7127218 -41 10.6218128
v 15.7127218 -41 15.0168648
v 15.7127218 -34.2542114 16.6305752
v 15.7127218 -28.911644 17.7301273
v -16.2872791 -22.6767883 18.2880039
v -16.2872791 -8 10.6218128
v -16.2872791 -15.2461624 18.1589794
v -16.2872791 -8 18.009882
v -16.2872791 -24.845314 18.3213444
v -16.2872791 -28.911644 17.7301273
v -16.2872791 -41 10.6218128
v -16.2872791 -34.2542114 16.6305752
v -16.2872791 -41 15.0168648
v 3.61668539 -0.593288422 10.6218128
v 3.61668539 -0.406715393 10.6218128
v -0.287277788 -4 10.6218128
v 3.64821577 -0.777175903 10.6218128
v 10.2127218 -45.0000038 10.6218128
v 14.8440847 -46.2001762 10.6218128
v 14.8457975 -46.1951904 10.6218128
v 15.5157347 -5.49705124 10.6218128
v 14.9296255 -3.05572891 10.6218128
v 10.2127218 -4 10.6218128
v 13.9688253 -0.736152649 10.6218128
v 5.79689932 -0.685901642 10.6218128
v 15.4945021 -43.6335144 10.6218128
v 5.74988699 -0.866455078 10.6218128
v 5.67303801 -1.03646469 10.6218128
v 5.56856108 -1.19104385 10.6218128
v 5.43946409 -1.32574081 10.6218128
v 5.28946066 -1.43668365 10.6218128
v 5.1228652 -1.52067947 10.6218128
v 3.64821577 -0.222824097 10.6218128
v -0.287277788 8 10.6218128
v 3.71037054 -0.0469093323 10.6218128
v 3.80136061 0.115970612 10.6218128
v 3.918571 0.261131287 10.6218128
v 12.6569929 1.4045639 10.6218128
v 5.79689932 -0.314102173 10.6218128
v 5.81272268 -0.5 10.6218128
v 4.39061689 -1.55178452 10.6218128
v 4.2174983 -1.4822197 10.6218128
v 4.0586257 -1.38439941 10.6218128
v 3.918571 -1.2611351 10.6218128
v 6.97656965 6.25610352 10.6218128
v 4.65699339 7.21690369 10.6218128
v 4.75940657 0.599006653 10.6218128
v 4.94446898 -1.57531357 10.6218128
v 4.75940657 -1.59901047 10.6218128
v 4.57300329 -1.59109116 10.6218128
v 3.80136061 -1.11597443 10.6218128
v 3.71037054 -0.953094482 10.6218128
v 11.0264292 3.31370544 10.6218128
v 5.67303801 0.0364646912 10.6218128
v 5.74988699 -0.133548737 10.6218128
v 4.0586257 0.384395599 10.6218128
v 4.2174983 0.482215881 10.6218128
v 2.21567297 7.80300903 10.6218128
v 4.39061689 0.551780701 10.6218128
v 4.57300329 0.591087341 10.6218128
v 4.94446898 0.575309753 10.6218128
v 5.1228652 0.520675659 10.6218128
v 9.11728573 4.94426727 10.6218128
v 5.28946066 0.43667984 10.6218128
v 5.43946409 0.325737 10.6218128
v 5.56856108 0.191040039 10.6218128
v 8.46389294 -54.3946648 10.6218128
v 10.5492277 -52.7715836 10.6218128
v 5.56856108 -49.1910439 10.6218128
v 12.3389692 -50.827404 10.6218128
v 5.74988699 -48.8664551 10.6218128
v 5.67303801 -49.0364685 10.6218128
v 4.94446898 -47.4246902 10.6218128
v 5.1228652 -47.4793205 10.6218128
v 5.28946066 -47.5633202 10.6218128
v 5.43946409 -47.674263 10.6218128
v 5.56856108 -47.80896 10.6218128
v 5.67303801 -47.9635391 10.6218128
v 5.74988699 -48.1335449 10.6218128
v 5.79689932 -48.3140984 10.6218128
v 13.7843008 -48.6151581 10.6218128
v 5.81272268 -48.5000038 10.6218128
v 5.79689932 -48.6859016 10.6218128
v 5.43946409 -49.3257408 10.6218128
v 5.28946066 -49.4366837 10.6218128
v 6.13984823 -55.6523743 10.6218128
v 5.1228652 -49.5206795 10.6218128
v 4.75940657 -47.4009933 10.6218128
v -0.287277788 -46.2000008 10.6218128
v 4.57300329 -47.4089088 10.6218128
v 4.94446898 -49.5753098 10.6218128
v 4.75940657 -49.5990105 10.6218128
v 3.6404891 -56.5104065 10.6218128
v 4.57300329 -49.5910912 10.6218128
v 1.03399217 -56.9453545 10.6218128
v 4.39061689 -49.5517883 10.6218128
v 4.2174983 -49.4822197 10.6218128
v -0.287277788 -57 10.6218128
v 4.0586257 -49.3843994 10.6218128
v 3.918571 -49.2611351 10.6218128
v 4.0586257 -47.6156044 10.6218128
v 4.2174983 -47.5177803 10.6218128
v 4.39061689 -47.4482193 10.6218128
v 3.80136061 -49.1159744 10.6218128
v 3.71037054 -48.9530907 10.6218128
v 3.64821577 -48.7771759 10.6218128
v 3.61668539 -48.5932884 10.6218128
v 3.61668539 -48.4067154 10.6218128
v 3.64821577 -48.2228241 10.6218128
v 3.71037054 -48.0469093 10.6218128
v 3.80136061 -47.8840294 10.6218128
v 3.918571 -47.7388687 10.6218128
v -4.43143892 -49.1910439 10.6218128
v -4.32696199 -49.0364685 10.6218128
v -4.25011301 -48.8664551 10.6218128
v -4.20310068 -48.6859016 10.6218128
v -4.18727827 -48.5000038 10.6218128
v -5.24059248 -47.4009933 10.6218128
v -5.05553102 -47.4246902 10.6218128
v -4.87713575 -47.4793205 10.6218128
v -4.71054029 -47.5633202 10.6218128
v -4.56053591 -47.674263 10.6218128
v -4.43143892 -47.80896 10.6218128
v -4.32696199 -47.9635391 10.6218128
v -4.25011301 -48.1335449 10.6218128
v -4.20310068 -48.3140984 10.6218128
v -4.56053591 -49.3257408 10.6218128
v -4.71054029 -49.4366837 10.6218128
v -1.60854781 -56.9453545 10.6218128
v -4.87713575 -49.5206795 10.6218128
v -4.21504545 -56.5104065 10.6218128
v -5.05553102 -49.5753098 10.6218128
v -5.24059248 -49.5990105 10.6218128
v -6.71440458 -55.6523743 10.6218128
v -11.1237841 -52.7715836 10.6218128
v -9.03844929 -54.3946648 10.6218128
v -5.9413743 -49.3843994 10.6218128
v -5.42699766 -49.5910912 10.6218128
v -5.60938311 -49.5517883 10.6218128
v -5.7825017 -49.4822197 10.6218128
v -5.9413743 -47.6156044 10.6218128
v -5.7825017 -47.5177803 10.6218128
v -15.418643 -46.2001762 10.6218128
v -5.60938311 -47.4482193 10.6218128
v -5.42699766 -47.4089088 10.6218128
v -14.3588581 -48.6151581 10.6218128
v -12.9135265 -50.827404 10.6218128
v -6.35178423 -48.7771759 10.6218128
v -6.08142996 -49.2611351 10.6218128
v -6.19863844 -49.1159744 10.6218128
v -6.28962946 -48.9530907 10.6218128
v -6.28962946 -48.0469093 10.6218128
v -6.19863844 -47.8840294 10.6218128
v -6.08142996 -47.7388687 10.6218128
v -6.38331461 -48.5932884 10.6218128
v -6.38331461 -48.4067154 10.6218128
v -6.35178423 -48.2228241 10.6218128
v -0.287277788 -45.0000038 10.6218128
v -10.7872782 -45.0000038 10.6218128
v -10.7872782 -4 10.6218128
v -14.5433826 -0.736152649 10.6218128
v -15.5041828 -3.05572891 10.6218128
v -6.38331461 -0.593288422 10.6218128
v -6.38331461 -0.406715393 10.6218128
v -16.0690594 -43.6335144 10.6218128
v -15.4203539 -46.1951904 10.6218128
v -4.20310068 -0.314102173 10.6218128
v -4.18727827 -0.5 10.6218128
v -4.20310068 -0.685901642 10.6218128
v -16.090292 -5.49705124 10.6218128
v -4.25011301 -0.866455078 10.6218128
v -4.32696199 -1.03646469 10.6218128
v -4.43143892 -1.19104385 10.6218128
v -4.56053591 -1.32574081 10.6218128
v -4.71054029 -1.43668365 10.6218128
v -4.87713575 -1.52067947 10.6218128
v -13.2315502 1.4045639 10.6218128
v -6.35178423 -0.222824097 10.6218128
v -11.6009865 3.31370544 10.6218128
v -6.28962946 -0.0469093323 10.6218128
v -6.19863844 0.115970612 10.6218128
v -9.69184303 4.94426727 10.6218128
v -4.25011301 -0.133548737 10.6218128
v -5.60938311 -1.55178452 10.6218128
v -5.7825017 -1.4822197 10.6218128
v -5.9413743 -1.38439941 10.6218128
v -6.08142996 -1.2611351 10.6218128
v -2.79023027 7.80300903 10.6218128
v -5.23154974 7.21690369 10.6218128
v -5.24059248 0.599006653 10.6218128
v -5.05553102 -1.57531357 10.6218128
v -5.24059248 -1.59901047 10.6218128
v -5.42699766 -1.59109116 10.6218128
v -6.19863844 -1.11597443 10.6218128
v -6.28962946 -0.953094482 10.6218128
v -6.35178423 -0.777175903 10.6218128
v -6.08142996 0.261131287 10.6218128
v -5.9413743 0.384395599 10.6218128
v -7.551126 6.25610352 10.6218128
v -4.56053591 0.325737 10.6218128
v -4.43143892 0.191040039 10.6218128
v -4.32696199 0.0364646912 10.6218128
v -5.7825017 0.482215881 10.6218128
v -5.60938311 0.551780701 10.6218128
v -5.42699766 0.591087341 10.6218128
v -5.05553102 0.575309753 10.6218128
v -4.87713575 0.520675659 10.6218128
v -4.71054029 0.43667984 10.6218128
v 5.82241011 -58.9908791 12.5744877
v 5.58404493 -59.070076 12.5772514
v 5.58404493 -59.070076 -2.37818575
v -0.287277788 -60 -0.378185779
v -0.287277788 -60 -2.37818575
v 2.6849761 -59.7660828 -2.37818575
v -15.2682362 -52.6863556 12.8247032
v -15.65874 -52.1677284 12.8823376
v -15.6586008 -52.1679192 -2.37818575
v -18.1384697 -47.5065308 13.5994816
v -18.3575039 -46.8708496 13.7209549
v -18.3573513 -46.8713226 -2.37818575
v -18.8503246 -45.0513382 14.0931301
v -19.0533886 -43.9720573 14.328537
v -19.0533562 -43.9722557 -2.37818575
v -19.2358131 -42.3974991 14.6872406
v -19.0812817 -43.7902412 14.3691044
v -18.5360088 -46.2899742 13.8360252
v -17.2164021 -49.6258202 -2.37818575
v -15.9544277 -51.7489738 12.9324493
v -16.5820999 -50.771328 13.0613613
v -17.1508713 -49.7532387 13.2123489
v -17.2164783 -49.6256714 13.2324085
v -17.6566525 -48.7009659 13.3849792
v -12.5645037 -55.500679 12.6042099
v -13.7223063 -54.4350319 -2.37818575
v -11.5455866 -56.3052444 12.572052
v -11.4551983 -56.3713264 -2.37818575
v -11.4552031 -56.3713226 12.5700588
v -10.5886841 -56.9649963 12.5566673
v -13.5321331 -54.622551 12.6555004
v -13.7223806 -54.4349556 12.668581
v -14.4370613 -53.6800499 12.7285385
v -9.59107113 -57.5662155 12.5515347
v -8.91309738 -57.9291267 -2.37818575
v -8.91309547 -57.9291267 12.5526333
v -6.15860033 -59.070076 12.5772514
v -6.38503885 -58.9949265 12.574625
v -6.15860128 -59.070076 -2.37818575
v -7.4785533 -58.5865173 12.5628452
v -8.55228806 -58.1081734 12.5543556
v -3.25953341 -59.7660828 -2.37818575
v -1.63346159 -59.9522514 12.6189766
v -2.99083567 -59.8066673 12.6106968
v -0.287277788 -60 10.6218128
v -3.25953531 -59.7660789 12.6084881
v -0.287277788 -60 5.12181425
v 1.07298028 -59.9512482 12.6189175
v -0.27691707 -60 12.6218147
v -4.14120436 -59.6050339 12.6001453
v -5.27256155 -59.3343124 12.5876389
v 4.70634794 -59.3320389 12.5875416
v 3.56512022 -59.6053505 12.6001606
v 2.68497992 -59.7660789 12.6084881
v 2.41628027 -59.8066673 12.6106968
v 8.33854008 -57.9291267 -2.37818575
v 8.33853817 -57.9291267 12.5526333
v 7.97084379 -58.1114998 12.5543957
v 6.91049719 -58.5838585 12.5627804
v 10.880641 -56.3713264 -2.37818575
v 10.8806467 -56.3713226 12.5700588
v 10.0075903 -56.9692116 12.5566025
v 9.00337124 -57.5735893 12.5515251
v 13.1478224 -54.4349556 12.668581
v 12.9528761 -54.6271172 12.6551914
v 13.1477499 -54.4350319 -2.37818575
v 11.9919214 -55.499012 12.6042919
v 10.9710302 -56.3052444 12.572052
v 13.8538542 -53.6896973 12.7276993
v 15.0840445 -52.1679192 -2.37818575
v 14.6936789 -52.6863556 12.8247032
v 16.5804253 -49.7453194 13.2135868
v 16.0155678 -50.7579346 13.0632401
v 16.6418457 -49.6258202 -2.37818575
v 15.387042 -51.7385139 12.9337406
v 15.0841856 -52.1677246 12.8823376
v 17.7829514 -46.870842 13.7209568
v 17.5645332 -47.5048409 13.5997982
v 17.782795 -46.8713226 -2.37818575
v 17.0820961 -48.7009659 13.3849792
v 16.6419182 -49.625679 13.2324066
v 17.9649658 -46.2778397 13.8384686
v 18.4788017 -43.9722557 -2.37818575
v 18.2783623 -45.039444 14.0956688
v 18.6609077 -42.4022598 14.6861343
v 18.5067253 -43.7902412 14.3691044
v 18.4788322 -43.9720573 14.328537
v 15.4675474 -43.7902412 14.3691044
v 15.4945326 -43.6333351 14.4043083
v 15.6513853 -42.3996391 14.6867428
v 12.3550615 -50.806694 13.0564175
v 13.0875845 -49.7814026 13.2079525
v 13.737525 -48.7009659 13.3849792
v 14.3249998 -47.5177689 13.5973778
v 14.8087797 -46.3017998 13.8336468
v 15.1892271 -45.0592804 14.0914326
v 10.6410837 -52.6863556 12.8247032
v 11.5394564 -51.7762871 12.9290848
v 7.72432852 -54.8497009 12.6406517
v 8.46403027 -54.3945732 12.6714916
v 9.24326611 -53.851799 12.7138805
v 10.5492868 -52.7715302 12.8157177
v 6.08673429 -55.6755562 12.595993
v 4.37635756 -56.3052444 12.572052
v 3.64049292 -56.5104065 12.5661926
v 1.03399217 -56.9453506 12.5569782
v 2.07636786 -56.8244514 12.5590992
v 3.23843336 -56.6067123 12.5637741
v -1.60854781 -56.9453506 12.5569782
v -1.46438086 -56.9566422 12.5567989
v -0.287861437 -57 12.5561333
v 0.89356178 -56.9563675 12.5568027
v -4.95091295 -56.3052444 12.572052
v -4.21504927 -56.5104065 12.5661926
v -3.80271959 -56.6090279 12.5637188
v -2.63602114 -56.8266678 12.5590572
v -6.65941381 -55.6763725 12.5959568
v -8.28861237 -54.8556366 12.6402779
v -9.03859043 -54.3945694 12.6714916
v -12.106555 -51.7844696 12.9280796
v -11.2156401 -52.6863556 12.8247032
v -11.1238441 -52.7715302 12.8157177
v -9.82110119 -53.8493652 12.7140846
v -13.6646881 -49.777523 13.208559
v -12.9282303 -50.8084831 13.0561676
v -16.069088 -43.6333351 14.4043083
v -16.0421047 -43.7902412 14.3691044
v -15.7644167 -45.0568695 14.0919476
v -15.3807011 -46.3092957 13.8321381
v -14.8942881 -47.5295715 13.595171
v -14.3120823 -48.7009659 13.3849792
v -16.2255688 -42.4038849 14.6857548
v 10.2127218 -45.0000038 -0.378185779
v 10.2127218 -4 -0.378185779
v -10.7872782 -4 -0.378185779
v -10.7872782 -45.0000038 -0.378185779
v 18.4667168 -33.2293777 16.8617153
v 17.1711845 -28.911644 17.7301273
v 17.6170425 -30.2968845 17.4737167
v 17.9915276 -31.5343895 17.2256851
v 16.6842728 -27.4861984 17.9670296
v 16.4676018 -26.8762207 18.0591469
v -17.745739 -28.911644 17.7301273
v -18.191597 -30.2968845 17.4737167
v -18.5660839 -31.5343895 17.2256851
v -19.0412712 -33.2293777 16.8617153
v -17.0421581 -26.8762207 18.0591469
v -17.2588272 -27.4861984 17.9670296
v -9.25485611 -33.9867477 -2.37818575
v -9.28727818 -34.75 -2.37818575
v -1.43043768 -43.6771049 -2.37818575
v 0.0946935788 -43.74189 -2.37818575
v 1.60883462 -43.5479965 -2.37818575
v -9.25485611 -35.5132523 -2.37818575
v -8.99687481 -37.017807 -2.37818575
v -8.48833466 -38.4571114 -2.37818575
v -7.74386454 -39.789772 -2.37818575
v -6.78488302 -40.9774475 -2.37818575
v -5.63897657 -41.9859772 -2.37818575
v 3.06842947 -43.1010056 -2.37818575
v 4.43148756 -42.413765 -2.37818575
v 5.65879393 -41.5060539 -2.37818575
v 6.71504354 -40.4039841 -2.37818575
v 7.56984854 -39.1392593 -2.37818575
v -2.92268229 -43.3555031 -2.37818575
v -4.3391118 -42.786335 -2.37818575
v 8.19861889 -37.7482605 -2.37818575
v 8.58326435 -36.2710075 -2.37818575
v 7.56984854 -30.3607464 -2.37818575
v 6.71504354 -29.0960217 -2.37818575
v 8.71272182 -34.75 -2.37818575
v 8.58326435 -33.2289963 -2.37818575
v 8.19861889 -31.7517414 -2.37818575
v 5.65879393 -27.9939499 -2.37818575
v 4.43148756 -27.0862389 -2.37818575
v 18.6218147 2 -2.37818575
v 3.06842947 -26.3990021 -2.37818575
v 1.60883462 -25.9520035 -2.37818575
v 0.0946935788 -25.75811 -2.37818575
v -19.1963692 2 -2.37818575
v -1.43043768 -25.8228989 -2.37818575
v -2.92268229 -26.1445007 -2.37818575
v -4.3391118 -26.7136688 -2.37818575
v -5.63897657 -27.5140266 -2.37818575
v -6.78488302 -28.5225525 -2.37818575
v -7.74386454 -29.7102299 -2.37818575
v -8.48833466 -31.0428905 -2.37818575
v -8.99687481 -32.4821968 -2.37818575
v -2.92268229 -43.3555031 -0.378185779
v -4.3391118 -42.786335 -0.378185779
v 8.19861889 -37.7482605 -0.378185779
v 7.56984854 -39.1392593 -0.378185779
v 6.71504354 -40.4039841 -0.378185779
v 5.65879393 -41.5060539 -0.378185779
v 4.43148756 -42.413765 -0.378185779
v 3.06842947 -43.1010056 -0.378185779
v 1.60883462 -43.5479965 -0.378185779
v 0.0946935788 -43.74189 -0.378185779
v -1.43043768 -43.6771049 -0.378185779
v 8.19861889 -31.7517414 -0.378185779
v 8.58326435 -33.2289963 -0.378185779
v 8.71272182 -34.75 -0.378185779
v 8.58326435 -36.2710075 -0.378185779
v -5.63897657 -41.9859772 -0.378185779
v -6.78488302 -40.9774475 -0.378185779
v -7.74386454 -39.789772 -0.378185779
v 5.65879393 -27.9939499 -0.378185779
v 6.71504354 -29.0960217 -0.378185779
v 7.56984854 -30.3607464 -0.378185779
v -8.48833466 -31.0428905 -0.378185779
v -7.74386454 -29.7102299 -0.378185779
v -8.48833466 -38.4571114 -0.378185779
v -8.99687481 -37.017807 -0.378185779
v -9.25485611 -35.5132523 -0.378185779
v -6.78488302 -28.5225525 -0.378185779
v -5.63897657 -27.5140266 -0.378185779
v -4.3391118 -26.7136688 -0.378185779
v -2.92268229 -26.1445007 -0.378185779
v -1.43043768 -25.8228989 -0.378185779
v 0.0946935788 -25.75811 -0.378185779
v 1.60883462 -25.9520035 -0.378185779
v 3.06842947 -26.3990021 -0.378185779
v 4.43148756 -27.0862389 -0.378185779
v -9.28727818 -34.75 -0.378185779
v -9.25485611 -33.9867477 -0.378185779
v -8.99687481 -32.4821968 -0.378185779
v 13.9688253 -0.736152649 18.494894
v 14.6676474 -2.31227493 18.3281517
v 14.9296255 -3.05572891 18.2489834
v 15.6630239 -6.73989487 18.0061665
v 15.5157347 -5.49705124 18.0498219
v 15.2714109 -4.26809311 18.134573
v 13.1793661 0.63999176 18.6008263
v 13.65277 -0.146652222 18.547945
v -16.2375278 -6.73923111 18.0061779
v -16.090292 -5.49705124 18.0498219
v -15.8458433 -4.2675705 18.1346169
v -15.5041828 -3.05572891 18.2489834
v -15.2422028 -2.31227493 18.3281517
v -14.5433826 -0.736152649 18.494894
v -13.7537374 0.640281677 18.6008396
v -14.2441597 -0.176609039 18.545475
v -13.2315502 1.4045639 18.6217957
v -11.1222181 55 8.52980995
v -11.618557 55 7.54538012
v -16.7872772 55 12.6218147
v -15.6401968 55 16.1485252
v -15.0281048 55 16.8644543
v -9.6707077 55 10.1790466
v -11.9413872 55 6.49122953
v -12.0814219 55 5.39768267
v -16.7872772 55 -2.37818575
v -12.0346308 55 4.29619837
v -0.707907259 55 9.41620064
v -1.50384772 55 10.1790466
v -11.8023615 55 3.21846628
v -11.3912964 55 2.19549036
v -16.7133312 55 -3.31679249
v -10.8132591 55 1.25669909
v -16.4933128 55 -4.23228788
v -10.0848808 55 0.42909953
v -16.1326427 55 -5.10212851
v -13.5078392 55 -7.72422504
v -14.3114357 55 -7.23228788
v -9.22711468 55 -0.263498813
v -15.0281048 55 -6.62082672
v -15.6401968 55 -5.90489769
v -0.0523382016 55 8.52980995
v 11.146102 55 18.547945
v 12.0625429 55 18.3281517
v -2.4172616 55 10.7964058
v -3.42186975 55 11.2505169
v -4.48877287 55 11.5283184
v -5.58727789 55 11.6218147
v -6.68578386 55 11.5283184
v -7.75268698 55 11.2505169
v -11.7206593 55 18.547945
v -8.75729561 55 10.7964058
v -14.3114357 55 17.4759159
v -13.5078392 55 17.9678535
v -12.6371002 55 18.3281517
v -16.1326427 55 15.3457584
v -10.4666481 55 9.41620064
v -16.4933128 55 14.4759159
v -16.7133312 55 13.560421
v 0.444001585 55 7.54538012
v 15.0656385 55 16.1485252
v 15.5580854 55 15.3457584
v 12.9332838 55 17.9678535
v 13.7368803 55 17.4759159
v 14.4535475 55 16.8644543
v -7.22513533 55 -1.16844988
v -8.26463604 55 -0.801170826
v -11.7206593 55 -8.30431557
v -12.6371002 55 -8.08452511
v -6.13851595 55 -1.35476923
v -5.03603983 55 -1.35476923
v -3.94942045 55 -1.16844988
v -2.90992022 55 -0.801170826
v 15.9187574 55 14.4759159
v 16.1387749 55 13.560421
v 0.766831815 55 6.49122953
v 16.2127228 55 12.6218147
v 0.906865537 55 5.39768267
v -1.9474417 55 -0.263498813
v -1.08967459 55 0.42909953
v 11.146102 55 -8.30431557
v -0.361296266 55 1.25669909
v 12.0625429 55 -8.08452511
v 12.9332838 55 -7.72422504
v 0.216741011 55 2.19549036
v 13.7368803 55 -7.23228788
v 0.860074461 55 4.29619837
v 16.2127228 55 -2.37818575
v 0.627805173 55 3.21846628
v 16.1387749 55 -3.31679249
v 15.9187574 55 -4.23228788
v 15.5580854 55 -5.10212851
v 15.0656385 55 -5.90489769
v 14.4535475 55 -6.62082672
v -13.7652168 13.6065598 11.6218147
v -14.9273539 13.1238937 11.6218147
v -17.2418232 45 11.6218147
v -15.9994278 12.4649506 11.6218147
v -16.9549084 11.6460571 11.6218147
v -11.7872782 45 11.6218147
v -11.7872782 53 11.6218147
v -17.7701569 10.6874619 11.6218147
v -18.4249992 9.61288452 11.6218147
v -18.9032364 8.44891357 11.6218147
v 18.3286819 8.44891357 11.6218147
v 17.8504448 9.61288452 11.6218147
v 17.1956024 10.6874619 11.6218147
v 16.380352 11.6460571 11.6218147
v 15.4248724 12.4649506 11.6218147
v 14.3527975 13.1238937 11.6218147
v 13.1906614 13.6065598 11.6218147
v 11.9672098 13.9010239 11.6218147
v 10.7127218 14 11.6218147
v -11.2872782 14 11.6218147
v -12.5417671 13.9010239 11.6218147
v -13.0666008 45 4.71167231
v -13.1505957 45 4.54507685
v -11.7872782 45 -1.37818575
v -13.2615385 45 4.39507246
v -14.9716749 45 5.77591085
v -15.0694962 45 5.61703825
v -15.1390619 45 5.4439187
v -13.3261452 45 5.91596651
v -13.2028809 45 5.77591085
v -13.1050596 45 5.61703825
v -13.0354948 45 5.4439187
v -12.9961882 45 5.26153421
v -12.9882689 45 5.07512903
v -13.0119677 45 4.89006758
v -13.3962355 45 4.26597452
v -13.5508137 45 4.16149855
v -13.7208242 45 4.08464956
v -14.7783203 45 4.26597452
v -17.2418232 45 -1.37818575
v -14.6237421 45 4.16149855
v -14.4537315 45 4.08464956
v -14.9130173 45 4.39507246
v -15.0239601 45 4.54507685
v -15.1079559 45 4.71167231
v -15.1625891 45 4.89006758
v -15.1862869 45 5.07512903
v -15.1783686 45 5.26153421
v -13.9013777 45 4.03763723
v -14.0872784 45 4.02181387
v -14.2731791 45 4.03763723
v -13.8101025 45 6.18632078
v -13.6341867 45 6.12416601
v -13.4713058 45 6.03317499
v -14.8484106 45 5.91596651
v -14.7032499 45 6.03317499
v -14.540369 45 6.12416601
v -14.3644533 45 6.18632078
v -14.1805649 45 6.21785116
v -13.9939919 45 6.21785116
v -12.5417671 13.9010239 -1.37818575
v -13.7652168 13.6065598 -1.37818575
v -14.9273539 13.1238937 -1.37818575
v 13.1906614 13.6065598 -1.37818575
v 14.3527975 13.1238937 -1.37818575
v -18.9032364 8.44891357 -1.37818575
v -18.4249992 9.61288452 -1.37818575
v -17.7701569 10.6874619 -1.37818575
v -16.9549084 11.6460571 -1.37818575
v -15.9994278 12.4649506 -1.37818575
v 18.3286819 8.44891357 -1.37818575
v 17.8504448 9.61288452 -1.37818575
v 17.1956024 10.6874619 -1.37818575
v -11.2872782 14 -1.37818575
v 10.7127218 14 -1.37818575
v 11.9672098 13.9010239 -1.37818575
v 15.4248724 12.4649506 -1.37818575
v 16.380352 11.6460571 -1.37818575
v -11.7872782 53 7.07373667
v -6.68578386 53 11.5283184
v -11.618557 53 7.54538012
v -11.1222181 53 8.52980995
v -10.4666481 53 9.41620064
v -9.6707077 53 10.1790466
v -8.75729561 53 10.7964058
v -7.75268698 53 11.2505169
v -11.8023615 53 3.21846628
v -11.9413872 53 6.49122953
v -12.0346308 53 4.29619837
v -12.0814219 53 5.39768267
v 18.5680656 3.18244171 7.6218152
v 15.8942251 12.0952454 7.6218152
v 16.380352 11.6460571 7.6218152
v 17.1956024 10.6874619 7.6218152
v 17.8504448 9.61288452 7.6218152
v 18.3286819 8.44891357 7.6218152
v 18.5680656 3.18244171 2.62181425
v 18.3286819 8.44891357 2.62181425
v 17.8504448 9.61288452 2.62181425
v 17.1956024 10.6874619 2.62181425
v 16.380352 11.6460571 2.62181425
v 15.8942251 12.0952454 2.62181425
v -19.1426201 3.18244171 2.62181425
v -16.4687805 12.0952454 2.62181425
v -16.9549084 11.6460571 2.62181425
v -17.7701569 10.6874619 2.62181425
v -18.4249992 9.61288452 2.62181425
v -18.9032364 8.44891357 2.62181425
v -16.9549084 11.6460571 7.6218152
v -16.4687805 12.0952454 7.6218152
v -19.1426201 3.18244171 7.6218152
v -18.9032364 8.44891357 7.6218152
v -18.4249992 9.61288452 7.6218152
v -17.7701569 10.6874619 7.6218152
v 14.4121618 13.0932465 7.35044527
v 14.3527975 13.1238937 7.32536173
v 15.4248724 12.4649506 2.64550066
v 14.8647947 12.83815 2.74417353
v 15.3646307 12.5084381 2.65218973
v 13.344821 13.5546036 3.6523509
v 13.4889746 13.5028229 3.49624395
v 13.6441221 13.4435806 3.3540473
v 14.0007048 13.2930908 3.0992713
v 14.4094496 13.0946579 2.89429808
v 12.9349165 13.6851654 5.89435625
v 12.8745565 13.7023697 5.70713091
v 13.0130339 13.6621475 6.07916403
v 13.1906614 13.6065598 6.38862371
v 13.1072302 13.6332397 6.25679064
v 12.8304739 13.7145996 5.51290083
v 12.8042707 13.7217484 5.31828928
v 12.7954855 13.7241211 5.12181425
v 12.8043242 13.7217331 4.92471075
v 12.8304739 13.7145996 4.73072863
v 12.8740606 13.702507 4.53830767
v 12.9349165 13.6851654 4.34927225
v 13.0134726 13.6620178 4.16354227
v 13.1078367 13.633049 3.98580885
v 13.1906614 13.6065598 3.85500479
v 14.0007048 13.2930908 7.1443572
v 13.6441221 13.4435806 6.8895812
v 13.4887419 13.5029144 6.74715471
v 13.344821 13.5546036 6.5912776
v 15.3612356 12.5108643 7.59103632
v 14.8647947 12.83815 7.49945498
v -14.9867172 13.0932465 2.89318323
v -14.9273539 13.1238937 2.91826773
v -15.9994278 12.4649506 7.59812784
v -15.439352 12.83815 7.49945498
v -15.939188 12.5084381 7.59143877
v -13.9193773 13.5546036 6.5912776
v -14.063529 13.5028229 6.74738455
v -14.2186775 13.4435806 6.8895812
v -14.575263 13.2930908 7.1443572
v -14.9840069 13.0946579 7.34933138
v -13.5094738 13.6851654 4.34927225
v -13.4491119 13.7023697 4.53649759
v -13.5875902 13.6621475 4.16446447
v -13.7652168 13.6065598 3.85500479
v -13.6817884 13.6332397 3.98683786
v -13.4050312 13.7145996 4.73072863
v -13.3788252 13.7217484 4.92533922
v -13.3700399 13.7241211 5.12181425
v -13.3788824 13.7217331 5.31891775
v -13.4050312 13.7145996 5.51290083
v -13.448616 13.702507 5.70532084
v -13.5094738 13.6851654 5.89435625
v -13.5880299 13.6620178 6.08008623
v -13.6823931 13.633049 6.25781965
v -13.7652168 13.6065598 6.38862371
v -14.575263 13.2930908 3.0992713
v -14.2186775 13.4435806 3.3540473
v -14.0632982 13.5029144 3.49647379
v -13.9193773 13.5546036 3.6523509
v -15.9357901 12.5108643 2.65259314
v -15.439352 12.83815 2.74417353
v -19.1532497 2.93860626 -2.45205593
v 18.5786934 2.93860626 -2.45205593
v -19.1048927 3.85409927 -2.67184687
v 18.5303383 3.85409927 -2.67184687
v -19.0367718 4.72393799 -3.03214645
v 18.4622154 4.72393799 -3.03214645
v -18.9795609 5.19732666 -3.3010726
v 18.4014053 5.22215271 -3.31679249
v -18.9255104 5.52671051 -3.52408361
v 18.3507843 5.52762604 -3.52474737
v 18.2692757 5.89852905 -3.81732607
v -18.843483 5.89988708 -3.81848764
v 18.1655655 6.24263763 -4.13554478
v -18.7399139 6.2432251 -4.13613081
v -18.7052593 6.33722687 -4.23228788
v 18.130703 6.33722687 -4.23228788
v -18.4416981 6.85410309 -4.85147429
v -17.1764278 7.73686981 -6.62082672
v 16.6024666 7.73668671 -6.62024069
v -17.2724991 7.70633698 -6.52408409
v 16.6979446 7.70633698 -6.52408409
v -17.8008099 7.46652222 -5.90489769
v 17.2262535 7.46652222 -5.90489769
v -17.9790363 7.34603882 -5.65424299
v 17.40448 7.34603882 -5.65424299
v -18.3132477 7.02667236 -5.10212851
v 17.7386932 7.02667236 -5.10212851
v 17.8671417 6.85410309 -4.85147429
v -16.1462898 7.9261322 -7.43957901
v 15.5467672 7.9285965 -7.45529842
v -16.4537392 7.88942719 -7.23162413
v 15.8782644 7.88955688 -7.23228788
v -16.8279648 7.82484436 -6.93904543
v 16.2547836 7.82456207 -6.93788433
v -15.6458263 7.96425629 -7.72422504
v -14.7737904 7.99280548 -8.08452511
v -14.531868 7.98150635 -7.90743113
v -13.8570433 7.99954224 -8.30431557
v 14.1992331 7.99280548 -8.08452511
v 15.071269 7.96425629 -7.72422504
v 13.9448309 7.98212433 -7.91536283
v 13.282485 7.99954224 -8.30431557
v -19.2155342 1.5783844 7.59103632
v -19.2155342 1.5783844 2.65259314
v 18.6409798 1.5783844 7.59103632
v 18.6409798 1.5783844 2.65259314
v -4.18727827 -0.5 9.62181282
v -4.20310068 -0.314102173 9.62181282
v -4.25011301 -0.133548737 9.62181282
v -4.32696199 0.0364646912 9.62181282
v -4.43143892 0.191040039 9.62181282
v -4.56053591 0.325737 9.62181282
v -4.71054029 0.43667984 9.62181282
v -4.87713575 0.520675659 9.62181282
v -5.05553102 0.575309753 9.62181282
v -5.24059248 0.599006653 9.62181282
v -5.42699766 0.591087341 9.62181282
v -5.60938311 0.551780701 9.62181282
v -5.7825017 0.482215881 9.62181282
v -5.9413743 0.384395599 9.62181282
v -6.08142996 0.261131287 9.62181282
v -6.19863844 0.115970612 9.62181282
v -6.28962946 -0.0469093323 9.62181282
v -6.35178423 -0.222824097 9.62181282
v -6.38331461 -0.406715393 9.62181282
v -6.38331461 -0.593288422 9.62181282
v -6.35178423 -0.777175903 9.62181282
v -6.28962946 -0.953094482 9.62181282
v -6.19863844 -1.11597443 9.62181282
v -6.08142996 -1.2611351 9.62181282
v -5.9413743 -1.38439941 9.62181282
v -5.7825017 -1.4822197 9.62181282
v -5.60938311 -1.55178452 9.62181282
v -5.42699766 -1.59109116 9.62181282
v -5.24059248 -1.59901047 9.62181282
v -5.05553102 -1.57531357 9.62181282
v -4.87713575 -1.52067947 9.62181282
v -4.71054029 -1.43668365 9.62181282
v -4.56053591 -1.32574081 9.62181282
v -4.43143892 -1.19104385 9.62181282
v -4.32696199 -1.03646469 9.62181282
v -4.25011301 -0.866455078 9.62181282
v -4.20310068 -0.685901642 9.62181282
v 5.81272268 -0.5 9.62181282
v 5.79689932 -0.314102173 9.62181282
v 5.74988699 -0.133548737 9.62181282
v 5.67303801 0.0364646912 9.62181282
v 5.56856108 0.191040039 9.62181282
v 5.43946409 0.325737 9.62181282
v 5.28946066 0.43667984 9.62181282
v 5.1228652 0.520675659 9.62181282
v 4.94446898 0.575309753 9.62181282
v 4.75940657 0.599006653 9.62181282
v 4.57300329 0.591087341 9.62181282
v 4.39061689 0.551780701 9.62181282
v 4.2174983 0.482215881 9.62181282
v 4.0586257 0.384395599 9.62181282
v 3.918571 0.261131287 9.62181282
v 3.80136061 0.115970612 9.62181282
v 3.71037054 -0.0469093323 9.62181282
v 3.64821577 -0.222824097 9.62181282
v 3.61668539 -0.406715393 9.62181282
v 3.61668539 -0.593288422 9.62181282
v 3.64821577 -0.777175903 9.62181282
v 3.71037054 -0.953094482 9.62181282
v 3.80136061 -1.11597443 9.62181282
v 3.918571 -1.2611351 9.62181282
v 4.0586257 -1.38439941 9.62181282
v 4.2174983 -1.4822197 9.62181282
v 4.39061689 -1.55178452 9.62181282
v 4.57300329 -1.59109116 9.62181282
v 4.75940657 -1.59901047 9.62181282
v 4.94446898 -1.57531357 9.62181282
v 5.1228652 -1.52067947 9.62181282
v 5.28946066 -1.43668365 9.62181282
v 5.43946409 -1.32574081 9.62181282
v 5.56856108 -1.19104385 9.62181282
v 5.67303801 -1.03646469 9.62181282
v 5.74988699 -0.866455078 9.62181282
v 5.79689932 -0.685901642 9.62181282
v 5.81272268 -48.5000038 9.62181282
v 5.79689932 -48.3140984 9.62181282
v 5.74988699 -48.1335449 9.62181282
v 5.67303801 -47.9635391 9.62181282
v 5.56856108 -47.80896 9.62181282
v 5.43946409 -47.674263 9.62181282
v 5.28946066 -47.5633202 9.62181282
v 5.1228652 -47.4793205 9.62181282
v 4.94446898 -47.4246902 9.62181282
v 4.75940657 -47.4009933 9.62181282
v 4.57300329 -47.4089088 9.62181282
v 4.39061689 -47.4482193 9.62181282
v 4.2174983 -47.5177803 9.62181282
v 4.0586257 -47.6156044 9.62181282
v 3.918571 -47.7388687 9.62181282
v 3.80136061 -47.8840294 9.62181282
v 3.71037054 -48.0469093 9.62181282
v 3.64821577 -48.2228241 9.62181282
v 3.61668539 -48.4067154 9.62181282
v 3.61668539 -48.5932884 9.62181282
v 3.64821577 -48.7771759 9.62181282
v 3.71037054 -48.9530907 9.62181282
v 3.80136061 -49.1159744 9.62181282
v 3.918571 -49.2611351 9.62181282
v 4.0586257 -49.3843994 9.62181282
v 4.2174983 -49.4822197 9.62181282
v 4.39061689 -49.5517883 9.62181282
v 4.57300329 -49.5910912 9.62181282
v 4.75940657 -49.5990105 9.62181282
v 4.94446898 -49.5753098 9.62181282
v 5.1228652 -49.5206795 9.62181282
v 5.28946066 -49.4366837 9.62181282
v 5.43946409 -49.3257408 9.62181282
v 5.56856108 -49.1910439 9.62181282
v 5.67303801 -49.0364685 9.62181282
v 5.74988699 -48.8664551 9.62181282
v 5.79689932 -48.6859016 9.62181282
v -4.18727827 -48.5000038 9.62181282
v -4.20310068 -48.3140984 9.62181282
v -4.25011301 -48.1335449 9.62181282
v -4.32696199 -47.9635391 9.62181282
v -4.43143892 -47.80896 9.62181282
v -4.56053591 -47.674263 9.62181282
v -4.71054029 -47.5633202 9.62181282
v -4.87713575 -47.4793205 9.62181282
v -5.05553102 -47.4246902 9.62181282
v -5.24059248 -47.4009933 9.62181282
v -5.42699766 -47.4089088 9.62181282
v -5.60938311 -47.4482193 9.62181282
v -5.7825017 -47.5177803 9.62181282
v -5.9413743 -47.6156044 9.62181282
v -6.08142996 -47.7388687 9.62181282
v -6.19863844 -47.8840294 9.62181282
v -6.28962946 -48.0469093 9.62181282
v -6.35178423 -48.2228241 9.62181282
v -6.38331461 -48.4067154 9.62181282
v -6.38331461 -48.5932884 9.62181282
v -6.35178423 -48.7771759 9.62181282
v -6.28962946 -48.9530907 9.62181282
v -6.19863844 -49.1159744 9.62181282
v -6.08142996 -49.2611351 9.62181282
v -5.9413743 -49.3843994 9.62181282
v -5.7825017 -49.4822197 9.62181282
v -5.60938311 -49.5517883 9.62181282
v -5.42699766 -49.5910912 9.62181282
v -5.24059248 -49.5990105 9.62181282
v -5.05553102 -49.5753098 9.62181282
v -4.87713575 -49.5206795 9.62181282
v -4.71054029 -49.4366837 9.62181282
v -4.56053591 -49.3257408 9.62181282
v -4.43143892 -49.1910439 9.62181282
v -4.32696199 -49.0364685 9.62181282
v -4.25011301 -48.8664551 9.62181282
v -4.20310068 -48.6859016 9.62181282
v -3.98727751 -0.5 1.62181425
v -3.98727751 -0.5 9.62181282
v -4.00597715 -0.28030014 1.62181425
v -4.00597715 -0.28030014 9.62181282
v -4.06153727 -0.0669212341 1.62181425
v -4.06153727 -0.0669212341 9.62181282
v -4.15235949 0.134002686 1.62181425
v -4.15235949 0.134002686 9.62181282
v -4.27583075 0.316684723 1.62181425
v -4.27583075 0.316684723 9.62181282
v -4.42840052 0.47587204 1.62181425
v -4.42840052 0.47587204 9.62181282
v -4.60567904 0.606987 1.62181425
v -4.60567904 0.606987 9.62181282
v -4.80256414 0.706253052 1.62181425
v -4.80256414 0.706253052 9.62181282
v -5.01339483 0.770820618 1.62181425
v -5.01339483 0.770820618 9.62181282
v -5.23210478 0.798828125 1.62181425
v -5.23210478 0.798828125 9.62181282
v -5.45240164 0.789470673 1.62181425
v -5.45240164 0.789470673 9.62181282
v -5.66794729 0.743015289 1.62181425
v -5.66794729 0.743015289 9.62181282
v -5.87254286 0.660800934 1.62181425
v -5.87254286 0.660800934 9.62181282
v -6.0603013 0.545196533 1.62181425
v -6.0603013 0.545196533 9.62181282
v -6.22582102 0.399520874 1.62181425
v -6.22582102 0.399520874 9.62181282
v -6.36434031 0.227966309 1.62181425
v -6.36434031 0.227966309 9.62181282
v -6.47187471 0.0354690552 1.62181425
v -6.47187471 0.0354690552 9.62181282
v -6.54533052 -0.172428131 1.62181425
v -6.54533052 -0.172428131 9.62181282
v -6.58259439 -0.389755249 1.62181425
v -6.58259439 -0.389755249 9.62181282
v -6.58259439 -0.610248566 1.62181425
v -6.58259439 -0.610248566 9.62181282
v -6.54533052 -0.827571869 1.62181425
v -6.54533052 -0.827571869 9.62181282
v -6.47187471 -1.03547287 1.62181425
v -6.47187471 -1.03547287 9.62181282
v -6.36434031 -1.22797012 1.62181425
v -6.36434031 -1.22797012 9.62181282
v -6.22582102 -1.39952087 1.62181425
v -6.22582102 -1.39952087 9.62181282
v -6.0603013 -1.54519653 1.62181425
v -6.0603013 -1.54519653 9.62181282
v -5.87254286 -1.66080475 1.62181425
v -5.87254286 -1.66080475 9.62181282
v -5.66794729 -1.7430191 1.62181425
v -5.66794729 -1.7430191 9.62181282
v -5.45240164 -1.78947067 1.62181425
v -5.45240164 -1.78947067 9.62181282
v -5.23210478 -1.79882812 1.62181425
v -5.23210478 -1.79882812 9.62181282
v -5.01339483 -1.77082443 1.62181425
v -5.01339483 -1.77082443 9.62181282
v -4.80256414 -1.70625687 1.62181425
v -4.80256414 -1.70625687 9.62181282
v -4.60567904 -1.60699081 1.62181425
v -4.60567904 -1.60699081 9.62181282
v -4.42840052 -1.47587585 1.62181425
v -4.42840052 -1.47587585 9.62181282
v -4.27583075 -1.31668854 1.62181425
v -4.27583075 -1.31668854 9.62181282
v -4.15235949 -1.1340065 1.62181425
v -4.15235949 -1.1340065 9.62181282
v -4.06153727 -0.933082581 1.62181425
v -4.06153727 -0.933082581 9.62181282
v -4.00597715 -0.719703674 1.62181425
v -4.00597715 -0.719703674 9.62181282
v -5.2872777 -0.5 1.62181425
v 6.01272154 -0.5 1.62181425
v 6.01272154 -0.5 9.62181282
v 5.9940238 -0.28030014 1.62181425
v 5.9940238 -0.28030014 9.62181282
v 5.93846273 -0.0669212341 1.62181425
v 5.93846273 -0.0669212341 9.62181282
v 5.84764051 0.134002686 1.62181425
v 5.84764051 0.134002686 9.62181282
v 5.7241683 0.316684723 1.62181425
v 5.7241683 0.316684723 9.62181282
v 5.57159948 0.47587204 1.62181425
v 5.57159948 0.47587204 9.62181282
v 5.39432096 0.606987 1.62181425
v 5.39432096 0.606987 9.62181282
v 5.1974349 0.706253052 1.62181425
v 5.1974349 0.706253052 9.62181282
v 4.98660612 0.770820618 1.62181425
v 4.98660612 0.770820618 9.62181282
v 4.76789618 0.798828125 1.62181425
v 4.76789618 0.798828125 9.62181282
v 4.54759932 0.789470673 1.62181425
v 4.54759932 0.789470673 9.62181282
v 4.33205175 0.743015289 1.62181425
v 4.33205175 0.743015289 9.62181282
v 4.1274581 0.660800934 1.62181425
v 4.1274581 0.660800934 9.62181282
v 3.9396987 0.545196533 1.62181425
v 3.9396987 0.545196533 9.62181282
v 3.77417898 0.399520874 1.62181425
v 3.77417898 0.399520874 9.62181282
v 3.63565969 0.227966309 1.62181425
v 3.63565969 0.227966309 9.62181282
v 3.52812529 0.0354690552 1.62181425
v 3.52812529 0.0354690552 9.62181282
v 3.45466948 -0.172428131 1.62181425
v 3.45466948 -0.172428131 9.62181282
v 3.41740561 -0.389755249 1.62181425
v 3.41740561 -0.389755249 9.62181282
v 3.41740561 -0.610248566 1.62181425
v 3.41740561 -0.610248566 9.62181282
v 3.45466948 -0.827571869 1.62181425
v 3.45466948 -0.827571869 9.62181282
v 3.52812529 -1.03547287 1.62181425
v 3.52812529 -1.03547287 9.62181282
v 3.63565969 -1.22797012 1.62181425
v 3.63565969 -1.22797012 9.62181282
v 3.77417898 -1.39952087 1.62181425
v 3.77417898 -1.39952087 9.62181282
v 3.9396987 -1.54519653 1.62181425
v 3.9396987 -1.54519653 9.62181282
v 4.1274581 -1.66080475 1.62181425
v 4.1274581 -1.66080475 9.62181282
v 4.33205175 -1.7430191 1.62181425
v 4.33205175 -1.7430191 9.62181282
v 4.54759932 -1.78947067 1.62181425
v 4.54759932 -1.78947067 9.62181282
v 4.76789618 -1.79882812 1.62181425
v 4.76789618 -1.79882812 9.62181282
v 4.98660612 -1.77082443 1.62181425
v 4.98660612 -1.77082443 9.62181282
v 5.1974349 -1.70625687 1.62181425
v 5.1974349 -1.70625687 9.62181282
v 5.39432096 -1.60699081 1.62181425
v 5.39432096 -1.60699081 9.62181282
v 5.57159948 -1.47587585 1.62181425
v 5.57159948 -1.47587585 9.62181282
v 5.7241683 -1.31668854 1.62181425
v 5.7241683 -1.31668854 9.62181282
v 5.84764051 -1.1340065 1.62181425
v 5.84764051 -1.1340065 9.62181282
v 5.93846273 -0.933082581 1.62181425
v 5.93846273 -0.933082581 9.62181282
v 5.9940238 -0.719703674 1.62181425
v 5.9940238 -0.719703674 9.62181282
v 4.7127223 -0.5 1.62181425
v 6.01272154 -48.5000038 1.62181425
v 6.01272154 -48.5000038 9.62181282
v 5.9940238 -48.2803001 1.62181425
v 5.9940238 -48.2803001 9.62181282
v 5.93846273 -48.0669174 1.62181425
v 5.93846273 -48.0669174 9.62181282
v 5.84764051 -47.8659973 1.62181425
v 5.84764051 -47.8659973 9.62181282
v 5.7241683 -47.6833153 1.62181425
v 5.7241683 -47.6833153 9.62181282
v 5.57159948 -47.5241241 1.62181425
v 5.57159948 -47.5241241 9.62181282
v 5.39432096 -47.393013 1.62181425
v 5.39432096 -47.393013 9.62181282
v 5.1974349 -47.2937469 1.62181425
v 5.1974349 -47.2937469 9.62181282
v 4.98660612 -47.2291794 1.62181425
v 4.98660612 -47.2291794 9.62181282
v 4.76789618 -47.2011719 1.62181425
v 4.76789618 -47.2011719 9.62181282
v 4.54759932 -47.2105331 1.62181425
v 4.54759932 -47.2105331 9.62181282
v 4.33205175 -47.2569847 1.62181425
v 4.33205175 -47.2569847 9.62181282
v 4.1274581 -47.3391991 1.62181425
v 4.1274581 -47.3391991 9.62181282
v 3.9396987 -47.4548035 1.62181425
v 3.9396987 -47.4548035 9.62181282
v 3.77417898 -47.6004791 1.62181425
v 3.77417898 -47.6004791 9.62181282
v 3.63565969 -47.7720337 1.62181425
v 3.63565969 -47.7720337 9.62181282
v 3.52812529 -47.9645309 1.62181425
v 3.52812529 -47.9645309 9.62181282
v 3.45466948 -48.1724319 1.62181425
v 3.45466948 -48.1724319 9.62181282
v 3.41740561 -48.3897514 1.62181425
v 3.41740561 -48.3897514 9.62181282
v 3.41740561 -48.6102486 1.62181425
v 3.41740561 -48.6102486 9.62181282
v 3.45466948 -48.8275719 1.62181425
v 3.45466948 -48.8275719 9.62181282
v 3.52812529 -49.0354729 1.62181425
v 3.52812529 -49.0354729 9.62181282
v 3.63565969 -49.2279701 1.62181425
v 3.63565969 -49.2279701 9.62181282
v 3.77417898 -49.3995209 1.62181425
v 3.77417898 -49.3995209 9.62181282
v 3.9396987 -49.5451965 1.62181425
v 3.9396987 -49.5451965 9.62181282
v 4.1274581 -49.6608047 1.62181425
v 4.1274581 -49.6608047 9.62181282
v 4.33205175 -49.7430153 1.62181425
v 4.33205175 -49.7430153 9.62181282
v 4.54759932 -49.7894707 1.62181425
v 4.54759932 -49.7894707 9.62181282
v 4.76789618 -49.7988281 1.62181425
v 4.76789618 -49.7988281 9.62181282
v 4.98660612 -49.7708206 1.62181425
v 4.98660612 -49.7708206 9.62181282
v 5.1974349 -49.7062569 1.62181425
v 5.1974349 -49.7062569 9.62181282
v 5.39432096 -49.606987 1.62181425
v 5.39432096 -49.606987 9.62181282
v 5.57159948 -49.4758759 1.62181425
v 5.57159948 -49.4758759 9.62181282
v 5.7241683 -49.3166885 1.62181425
v 5.7241683 -49.3166885 9.62181282
v 5.84764051 -49.1340065 1.62181425
v 5.84764051 -49.1340065 9.62181282
v 5.93846273 -48.9330826 1.62181425
v 5.93846273 -48.9330826 9.62181282
v 5.9940238 -48.7197037 1.62181425
v 5.9940238 -48.7197037 9.62181282
v 4.7127223 -48.5000038 1.62181425
v -3.98727751 -48.5000038 1.62181425
v -3.98727751 -48.5000038 9.62181282
v -4.00597715 -48.2803001 1.62181425
v -4.00597715 -48.2803001 9.62181282
v -4.06153727 -48.0669174 1.62181425
v -4.06153727 -48.0669174 9.62181282
v -4.15235949 -47.8659973 1.62181425
v -4.15235949 -47.8659973 9.62181282
v -4.27583075 -47.6833153 1.62181425
v -4.27583075 -47.6833153 9.62181282
v -4.42840052 -47.5241241 1.62181425
v -4.42840052 -47.5241241 9.62181282
v -4.60567904 -47.393013 1.62181425
v -4.60567904 -47.393013 9.62181282
v -4.80256414 -47.2937469 1.62181425
v -4.80256414 -47.2937469 9.62181282
v -5.01339483 -47.2291794 1.62181425
v -5.01339483 -47.2291794 9.62181282
v -5.23210478 -47.2011719 1.62181425
v -5.23210478 -47.2011719 9.62181282
v -5.45240164 -47.2105331 1.62181425
v -5.45240164 -47.2105331 9.62181282
v -5.66794729 -47.2569847 1.62181425
v -5.66794729 -47.2569847 9.62181282
v -5.87254286 -47.3391991 1.62181425
v -5.87254286 -47.3391991 9.62181282
v -6.0603013 -47.4548035 1.62181425
v -6.0603013 -47.4548035 9.62181282
v -6.22582102 -47.6004791 1.62181425
v -6.22582102 -47.6004791 9.62181282
v -6.36434031 -47.7720337 1.62181425
v -6.36434031 -47.7720337 9.62181282
v -6.47187471 -47.9645309 1.62181425
v -6.47187471 -47.9645309 9.62181282
v -6.54533052 -48.1724319 1.62181425
v -6.54533052 -48.1724319 9.62181282
v -6.58259439 -48.3897514 1.62181425
v -6.58259439 -48.3897514 9.62181282
v -6.58259439 -48.6102486 1.62181425
v -6.58259439 -48.6102486 9.62181282
v -6.54533052 -48.8275719 1.62181425
v -6.54533052 -48.8275719 9.62181282
v -6.47187471 -49.0354729 1.62181425
v -6.47187471 -49.0354729 9.62181282
v -6.36434031 -49.2279701 1.62181425
v -6.36434031 -49.2279701 9.62181282
v -6.22582102 -49.3995209 1.62181425
v -6.22582102 -49.3995209 9.62181282
v -6.0603013 -49.5451965 1.62181425
v -6.0603013 -49.5451965 9.62181282
v -5.87254286 -49.6608047 1.62181425
v -5.87254286 -49.6608047 9.62181282
v -5.66794729 -49.7430153 1.62181425
v -5.66794729 -49.7430153 9.62181282
v -5.45240164 -49.7894707 1.62181425
v -5.45240164 -49.7894707 9.62181282
v -5.23210478 -49.7988281 1.62181425
v -5.23210478 -49.7988281 9.62181282
v -5.01339483 -49.7708206 1.62181425
v -5.01339483 -49.7708206 9.62181282
v -4.80256414 -49.7062569 1.62181425
v -4.80256414 -49.7062569 9.62181282
v -4.60567904 -49.606987 1.62181425
v -4.60567904 -49.606987 9.62181282
v -4.42840052 -49.4758759 1.62181425
v -4.42840052 -49.4758759 9.62181282
v -4.27583075 -49.3166885 1.62181425
v -4.27583075 -49.3166885 9.62181282
v -4.15235949 -49.1340065 1.62181425
v -4.15235949 -49.1340065 9.62181282
v -4.06153727 -48.9330826 1.62181425
v -4.06153727 -48.9330826 9.62181282
v -4.00597715 -48.7197037 1.62181425
v -4.00597715 -48.7197037 9.62181282
v -5.2872777 -48.5000038 1.62181425
v -14.0872784 53 4.02181387
v -13.9013777 53 4.03763723
v -13.7208242 53 4.08464956
v -13.5508137 53 4.16149855
v -13.3962355 53 4.26597452
v -13.2615385 53 4.39507246
v -13.1505957 53 4.54507685
v -13.0666008 53 4.71167231
v -13.0119677 53 4.89006758
v -12.9882689 53 5.07512903
v -12.9961882 53 5.26153421
v -13.0354948 53 5.4439187
v -13.1050596 53 5.61703825
v -13.2028809 53 5.77591085
v -13.3261452 53 5.91596651
v -13.4713058 53 6.03317499
v -13.6341867 53 6.12416601
v -13.8101025 53 6.18632078
v -13.9939919 53 6.21785116
v -14.1805649 53 6.21785116
v -14.3644533 53 6.18632078
v -14.540369 53 6.12416601
v -14.7032499 53 6.03317499
v -14.8484106 53 5.91596651
v -14.9716749 53 5.77591085
v -15.0694962 53 5.61703825
v -15.1390619 53 5.4439187
v -15.1783686 53 5.26153421
v -15.1862869 53 5.07512903
v -15.1625891 53 4.89006758
v -15.1079559 53 4.71167231
v -15.0239601 53 4.54507685
v -14.9130173 53 4.39507246
v -14.7783203 53 4.26597452
v -14.6237421 53 4.16149855
v -14.4537315 53 4.08464956
v -14.2731791 53 4.03763723
v -14.0872784 53 5.12181425
v 13.5127211 53 4.02181387
v 13.6986227 53 4.03763723
v 13.8791761 53 4.08464956
v 14.0491858 53 4.16149855
v 14.2037649 53 4.26597452
v 14.3384619 53 4.39507246
v 14.4494047 53 4.54507685
v 14.5334005 53 4.71167231
v 14.5880308 53 4.89006758
v 14.6117315 53 5.07512903
v 14.6038122 53 5.26153421
v 14.5645056 53 5.4439187
v 14.4949408 53 5.61703825
v 14.3971167 53 5.77591085
v 14.2738523 53 5.91596651
v 14.1286917 53 6.03317499
v 13.9658117 53 6.12416601
v 13.789897 53 6.18632078
v 13.6060095 53 6.21785116
v 13.4194365 53 6.21785116
v 13.2355452 53 6.18632078
v 13.0596304 53 6.12416601
v 12.8967505 53 6.03317499
v 12.7515898 53 5.91596651
v 12.6283255 53 5.77591085
v 12.5305014 53 5.61703825
v 12.4609365 53 5.4439187
v 12.4216318 53 5.26153421
v 12.4137125 53 5.07512903
v 12.4374113 53 4.89006758
v 12.4920454 53 4.71167231
v 12.5760374 53 4.54507685
v 12.6869802 53 4.39507246
v 12.821681 53 4.26597452
v 12.9762564 53 4.16149855
v 13.146266 53 4.08464956
v 13.3268194 53 4.03763723
v 13.5127211 53 5.12181425
f 1 2 3
f 3 2 4
f 1 5 2
f 2 5 6
f 2 6 7
f 7 8 2
f 2 8 9
f 2 9 10
f 11 12 13
f 14 15 13
f 13 15 16
f 13 16 17
f 17 18 13
f 13 18 19
f 13 19 11
f 20 21 22
f 22 21 23
f 12 24 13
f 13 24 25
f 13 25 22
f 22 25 26
f 22 26 20
f 23 27 22
f 22 27 28
f 22 28 29
f 29 30 22
f 22 30 31
f 22 31 4
f 32 33 34
f 34 33 35
f 34 35 36
f 37 38 39
f 39 38 40
f 36 41 34
f 34 41 42
f 34 42 43
f 44 45 46
f 46 45 47
f 46 47 48
f 48 49 46
f 46 49 50
f 46 50 51
f 50 52 51
f 51 52 53
f 51 53 54
f 54 55 51
f 51 55 56
f 51 56 57
f 57 58 51
f 51 58 59
f 51 59 34
f 34 59 60
f 34 60 32
f 43 61 34
f 34 61 62
f 34 62 39
f 39 62 63
f 39 63 37
f 40 64 39
f 39 64 65
f 39 65 66
f 66 67 39
f 39 67 68
f 39 68 46
f 46 68 69
f 46 69 70
f 70 71 46
f 46 71 72
f 46 72 44
f 73 74 75
f 75 74 76
f 77 78 73
f 73 78 79
f 73 79 74
f 80 81 73
f 73 81 82
f 73 82 83
f 80 73 84
f 84 73 85
f 84 85 86
f 87 88 76
f 76 88 89
f 76 89 90
f 91 92 93
f 93 92 94
f 93 95 96
f 96 95 97
f 96 97 98
f 98 97 99
f 98 99 100
f 100 99 101
f 100 101 102
f 102 101 103
f 104 105 85
f 85 105 106
f 85 106 86
f 83 107 73
f 73 107 108
f 73 108 77
f 91 93 76
f 76 93 109
f 76 109 87
f 94 110 93
f 93 110 111
f 93 111 95
f 90 112 76
f 76 112 113
f 76 113 75
f 114 115 116
f 116 115 117
f 116 117 103
f 103 117 118
f 103 118 102
f 114 119 115
f 115 119 120
f 115 120 121
f 121 120 122
f 122 123 121
f 121 123 124
f 121 124 125
f 121 126 127
f 127 126 128
f 127 128 129
f 125 130 121
f 121 130 131
f 121 131 126
f 132 133 134
f 134 135 132
f 132 135 136
f 132 136 137
f 137 138 132
f 132 138 139
f 132 139 140
f 140 141 132
f 132 141 142
f 132 142 143
f 143 142 144
f 143 144 145
f 146 147 148
f 133 132 149
f 149 132 150
f 149 150 151
f 151 150 152
f 151 152 153
f 145 154 143
f 143 154 155
f 143 155 156
f 152 157 153
f 153 157 158
f 153 158 159
f 158 160 159
f 159 160 161
f 159 161 162
f 162 161 163
f 162 163 164
f 164 163 165
f 164 165 166
f 166 165 167
f 166 167 168
f 168 167 169
f 168 169 170
f 170 169 171
f 170 171 172
f 171 173 172
f 172 173 174
f 172 174 175
f 175 174 176
f 175 176 177
f 177 176 178
f 177 178 148
f 148 178 179
f 148 179 146
f 146 179 180
f 146 180 181
f 181 180 182
f 183 184 180
f 180 184 185
f 180 185 182
f 186 187 188
f 188 187 189
f 188 189 180
f 180 189 190
f 180 190 183
f 191 192 193
f 193 194 191
f 191 194 195
f 191 195 196
f 197 198 191
f 191 198 199
f 191 199 192
f 200 201 197
f 197 201 202
f 197 202 203
f 203 204 197
f 197 204 205
f 197 205 198
f 206 207 208
f 208 207 209
f 210 211 212
f 212 211 213
f 212 213 214
f 215 216 217
f 215 217 212
f 212 217 218
f 212 218 210
f 219 220 221
f 221 220 222
f 219 223 220
f 220 223 224
f 220 224 225
f 225 224 226
f 225 226 227
f 228 229 230
f 228 230 231
f 232 233 234
f 235 236 237
f 237 236 238
f 237 238 239
f 234 240 232
f 232 240 215
f 232 215 237
f 237 215 212
f 237 212 235
f 239 241 237
f 237 241 242
f 237 242 243
f 243 244 237
f 237 244 245
f 237 245 246
f 229 247 248
f 247 249 248
f 248 249 250
f 248 250 251
f 252 253 238
f 238 253 254
f 238 254 239
f 255 256 230
f 230 256 257
f 230 257 258
f 259 260 261
f 246 262 237
f 237 262 263
f 237 263 230
f 230 263 264
f 230 264 255
f 258 265 230
f 230 265 266
f 230 266 231
f 267 268 252
f 252 268 269
f 252 269 253
f 251 270 248
f 248 270 271
f 248 271 272
f 272 271 273
f 272 273 260
f 260 273 274
f 260 274 261
f 261 275 259
f 259 275 276
f 259 276 277
f 276 278 277
f 277 278 279
f 277 279 267
f 267 279 280
f 267 280 268
f 281 282 283
f 284 285 282
f 282 285 286
f 282 286 283
f 287 288 233
f 233 288 289
f 289 290 233
f 233 290 291
f 233 291 292
f 292 293 233
f 233 293 294
f 233 294 295
f 295 294 296
f 295 296 284
f 284 296 297
f 284 297 285
f 283 298 281
f 281 298 299
f 281 299 300
f 300 299 301
f 287 233 302
f 302 233 303
f 302 303 304
f 301 305 300
f 300 305 306
f 300 306 307
f 307 306 308
f 307 308 309
f 308 310 309
f 309 310 311
f 309 311 312
f 312 311 313
f 312 313 314
f 315 316 303
f 303 316 317
f 303 317 304
f 314 318 312
f 312 318 319
f 312 319 303
f 303 319 320
f 303 320 321
f 321 322 303
f 303 322 323
f 303 323 324
f 324 325 303
f 303 325 326
f 303 326 315
f 327 312 328
f 328 312 329
f 329 312 330
f 330 312 303
f 330 303 331
f 332 333 303
f 303 333 334
f 303 334 335
f 335 336 303
f 303 336 337
f 303 337 338
f 338 339 303
f 303 339 340
f 303 340 331
f 327 341 312
f 312 341 342
f 312 342 343
f 343 342 344
f 343 344 345
f 344 346 345
f 345 346 347
f 345 347 348
f 349 350 351
f 347 352 348
f 348 352 353
f 348 353 350
f 350 353 354
f 350 354 351
f 355 356 357
f 357 356 358
f 357 358 359
f 360 361 362
f 351 363 349
f 349 363 364
f 349 364 361
f 361 364 365
f 361 365 362
f 366 367 357
f 357 367 368
f 357 368 355
f 362 369 360
f 360 369 370
f 360 370 357
f 357 370 371
f 357 371 366
f 233 232 303
f 303 232 372
f 303 372 373
f 374 375 376
f 377 378 375
f 379 380 373
f 373 380 357
f 373 357 303
f 303 357 359
f 303 359 332
f 381 382 230
f 230 382 383
f 376 384 374
f 374 384 220
f 374 220 373
f 373 220 225
f 373 225 379
f 383 385 230
f 230 385 386
f 230 386 387
f 387 388 230
f 230 388 389
f 230 389 390
f 375 378 391
f 391 378 392
f 391 392 393
f 392 394 393
f 393 394 395
f 393 395 396
f 229 248 230
f 230 248 397
f 230 397 381
f 398 399 374
f 374 399 400
f 374 400 401
f 402 403 404
f 390 405 230
f 230 405 406
f 230 406 374
f 374 406 407
f 374 407 398
f 401 408 374
f 374 408 409
f 374 409 375
f 375 409 410
f 375 410 377
f 395 411 396
f 396 411 412
f 396 412 413
f 414 415 248
f 248 415 416
f 248 416 397
f 412 417 413
f 413 417 418
f 413 418 403
f 403 418 419
f 403 419 404
f 404 420 402
f 402 420 421
f 402 421 248
f 248 421 422
f 248 422 414
f 423 424 425
f 426 427 428
f 429 430 431
f 432 433 434
f 435 436 437
f 438 150 132
f 437 436 132
f 132 436 439
f 132 439 438
f 434 433 437
f 437 433 440
f 437 440 435
f 431 430 441
f 441 430 442
f 441 442 443
f 443 444 441
f 441 444 445
f 441 445 434
f 434 445 446
f 434 446 432
f 447 448 449
f 449 448 450
f 449 450 451
f 451 450 452
f 447 453 448
f 448 453 454
f 448 454 431
f 431 454 455
f 431 455 429
f 452 450 456
f 456 450 457
f 456 457 458
f 459 460 461
f 461 460 462
f 461 462 457
f 457 462 463
f 457 463 458
f 427 426 464
f 465 466 467
f 467 466 468
f 467 468 469
f 469 470 467
f 467 470 471
f 467 471 465
f 428 469 426
f 426 469 468
f 426 468 464
f 464 468 472
f 464 472 461
f 461 472 473
f 461 473 459
f 424 474 425
f 425 474 475
f 425 475 428
f 428 475 476
f 428 476 469
f 469 476 477
f 469 477 470
f 478 479 480
f 478 480 425
f 425 480 481
f 425 481 423
f 482 483 484
f 482 484 478
f 478 484 485
f 478 485 479
f 486 487 488
f 488 487 489
f 488 489 482
f 482 489 490
f 482 490 483
f 486 488 491
f 491 488 492
f 491 492 493
f 494 495 496
f 496 495 497
f 496 497 492
f 492 497 498
f 492 498 493
f 499 500 501
f 501 500 502
f 501 502 496
f 496 502 503
f 496 503 494
f 499 501 504
f 504 501 505
f 504 505 506
f 75 507 73
f 73 507 508
f 73 508 505
f 505 508 509
f 505 509 506
f 510 511 240
f 240 511 215
f 215 511 512
f 215 512 216
f 295 284 513
f 513 514 295
f 295 514 515
f 295 515 233
f 233 515 516
f 233 516 234
f 234 516 517
f 234 517 240
f 240 517 518
f 240 518 510
f 282 519 284
f 284 519 520
f 284 520 513
f 521 522 281
f 281 522 523
f 281 523 282
f 282 523 524
f 282 524 519
f 521 281 525
f 525 281 300
f 525 300 526
f 526 300 307
f 526 307 527
f 309 528 529
f 309 529 307
f 307 529 530
f 307 530 527
f 343 531 532
f 343 532 312
f 312 532 533
f 312 533 309
f 309 533 534
f 309 534 528
f 535 536 345
f 345 536 537
f 345 537 343
f 343 537 538
f 343 538 531
f 535 345 539
f 539 345 348
f 539 348 540
f 540 348 350
f 540 350 541
f 349 361 542
f 542 543 349
f 349 543 544
f 349 544 350
f 350 544 545
f 350 545 541
f 360 546 361
f 361 546 547
f 361 547 542
f 548 549 379
f 379 549 550
f 379 550 380
f 380 550 551
f 380 551 357
f 357 551 552
f 357 552 360
f 360 552 553
f 360 553 546
f 548 379 554
f 554 379 225
f 554 225 227
f 232 237 555
f 555 237 556
f 556 237 557
f 557 237 230
f 557 230 374
f 374 373 557
f 557 373 558
f 232 555 372
f 372 555 558
f 372 558 373
f 511 510 508
f 435 550 549
f 543 542 429
f 429 542 547
f 429 547 430
f 430 547 546
f 435 440 550
f 550 440 433
f 550 433 551
f 551 433 432
f 551 432 552
f 552 432 446
f 552 446 553
f 553 446 445
f 445 444 553
f 553 444 443
f 553 443 546
f 546 443 442
f 546 442 430
f 449 539 540
f 540 541 449
f 449 541 545
f 449 545 447
f 447 545 544
f 429 455 543
f 543 455 454
f 543 454 544
f 544 454 453
f 544 453 447
f 424 423 526
f 526 423 481
f 526 481 480
f 480 479 526
f 526 479 485
f 526 485 484
f 424 526 474
f 474 526 527
f 474 527 475
f 475 527 530
f 475 530 476
f 476 530 529
f 476 529 477
f 529 528 477
f 477 528 534
f 477 534 466
f 466 534 533
f 466 533 532
f 532 531 466
f 466 531 538
f 466 538 468
f 468 538 537
f 452 456 535
f 539 449 535
f 535 449 451
f 535 451 452
f 456 458 535
f 535 458 463
f 535 463 462
f 462 460 535
f 535 460 459
f 535 459 536
f 536 459 473
f 536 473 537
f 537 473 472
f 537 472 468
f 484 483 526
f 526 483 490
f 526 490 525
f 525 490 521
f 493 519 491
f 491 519 486
f 486 519 487
f 487 519 524
f 487 524 489
f 489 524 523
f 489 523 490
f 490 523 522
f 490 522 521
f 494 515 495
f 495 515 514
f 495 514 497
f 497 514 498
f 498 514 513
f 498 513 493
f 493 513 520
f 493 520 519
f 494 503 515
f 515 503 502
f 515 502 516
f 516 502 517
f 518 506 510
f 510 506 509
f 510 509 508
f 502 500 517
f 517 500 499
f 517 499 518
f 518 499 504
f 518 504 506
f 112 559 217
f 511 508 512
f 512 508 507
f 512 507 216
f 216 507 75
f 216 75 217
f 217 75 113
f 217 113 112
f 560 218 561
f 561 218 217
f 561 217 562
f 562 217 559
f 560 563 218
f 218 563 564
f 218 564 210
f 465 471 466
f 466 471 470
f 466 470 477
f 226 224 565
f 565 566 226
f 226 566 567
f 226 567 568
f 568 157 226
f 226 157 152
f 226 152 227
f 227 152 150
f 227 150 554
f 554 150 438
f 554 438 548
f 548 438 439
f 548 439 549
f 549 439 436
f 549 436 435
f 223 569 224
f 224 569 570
f 224 570 565
f 571 572 132
f 573 574 427
f 427 574 428
f 428 574 575
f 428 575 425
f 572 576 132
f 132 576 577
f 132 577 437
f 437 577 578
f 437 578 434
f 434 578 579
f 434 579 441
f 441 579 580
f 441 580 431
f 431 580 581
f 425 575 478
f 478 575 582
f 478 582 482
f 482 582 583
f 482 583 488
f 488 583 492
f 492 583 584
f 492 584 496
f 496 584 585
f 496 585 501
f 501 585 586
f 501 586 505
f 427 464 573
f 573 464 461
f 573 461 587
f 587 461 457
f 587 457 588
f 588 457 450
f 588 450 581
f 581 450 448
f 581 448 431
f 505 586 73
f 73 586 589
f 73 589 590
f 85 591 592
f 590 593 73
f 73 593 594
f 73 594 85
f 85 594 595
f 85 595 591
f 592 596 85
f 85 596 597
f 85 597 598
f 598 597 599
f 599 600 598
f 598 600 601
f 598 601 602
f 602 601 603
f 603 604 602
f 602 604 605
f 602 605 143
f 143 605 606
f 143 606 607
f 607 608 143
f 143 608 609
f 143 609 132
f 132 609 610
f 132 610 571
f 611 612 558
f 613 614 555
f 555 614 615
f 615 616 555
f 555 616 617
f 555 617 618
f 618 619 555
f 555 619 620
f 555 620 558
f 558 620 621
f 558 621 611
f 622 623 556
f 556 623 624
f 556 624 555
f 555 624 625
f 555 625 613
f 612 626 558
f 558 626 627
f 558 627 628
f 629 630 556
f 556 630 631
f 556 631 622
f 632 633 557
f 628 634 558
f 558 634 635
f 558 635 636
f 633 637 557
f 557 637 638
f 557 638 639
f 639 640 557
f 557 640 641
f 557 641 556
f 556 641 642
f 556 642 643
f 643 644 556
f 556 644 645
f 556 645 629
f 636 646 558
f 558 646 647
f 558 647 557
f 557 647 648
f 557 648 632
f 593 624 594
f 594 624 623
f 594 623 595
f 595 623 622
f 595 622 591
f 591 622 631
f 591 631 592
f 592 631 630
f 592 630 596
f 596 630 629
f 596 629 597
f 597 629 645
f 597 645 599
f 599 645 644
f 599 644 600
f 600 644 643
f 600 643 601
f 601 643 642
f 601 642 603
f 603 642 641
f 603 641 604
f 604 641 640
f 604 640 605
f 605 640 639
f 605 639 606
f 606 639 638
f 606 638 607
f 607 638 637
f 607 637 608
f 608 637 633
f 608 633 609
f 609 633 632
f 609 632 610
f 610 632 648
f 610 648 571
f 571 648 647
f 571 647 572
f 572 647 646
f 572 646 576
f 576 646 636
f 576 636 577
f 577 636 635
f 577 635 578
f 578 635 634
f 578 634 579
f 579 634 628
f 579 628 580
f 580 628 627
f 580 627 581
f 581 627 626
f 581 626 588
f 588 626 612
f 588 612 587
f 587 612 611
f 587 611 573
f 573 611 621
f 573 621 574
f 574 621 620
f 574 620 575
f 575 620 619
f 575 619 582
f 582 619 618
f 582 618 583
f 583 618 617
f 583 617 584
f 584 617 616
f 584 616 585
f 585 616 615
f 585 615 586
f 586 615 614
f 586 614 589
f 589 614 613
f 589 613 590
f 590 613 625
f 590 625 593
f 593 625 624
f 649 238 650
f 650 238 236
f 650 236 651
f 235 212 214
f 214 652 235
f 235 652 653
f 235 653 236
f 236 653 654
f 236 654 651
f 198 248 199
f 199 248 272
f 199 272 192
f 192 272 260
f 192 260 193
f 193 260 259
f 193 259 194
f 194 259 277
f 194 277 195
f 195 277 267
f 195 267 196
f 196 267 252
f 196 252 655
f 655 252 238
f 655 238 656
f 656 238 649
f 222 220 657
f 657 220 384
f 657 384 658
f 658 384 659
f 659 384 376
f 659 376 660
f 660 376 661
f 661 376 375
f 661 375 662
f 391 663 375
f 375 663 664
f 375 664 662
f 393 200 391
f 391 200 665
f 391 665 663
f 248 198 402
f 402 198 205
f 402 205 403
f 403 205 204
f 403 204 413
f 413 204 203
f 413 203 396
f 396 203 202
f 396 202 393
f 393 202 201
f 393 201 200
f 666 667 668
f 669 670 671
f 667 672 668
f 668 672 673
f 668 673 674
f 674 673 675
f 191 676 677
f 675 678 674
f 674 678 679
f 674 679 680
f 680 679 681
f 680 681 682
f 682 681 683
f 682 683 684
f 685 686 687
f 687 686 688
f 687 688 683
f 683 688 689
f 683 689 684
f 676 191 690
f 690 191 691
f 690 691 692
f 677 693 191
f 191 693 694
f 191 694 197
f 197 694 695
f 197 695 696
f 696 697 197
f 197 697 698
f 197 698 699
f 699 698 700
f 670 701 671
f 671 701 702
f 671 702 700
f 700 702 703
f 700 703 699
f 669 671 704
f 704 671 705
f 704 705 706
f 666 668 705
f 705 668 707
f 705 707 706
f 708 709 710
f 692 711 690
f 690 711 712
f 690 712 708
f 708 712 713
f 708 713 709
f 714 206 715
f 715 206 716
f 715 716 687
f 687 716 717
f 687 717 685
f 714 718 206
f 206 718 719
f 206 719 207
f 207 719 720
f 207 720 721
f 710 722 708
f 708 722 723
f 708 723 724
f 724 723 725
f 724 725 726
f 721 727 207
f 207 727 728
f 207 728 729
f 729 728 730
f 729 730 731
f 731 730 732
f 732 730 733
f 732 733 734
f 726 725 735
f 735 725 736
f 735 736 737
f 737 736 738
f 737 738 733
f 733 738 739
f 733 739 740
f 740 741 733
f 733 741 742
f 733 742 734
f 743 744 745
f 745 744 746
f 745 746 747
f 13 39 14
f 14 39 748
f 14 748 749
f 747 750 745
f 745 750 751
f 745 751 752
f 753 754 46
f 46 754 755
f 46 755 39
f 39 755 756
f 39 756 748
f 748 756 757
f 757 758 748
f 748 758 759
f 748 759 760
f 760 761 748
f 748 761 762
f 748 762 745
f 745 762 763
f 745 763 743
f 764 765 766
f 766 765 767
f 768 745 769
f 769 745 770
f 771 772 748
f 748 772 773
f 748 773 774
f 774 775 748
f 748 775 776
f 748 776 766
f 766 776 777
f 766 777 764
f 767 778 766
f 766 778 779
f 766 779 780
f 781 782 783
f 783 782 784
f 781 785 782
f 782 785 786
f 782 786 787
f 787 788 782
f 782 788 789
f 782 789 745
f 745 789 790
f 745 790 770
f 780 791 766
f 766 791 792
f 766 792 782
f 782 792 793
f 782 793 784
f 794 795 748
f 748 795 796
f 748 796 771
f 768 797 745
f 745 797 798
f 745 798 799
f 799 800 745
f 745 800 801
f 745 801 748
f 748 801 802
f 748 802 794
f 803 34 804
f 804 34 805
f 806 807 51
f 34 22 766
f 766 22 4
f 766 4 2
f 808 809 782
f 782 809 810
f 782 810 766
f 766 810 811
f 766 811 34
f 34 811 812
f 34 812 805
f 813 51 814
f 814 51 815
f 803 816 34
f 34 816 817
f 34 817 51
f 51 817 818
f 51 818 806
f 807 819 51
f 51 819 820
f 51 820 815
f 817 816 761
f 761 816 762
f 13 22 39
f 39 22 34
f 749 748 821
f 821 748 766
f 821 766 10
f 10 766 2
f 822 14 749
f 749 821 823
f 823 824 749
f 749 824 825
f 749 825 826
f 826 827 749
f 749 827 828
f 749 828 822
f 821 10 829
f 821 829 830
f 830 829 831
f 830 831 832
f 678 10 679
f 679 10 9
f 679 9 681
f 681 9 8
f 681 8 683
f 683 8 7
f 683 7 687
f 687 7 6
f 687 6 715
f 715 6 5
f 715 5 714
f 714 5 1
f 714 1 718
f 667 821 672
f 672 821 830
f 672 830 673
f 673 830 832
f 673 832 675
f 675 832 831
f 675 831 678
f 678 831 829
f 678 829 10
f 1 3 718
f 718 3 4
f 718 4 719
f 719 4 31
f 719 31 720
f 720 31 30
f 720 30 721
f 721 30 29
f 721 29 727
f 727 29 28
f 727 28 728
f 728 28 27
f 728 27 730
f 730 27 23
f 730 23 733
f 733 23 21
f 733 21 737
f 737 21 20
f 737 20 735
f 735 20 26
f 735 26 726
f 726 26 25
f 726 25 724
f 724 25 24
f 724 24 708
f 708 24 12
f 708 12 690
f 690 12 11
f 690 11 676
f 676 11 19
f 676 19 677
f 677 19 18
f 677 18 693
f 693 18 17
f 693 17 694
f 694 17 16
f 694 16 695
f 695 16 15
f 695 15 696
f 696 15 14
f 696 14 697
f 697 14 822
f 697 822 698
f 698 822 828
f 698 828 700
f 700 828 827
f 700 827 671
f 671 827 826
f 671 826 705
f 705 826 825
f 705 825 666
f 666 825 824
f 666 824 667
f 667 824 823
f 667 823 821
f 833 834 835
f 835 836 833
f 833 836 837
f 833 837 838
f 839 840 841
f 841 842 839
f 839 842 843
f 839 843 844
f 845 846 847
f 847 848 845
f 845 848 849
f 845 849 850
f 851 852 853
f 854 855 853
f 853 855 856
f 853 856 851
f 857 858 758
f 840 813 814
f 840 814 841
f 841 814 815
f 841 815 842
f 842 815 820
f 842 820 843
f 843 820 844
f 844 820 819
f 844 819 859
f 807 860 819
f 819 860 861
f 819 861 859
f 806 862 863
f 863 864 806
f 806 864 865
f 806 865 807
f 807 865 866
f 807 866 860
f 867 868 760
f 867 760 869
f 759 870 760
f 760 870 871
f 760 871 869
f 868 872 760
f 760 872 873
f 760 873 874
f 818 874 875
f 875 876 818
f 818 876 877
f 818 877 878
f 878 879 818
f 818 879 880
f 818 880 806
f 806 880 881
f 806 881 862
f 758 858 759
f 759 858 882
f 759 882 883
f 883 884 759
f 759 884 885
f 759 885 870
f 835 834 757
f 757 834 886
f 757 886 758
f 758 886 887
f 758 887 857
f 757 756 835
f 835 756 755
f 835 755 836
f 836 755 754
f 836 754 837
f 837 754 753
f 837 753 838
f 874 818 760
f 760 818 817
f 760 817 761
f 888 889 805
f 854 752 751
f 854 751 855
f 855 751 750
f 855 750 856
f 856 750 747
f 856 747 851
f 851 747 852
f 852 747 746
f 852 746 890
f 744 891 746
f 746 891 892
f 746 892 890
f 743 893 894
f 894 895 743
f 743 895 896
f 743 896 744
f 744 896 897
f 744 897 891
f 898 899 803
f 898 803 900
f 804 901 803
f 803 901 902
f 803 902 900
f 899 903 803
f 803 903 904
f 803 904 905
f 763 905 906
f 906 907 763
f 763 907 908
f 763 908 909
f 909 910 763
f 763 910 911
f 763 911 743
f 743 911 912
f 743 912 893
f 805 889 804
f 804 889 913
f 804 913 914
f 914 915 804
f 804 915 916
f 804 916 901
f 847 846 812
f 812 846 917
f 812 917 805
f 805 917 918
f 805 918 888
f 812 811 847
f 847 811 810
f 847 810 848
f 848 810 809
f 848 809 849
f 849 809 808
f 849 808 850
f 905 763 803
f 803 763 762
f 803 762 816
f 598 602 919
f 598 919 920
f 920 919 921
f 920 921 922
f 922 921 923
f 922 923 924
f 924 923 925
f 924 925 926
f 926 925 927
f 926 927 928
f 928 927 929
f 929 927 930
f 929 930 931
f 930 932 931
f 931 932 933
f 931 933 934
f 934 933 935
f 936 937 938
f 938 937 939
f 938 939 940
f 940 939 941
f 940 941 942
f 942 941 943
f 942 943 944
f 944 943 945
f 944 945 935
f 935 945 946
f 935 946 934
f 947 948 949
f 949 948 950
f 936 951 937
f 937 951 949
f 937 949 952
f 952 949 950
f 953 954 955
f 955 954 956
f 957 958 959
f 959 958 948
f 959 948 955
f 955 948 947
f 955 947 953
f 956 208 955
f 955 208 209
f 955 209 959
f 959 209 960
f 959 960 957
f 905 133 906
f 906 133 149
f 149 151 906
f 906 151 153
f 906 153 907
f 907 153 159
f 907 159 908
f 170 911 168
f 168 911 910
f 168 910 166
f 166 910 909
f 166 909 164
f 164 909 908
f 164 908 162
f 162 908 159
f 895 894 172
f 172 894 893
f 172 893 170
f 170 893 912
f 170 912 911
f 172 175 895
f 895 175 177
f 895 177 896
f 896 177 148
f 896 148 897
f 897 148 147
f 897 147 891
f 891 147 961
f 891 961 892
f 892 961 890
f 890 961 853
f 890 853 852
f 846 845 917
f 917 845 962
f 917 962 918
f 918 962 156
f 918 156 888
f 888 156 155
f 888 155 889
f 889 155 154
f 889 154 913
f 913 154 145
f 913 145 914
f 914 145 915
f 915 145 144
f 915 144 916
f 916 144 901
f 901 144 142
f 901 142 902
f 140 898 900
f 902 142 900
f 900 142 141
f 900 141 140
f 138 137 899
f 899 137 903
f 898 140 899
f 899 140 139
f 899 139 138
f 903 137 904
f 904 137 136
f 904 136 135
f 135 134 904
f 904 134 133
f 904 133 905
f 834 833 886
f 886 833 963
f 886 963 887
f 887 963 119
f 887 119 857
f 857 119 114
f 857 114 858
f 858 114 116
f 858 116 882
f 882 116 103
f 882 103 883
f 883 103 884
f 884 103 101
f 884 101 885
f 885 101 870
f 870 101 99
f 870 99 871
f 95 867 869
f 871 99 869
f 869 99 97
f 869 97 95
f 110 94 868
f 868 94 872
f 867 95 868
f 868 95 111
f 868 111 110
f 872 94 873
f 873 94 92
f 873 92 91
f 91 76 873
f 873 76 74
f 873 74 874
f 874 74 875
f 875 74 79
f 79 78 875
f 875 78 77
f 875 77 876
f 876 77 108
f 876 108 877
f 80 880 81
f 81 880 879
f 81 879 82
f 82 879 878
f 82 878 83
f 83 878 877
f 83 877 107
f 107 877 108
f 864 863 84
f 84 863 862
f 84 862 80
f 80 862 881
f 80 881 880
f 84 86 864
f 864 86 106
f 864 106 865
f 865 106 105
f 865 105 866
f 866 105 104
f 866 104 860
f 860 104 964
f 860 964 861
f 861 964 859
f 859 964 839
f 859 839 844
f 965 382 966
f 966 382 381
f 966 381 967
f 967 381 397
f 967 397 968
f 968 397 416
f 968 416 969
f 969 416 415
f 969 415 970
f 970 415 414
f 970 414 971
f 971 414 422
f 971 422 972
f 972 422 421
f 972 421 973
f 973 421 420
f 973 420 974
f 974 420 404
f 974 404 975
f 975 404 419
f 975 419 976
f 976 419 418
f 976 418 977
f 977 418 417
f 977 417 978
f 978 417 412
f 978 412 979
f 979 412 411
f 979 411 980
f 980 411 395
f 980 395 981
f 981 395 394
f 981 394 982
f 982 394 392
f 982 392 983
f 983 392 378
f 983 378 984
f 984 378 377
f 984 377 985
f 985 377 410
f 985 410 986
f 986 410 409
f 986 409 987
f 987 409 408
f 987 408 988
f 988 408 401
f 988 401 989
f 989 401 400
f 989 400 990
f 990 400 399
f 990 399 991
f 991 399 398
f 991 398 992
f 992 398 407
f 992 407 993
f 993 407 406
f 993 406 994
f 994 406 405
f 994 405 995
f 995 405 390
f 995 390 996
f 996 390 389
f 996 389 997
f 997 389 388
f 997 388 998
f 998 388 387
f 998 387 999
f 999 387 386
f 999 386 1000
f 1000 386 385
f 1000 385 1001
f 1001 385 383
f 1001 383 965
f 965 383 382
f 1002 254 1003
f 1003 254 253
f 1003 253 1004
f 1004 253 269
f 1004 269 1005
f 1005 269 268
f 1005 268 1006
f 1006 268 280
f 1006 280 1007
f 1007 280 279
f 1007 279 1008
f 1008 279 278
f 1008 278 1009
f 1009 278 276
f 1009 276 1010
f 1010 276 275
f 1010 275 1011
f 1011 275 261
f 1011 261 1012
f 1012 261 274
f 1012 274 1013
f 1013 274 273
f 1013 273 1014
f 1014 273 271
f 1014 271 1015
f 1015 271 270
f 1015 270 1016
f 1016 270 251
f 1016 251 1017
f 1017 251 250
f 1017 250 1018
f 1018 250 249
f 1018 249 1019
f 1019 249 247
f 1019 247 1020
f 1020 247 229
f 1020 229 1021
f 1021 229 228
f 1021 228 1022
f 1022 228 231
f 1022 231 1023
f 1023 231 266
f 1023 266 1024
f 1024 266 265
f 1024 265 1025
f 1025 265 258
f 1025 258 1026
f 1026 258 257
f 1026 257 1027
f 1027 257 256
f 1027 256 1028
f 1028 256 255
f 1028 255 1029
f 1029 255 264
f 1029 264 1030
f 1030 264 263
f 1030 263 1031
f 1031 263 262
f 1031 262 1032
f 1032 262 246
f 1032 246 1033
f 1033 246 245
f 1033 245 1034
f 1034 245 244
f 1034 244 1035
f 1035 244 243
f 1035 243 1036
f 1036 243 242
f 1036 242 1037
f 1037 242 241
f 1037 241 1038
f 1038 241 239
f 1038 239 1002
f 1002 239 254
f 1039 296 1040
f 1040 296 294
f 1040 294 1041
f 1041 294 293
f 1041 293 1042
f 1042 293 292
f 1042 292 1043
f 1043 292 291
f 1043 291 1044
f 1044 291 290
f 1044 290 1045
f 1045 290 289
f 1045 289 1046
f 1046 289 288
f 1046 288 1047
f 1047 288 287
f 1047 287 1048
f 1048 287 302
f 1048 302 1049
f 1049 302 304
f 1049 304 1050
f 1050 304 317
f 1050 317 1051
f 1051 317 316
f 1051 316 1052
f 1052 316 315
f 1052 315 1053
f 1053 315 326
f 1053 326 1054
f 1054 326 325
f 1054 325 1055
f 1055 325 324
f 1055 324 1056
f 1056 324 323
f 1056 323 1057
f 1057 323 322
f 1057 322 1058
f 1058 322 321
f 1058 321 1059
f 1059 321 320
f 1059 320 1060
f 1060 320 319
f 1060 319 1061
f 1061 319 318
f 1061 318 1062
f 1062 318 314
f 1062 314 1063
f 1063 314 313
f 1063 313 1064
f 1064 313 311
f 1064 311 1065
f 1065 311 310
f 1065 310 1066
f 1066 310 308
f 1066 308 1067
f 1067 308 306
f 1067 306 1068
f 1068 306 305
f 1068 305 1069
f 1069 305 301
f 1069 301 1070
f 1070 301 299
f 1070 299 1071
f 1071 299 298
f 1071 298 1072
f 1072 298 283
f 1072 283 1073
f 1073 283 286
f 1073 286 1074
f 1074 286 285
f 1074 285 1075
f 1075 285 297
f 1075 297 1039
f 1039 297 296
f 1076 331 1077
f 1077 331 340
f 1077 340 1078
f 1078 340 339
f 1078 339 1079
f 1079 339 338
f 1079 338 1080
f 1080 338 337
f 1080 337 1081
f 1081 337 336
f 1081 336 1082
f 1082 336 335
f 1082 335 1083
f 1083 335 334
f 1083 334 1084
f 1084 334 333
f 1084 333 1085
f 1085 333 332
f 1085 332 1086
f 1086 332 359
f 1086 359 1087
f 1087 359 358
f 1087 358 1088
f 1088 358 356
f 1088 356 1089
f 1089 356 355
f 1089 355 1090
f 1090 355 368
f 1090 368 1091
f 1091 368 367
f 1091 367 1092
f 1092 367 366
f 1092 366 1093
f 1093 366 371
f 1093 371 1094
f 1094 371 370
f 1094 370 1095
f 1095 370 369
f 1095 369 1096
f 1096 369 362
f 1096 362 1097
f 1097 362 365
f 1097 365 1098
f 1098 365 364
f 1098 364 1099
f 1099 364 363
f 1099 363 1100
f 1100 363 351
f 1100 351 1101
f 1101 351 354
f 1101 354 1102
f 1102 354 353
f 1102 353 1103
f 1103 353 352
f 1103 352 1104
f 1104 352 347
f 1104 347 1105
f 1105 347 346
f 1105 346 1106
f 1106 346 344
f 1106 344 1107
f 1107 344 342
f 1107 342 1108
f 1108 342 341
f 1108 341 1109
f 1109 341 327
f 1109 327 1110
f 1110 327 328
f 1110 328 1111
f 1111 328 329
f 1111 329 1112
f 1112 329 330
f 1112 330 1076
f 1076 330 331
f 1113 1114 1115
f 1115 1114 1116
f 1115 1116 1117
f 1117 1116 1118
f 1117 1118 1119
f 1119 1118 1120
f 1119 1120 1121
f 1121 1120 1122
f 1121 1122 1123
f 1123 1122 1124
f 1123 1124 1125
f 1125 1124 1126
f 1125 1126 1127
f 1127 1126 1128
f 1127 1128 1129
f 1129 1128 1130
f 1129 1130 1131
f 1131 1130 1132
f 1131 1132 1133
f 1133 1132 1134
f 1133 1134 1135
f 1135 1134 1136
f 1135 1136 1137
f 1137 1136 1138
f 1137 1138 1139
f 1139 1138 1140
f 1139 1140 1141
f 1141 1140 1142
f 1141 1142 1143
f 1143 1142 1144
f 1143 1144 1145
f 1145 1144 1146
f 1145 1146 1147
f 1147 1146 1148
f 1147 1148 1149
f 1149 1148 1150
f 1149 1150 1151
f 1151 1150 1152
f 1151 1152 1153
f 1153 1152 1154
f 1153 1154 1155
f 1155 1154 1156
f 1155 1156 1157
f 1157 1156 1158
f 1157 1158 1159
f 1159 1158 1160
f 1159 1160 1161
f 1161 1160 1162
f 1161 1162 1163
f 1163 1162 1164
f 1163 1164 1165
f 1165 1164 1166
f 1165 1166 1167
f 1167 1166 1168
f 1167 1168 1169
f 1169 1168 1170
f 1169 1170 1171
f 1171 1170 1172
f 1171 1172 1173
f 1173 1172 1174
f 1173 1174 1175
f 1175 1174 1176
f 1175 1176 1177
f 1177 1176 1178
f 1177 1178 1179
f 1179 1178 1180
f 1179 1180 1181
f 1181 1180 1182
f 1181 1182 1183
f 1183 1182 1184
f 1183 1184 1185
f 1185 1184 1186
f 1185 1186 1113
f 1113 1186 1114
f 1113 1115 1187
f 1181 1183 1187
f 1187 1183 1185
f 1187 1185 1113
f 1175 1177 1187
f 1187 1177 1179
f 1187 1179 1181
f 1169 1171 1187
f 1187 1171 1173
f 1187 1173 1175
f 1163 1165 1187
f 1187 1165 1167
f 1187 1167 1169
f 1157 1159 1187
f 1187 1159 1161
f 1187 1161 1163
f 1151 1153 1187
f 1187 1153 1155
f 1187 1155 1157
f 1145 1147 1187
f 1187 1147 1149
f 1187 1149 1151
f 1139 1141 1187
f 1187 1141 1143
f 1187 1143 1145
f 1133 1135 1187
f 1187 1135 1137
f 1187 1137 1139
f 1127 1129 1187
f 1187 1129 1131
f 1187 1131 1133
f 1121 1123 1187
f 1187 1123 1125
f 1187 1125 1127
f 1115 1117 1187
f 1187 1117 1119
f 1187 1119 1121
f 975 1134 974
f 974 1134 1132
f 974 1132 973
f 973 1132 1130
f 973 1130 972
f 972 1130 1128
f 972 1128 971
f 971 1128 1126
f 971 1126 970
f 970 1126 1124
f 970 1124 969
f 969 1124 1122
f 969 1122 968
f 968 1122 1120
f 968 1120 967
f 967 1120 1118
f 967 1118 966
f 966 1118 1116
f 966 1116 965
f 965 1116 1114
f 965 1114 1001
f 1001 1114 1186
f 1001 1186 1000
f 1000 1186 1184
f 1000 1184 999
f 999 1184 1182
f 999 1182 998
f 998 1182 1180
f 998 1180 997
f 997 1180 1178
f 997 1178 996
f 996 1178 1176
f 996 1176 995
f 995 1176 1174
f 995 1174 994
f 994 1174 1172
f 994 1172 993
f 993 1172 1170
f 993 1170 992
f 992 1170 1168
f 992 1168 991
f 991 1168 1166
f 991 1166 990
f 990 1166 1164
f 990 1164 989
f 989 1164 1162
f 989 1162 988
f 988 1162 1160
f 988 1160 987
f 987 1160 1158
f 987 1158 986
f 986 1158 1156
f 986 1156 985
f 985 1156 1154
f 985 1154 984
f 984 1154 1152
f 984 1152 983
f 983 1152 1150
f 983 1150 982
f 982 1150 1148
f 982 1148 981
f 981 1148 1146
f 981 1146 980
f 980 1146 1144
f 980 1144 979
f 979 1144 1142
f 979 1142 978
f 978 1142 1140
f 978 1140 977
f 977 1140 1138
f 977 1138 976
f 976 1138 1136
f 976 1136 975
f 975 1136 1134
f 1188 1189 1190
f 1190 1189 1191
f 1190 1191 1192
f 1192 1191 1193
f 1192 1193 1194
f 1194 1193 1195
f 1194 1195 1196
f 1196 1195 1197
f 1196 1197 1198
f 1198 1197 1199
f 1198 1199 1200
f 1200 1199 1201
f 1200 1201 1202
f 1202 1201 1203
f 1202 1203 1204
f 1204 1203 1205
f 1204 1205 1206
f 1206 1205 1207
f 1206 1207 1208
f 1208 1207 1209
f 1208 1209 1210
f 1210 1209 1211
f 1210 1211 1212
f 1212 1211 1213
f 1212 1213 1214
f 1214 1213 1215
f 1214 1215 1216
f 1216 1215 1217
f 1216 1217 1218
f 1218 1217 1219
f 1218 1219 1220
f 1220 1219 1221
f 1220 1221 1222
f 1222 1221 1223
f 1222 1223 1224
f 1224 1223 1225
f 1224 1225 1226
f 1226 1225 1227
f 1226 1227 1228
f 1228 1227 1229
f 1228 1229 1230
f 1230 1229 1231
f 1230 1231 1232
f 1232 1231 1233
f 1232 1233 1234
f 1234 1233 1235
f 1234 1235 1236
f 1236 1235 1237
f 1236 1237 1238
f 1238 1237 1239
f 1238 1239 1240
f 1240 1239 1241
f 1240 1241 1242
f 1242 1241 1243
f 1242 1243 1244
f 1244 1243 1245
f 1244 1245 1246
f 1246 1245 1247
f 1246 1247 1248
f 1248 1247 1249
f 1248 1249 1250
f 1250 1249 1251
f 1250 1251 1252
f 1252 1251 1253
f 1252 1253 1254
f 1254 1253 1255
f 1254 1255 1256
f 1256 1255 1257
f 1256 1257 1258
f 1258 1257 1259
f 1258 1259 1260
f 1260 1259 1261
f 1260 1261 1188
f 1188 1261 1189
f 1188 1190 1262
f 1256 1258 1262
f 1262 1258 1260
f 1262 1260 1188
f 1250 1252 1262
f 1262 1252 1254
f 1262 1254 1256
f 1244 1246 1262
f 1262 1246 1248
f 1262 1248 1250
f 1238 1240 1262
f 1262 1240 1242
f 1262 1242 1244
f 1232 1234 1262
f 1262 1234 1236
f 1262 1236 1238
f 1226 1228 1262
f 1262 1228 1230
f 1262 1230 1232
f 1220 1222 1262
f 1262 1222 1224
f 1262 1224 1226
f 1214 1216 1262
f 1262 1216 1218
f 1262 1218 1220
f 1208 1210 1262
f 1262 1210 1212
f 1262 1212 1214
f 1202 1204 1262
f 1262 1204 1206
f 1262 1206 1208
f 1196 1198 1262
f 1262 1198 1200
f 1262 1200 1202
f 1190 1192 1262
f 1262 1192 1194
f 1262 1194 1196
f 1012 1209 1011
f 1011 1209 1207
f 1011 1207 1010
f 1010 1207 1205
f 1010 1205 1009
f 1009 1205 1203
f 1009 1203 1008
f 1008 1203 1201
f 1008 1201 1007
f 1007 1201 1199
f 1007 1199 1006
f 1006 1199 1197
f 1006 1197 1005
f 1005 1197 1195
f 1005 1195 1004
f 1004 1195 1193
f 1004 1193 1003
f 1003 1193 1191
f 1003 1191 1002
f 1002 1191 1189
f 1002 1189 1038
f 1038 1189 1261
f 1038 1261 1037
f 1037 1261 1259
f 1037 1259 1036
f 1036 1259 1257
f 1036 1257 1035
f 1035 1257 1255
f 1035 1255 1034
f 1034 1255 1253
f 1034 1253 1033
f 1033 1253 1251
f 1033 1251 1032
f 1032 1251 1249
f 1032 1249 1031
f 1031 1249 1247
f 1031 1247 1030
f 1030 1247 1245
f 1030 1245 1029
f 1029 1245 1243
f 1029 1243 1028
f 1028 1243 1241
f 1028 1241 1027
f 1027 1241 1239
f 1027 1239 1026
f 1026 1239 1237
f 1026 1237 1025
f 1025 1237 1235
f 1025 1235 1024
f 1024 1235 1233
f 1024 1233 1023
f 1023 1233 1231
f 1023 1231 1022
f 1022 1231 1229
f 1022 1229 1021
f 1021 1229 1227
f 1021 1227 1020
f 1020 1227 1225
f 1020 1225 1019
f 1019 1225 1223
f 1019 1223 1018
f 1018 1223 1221
f 1018 1221 1017
f 1017 1221 1219
f 1017 1219 1016
f 1016 1219 1217
f 1016 1217 1015
f 1015 1217 1215
f 1015 1215 1014
f 1014 1215 1213
f 1014 1213 1013
f 1013 1213 1211
f 1013 1211 1012
f 1012 1211 1209
f 1263 1264 1265
f 1265 1264 1266
f 1265 1266 1267
f 1267 1266 1268
f 1267 1268 1269
f 1269 1268 1270
f 1269 1270 1271
f 1271 1270 1272
f 1271 1272 1273
f 1273 1272 1274
f 1273 1274 1275
f 1275 1274 1276
f 1275 1276 1277
f 1277 1276 1278
f 1277 1278 1279
f 1279 1278 1280
f 1279 1280 1281
f 1281 1280 1282
f 1281 1282 1283
f 1283 1282 1284
f 1283 1284 1285
f 1285 1284 1286
f 1285 1286 1287
f 1287 1286 1288
f 1287 1288 1289
f 1289 1288 1290
f 1289 1290 1291
f 1291 1290 1292
f 1291 1292 1293
f 1293 1292 1294
f 1293 1294 1295
f 1295 1294 1296
f 1295 1296 1297
f 1297 1296 1298
f 1297 1298 1299
f 1299 1298 1300
f 1299 1300 1301
f 1301 1300 1302
f 1301 1302 1303
f 1303 1302 1304
f 1303 1304 1305
f 1305 1304 1306
f 1305 1306 1307
f 1307 1306 1308
f 1307 1308 1309
f 1309 1308 1310
f 1309 1310 1311
f 1311 1310 1312
f 1311 1312 1313
f 1313 1312 1314
f 1313 1314 1315
f 1315 1314 1316
f 1315 1316 1317
f 1317 1316 1318
f 1317 1318 1319
f 1319 1318 1320
f 1319 1320 1321
f 1321 1320 1322
f 1321 1322 1323
f 1323 1322 1324
f 1323 1324 1325
f 1325 1324 1326
f 1325 1326 1327
f 1327 1326 1328
f 1327 1328 1329
f 1329 1328 1330
f 1329 1330 1331
f 1331 1330 1332
f 1331 1332 1333
f 1333 1332 1334
f 1333 1334 1335
f 1335 1334 1336
f 1335 1336 1263
f 1263 1336 1264
f 1263 1265 1337
f 1331 1333 1337
f 1337 1333 1335
f 1337 1335 1263
f 1325 1327 1337
f 1337 1327 1329
f 1337 1329 1331
f 1319 1321 1337
f 1337 1321 1323
f 1337 1323 1325
f 1313 1315 1337
f 1337 1315 1317
f 1337 1317 1319
f 1307 1309 1337
f 1337 1309 1311
f 1337 1311 1313
f 1301 1303 1337
f 1337 1303 1305
f 1337 1305 1307
f 1295 1297 1337
f 1337 1297 1299
f 1337 1299 1301
f 1289 1291 1337
f 1337 1291 1293
f 1337 1293 1295
f 1283 1285 1337
f 1337 1285 1287
f 1337 1287 1289
f 1277 1279 1337
f 1337 1279 1281
f 1337 1281 1283
f 1271 1273 1337
f 1337 1273 1275
f 1337 1275 1277
f 1265 1267 1337
f 1337 1267 1269
f 1337 1269 1271
f 1054 1294 1053
f 1053 1294 1292
f 1053 1292 1052
f 1052 1292 1290
f 1052 1290 1051
f 1051 1290 1288
f 1051 1288 1050
f 1050 1288 1286
f 1050 1286 1049
f 1049 1286 1284
f 1049 1284 1048
f 1048 1284 1282
f 1048 1282 1047
f 1047 1282 1280
f 1047 1280 1046
f 1046 1280 1278
f 1046 1278 1045
f 1045 1278 1276
f 1045 1276 1044
f 1044 1276 1274
f 1044 1274 1043
f 1043 1274 1272
f 1043 1272 1042
f 1042 1272 1270
f 1042 1270 1041
f 1041 1270 1268
f 1041 1268 1040
f 1040 1268 1266
f 1040 1266 1039
f 1039 1266 1264
f 1039 1264 1075
f 1075 1264 1336
f 1075 1336 1074
f 1074 1336 1334
f 1074 1334 1073
f 1073 1334 1332
f 1073 1332 1072
f 1072 1332 1330
f 1072 1330 1071
f 1071 1330 1328
f 1071 1328 1070
f 1070 1328 1326
f 1070 1326 1069
f 1069 1326 1324
f 1069 1324 1068
f 1068 1324 1322
f 1068 1322 1067
f 1067 1322 1320
f 1067 1320 1066
f 1066 1320 1318
f 1066 1318 1065
f 1065 1318 1316
f 1065 1316 1064
f 1064 1316 1314
f 1064 1314 1063
f 1063 1314 1312
f 1063 1312 1062
f 1062 1312 1310
f 1062 1310 1061
f 1061 1310 1308
f 1061 1308 1060
f 1060 1308 1306
f 1060 1306 1059
f 1059 1306 1304
f 1059 1304 1058
f 1058 1304 1302
f 1058 1302 1057
f 1057 1302 1300
f 1057 1300 1056
f 1056 1300 1298
f 1056 1298 1055
f 1055 1298 1296
f 1055 1296 1054
f 1054 1296 1294
f 1338 1339 1340
f 1340 1339 1341
f 1340 1341 1342
f 1342 1341 1343
f 1342 1343 1344
f 1344 1343 1345
f 1344 1345 1346
f 1346 1345 1347
f 1346 1347 1348
f 1348 1347 1349
f 1348 1349 1350
f 1350 1349 1351
f 1350 1351 1352
f 1352 1351 1353
f 1352 1353 1354
f 1354 1353 1355
f 1354 1355 1356
f 1356 1355 1357
f 1356 1357 1358
f 1358 1357 1359
f 1358 1359 1360
f 1360 1359 1361
f 1360 1361 1362
f 1362 1361 1363
f 1362 1363 1364
f 1364 1363 1365
f 1364 1365 1366
f 1366 1365 1367
f 1366 1367 1368
f 1368 1367 1369
f 1368 1369 1370
f 1370 1369 1371
f 1370 1371 1372
f 1372 1371 1373
f 1372 1373 1374
f 1374 1373 1375
f 1374 1375 1376
f 1376 1375 1377
f 1376 1377 1378
f 1378 1377 1379
f 1378 1379 1380
f 1380 1379 1381
f 1380 1381 1382
f 1382 1381 1383
f 1382 1383 1384
f 1384 1383 1385
f 1384 1385 1386
f 1386 1385 1387
f 1386 1387 1388
f 1388 1387 1389
f 1388 1389 1390
f 1390 1389 1391
f 1390 1391 1392
f 1392 1391 1393
f 1392 1393 1394
f 1394 1393 1395
f 1394 1395 1396
f 1396 1395 1397
f 1396 1397 1398
f 1398 1397 1399
f 1398 1399 1400
f 1400 1399 1401
f 1400 1401 1402
f 1402 1401 1403
f 1402 1403 1404
f 1404 1403 1405
f 1404 1405 1406
f 1406 1405 1407
f 1406 1407 1408
f 1408 1407 1409
f 1408 1409 1410
f 1410 1409 1411
f 1410 1411 1338
f 1338 1411 1339
f 1338 1340 1412
f 1406 1408 1412
f 1412 1408 1410
f 1412 1410 1338
f 1400 1402 1412
f 1412 1402 1404
f 1412 1404 1406
f 1394 1396 1412
f 1412 1396 1398
f 1412 1398 1400
f 1388 1390 1412
f 1412 1390 1392
f 1412 1392 1394
f 1382 1384 1412
f 1412 1384 1386
f 1412 1386 1388
f 1376 1378 1412
f 1412 1378 1380
f 1412 1380 1382
f 1370 1372 1412
f 1412 1372 1374
f 1412 1374 1376
f 1364 1366 1412
f 1412 1366 1368
f 1412 1368 1370
f 1358 1360 1412
f 1412 1360 1362
f 1412 1362 1364
f 1352 1354 1412
f 1412 1354 1356
f 1412 1356 1358
f 1346 1348 1412
f 1412 1348 1350
f 1412 1350 1352
f 1340 1342 1412
f 1412 1342 1344
f 1412 1344 1346
f 1091 1369 1090
f 1090 1369 1367
f 1090 1367 1089
f 1089 1367 1365
f 1089 1365 1088
f 1088 1365 1363
f 1088 1363 1087
f 1087 1363 1361
f 1087 1361 1086
f 1086 1361 1359
f 1086 1359 1085
f 1085 1359 1357
f 1085 1357 1084
f 1084 1357 1355
f 1084 1355 1083
f 1083 1355 1353
f 1083 1353 1082
f 1082 1353 1351
f 1082 1351 1081
f 1081 1351 1349
f 1081 1349 1080
f 1080 1349 1347
f 1080 1347 1079
f 1079 1347 1345
f 1079 1345 1078
f 1078 1345 1343
f 1078 1343 1077
f 1077 1343 1341
f 1077 1341 1076
f 1076 1341 1339
f 1076 1339 1112
f 1112 1339 1411
f 1112 1411 1111
f 1111 1411 1409
f 1111 1409 1110
f 1110 1409 1407
f 1110 1407 1109
f 1109 1407 1405
f 1109 1405 1108
f 1108 1405 1403
f 1108 1403 1107
f 1107 1403 1401
f 1107 1401 1106
f 1106 1401 1399
f 1106 1399 1105
f 1105 1399 1397
f 1105 1397 1104
f 1104 1397 1395
f 1104 1395 1103
f 1103 1395 1393
f 1103 1393 1102
f 1102 1393 1391
f 1102 1391 1101
f 1101 1391 1389
f 1101 1389 1100
f 1100 1389 1387
f 1100 1387 1099
f 1099 1387 1385
f 1099 1385 1098
f 1098 1385 1383
f 1098 1383 1097
f 1097 1383 1381
f 1097 1381 1096
f 1096 1381 1379
f 1096 1379 1095
f 1095 1379 1377
f 1095 1377 1094
f 1094 1377 1375
f 1094 1375 1093
f 1093 1375 1373
f 1093 1373 1092
f 1092 1373 1371
f 1092 1371 1091
f 1091 1371 1369
f 1413 792 1414
f 1414 792 791
f 1414 791 1415
f 1415 791 780
f 1415 780 1416
f 1416 780 779
f 1416 779 1417
f 1417 779 778
f 1417 778 1418
f 1418 778 767
f 1418 767 1419
f 1419 767 765
f 1419 765 1420
f 1420 765 764
f 1420 764 1421
f 1421 764 777
f 1421 777 1422
f 1422 777 776
f 1422 776 1423
f 1423 776 775
f 1423 775 1424
f 1424 775 774
f 1424 774 1425
f 1425 774 773
f 1425 773 1426
f 1426 773 772
f 1426 772 1427
f 1427 772 771
f 1427 771 1428
f 1428 771 796
f 1428 796 1429
f 1429 796 795
f 1429 795 1430
f 1430 795 794
f 1430 794 1431
f 1431 794 802
f 1431 802 1432
f 1432 802 801
f 1432 801 1433
f 1433 801 800
f 1433 800 1434
f 1434 800 799
f 1434 799 1435
f 1435 799 798
f 1435 798 1436
f 1436 798 797
f 1436 797 1437
f 1437 797 768
f 1437 768 1438
f 1438 768 769
f 1438 769 1439
f 1439 769 770
f 1439 770 1440
f 1440 770 790
f 1440 790 1441
f 1441 790 789
f 1441 789 1442
f 1442 789 788
f 1442 788 1443
f 1443 788 787
f 1443 787 1444
f 1444 787 786
f 1444 786 1445
f 1445 786 785
f 1445 785 1446
f 1446 785 781
f 1446 781 1447
f 1447 781 783
f 1447 783 1448
f 1448 783 784
f 1448 784 1449
f 1449 784 793
f 1449 793 1413
f 1413 793 792
f 1413 1414 1450
f 1447 1448 1450
f 1450 1448 1449
f 1450 1449 1413
f 1444 1445 1450
f 1450 1445 1446
f 1450 1446 1447
f 1441 1442 1450
f 1450 1442 1443
f 1450 1443 1444
f 1438 1439 1450
f 1450 1439 1440
f 1450 1440 1441
f 1435 1436 1450
f 1450 1436 1437
f 1450 1437 1438
f 1432 1433 1450
f 1450 1433 1434
f 1450 1434 1435
f 1429 1430 1450
f 1450 1430 1431
f 1450 1431 1432
f 1426 1427 1450
f 1450 1427 1428
f 1450 1428 1429
f 1423 1424 1450
f 1450 1424 1425
f 1450 1425 1426
f 1420 1421 1450
f 1450 1421 1422
f 1450 1422 1423
f 1417 1418 1450
f 1450 1418 1419
f 1450 1419 1420
f 1414 1415 1450
f 1450 1415 1416
f 1450 1416 1417
f 1451 60 1452
f 1452 60 59
f 1452 59 1453
f 1453 59 58
f 1453 58 1454
f 1454 58 57
f 1454 57 1455
f 1455 57 56
f 1455 56 1456
f 1456 56 55
f 1456 55 1457
f 1457 55 54
f 1457 54 1458
f 1458 54 53
f 1458 53 1459
f 1459 53 52
f 1459 52 1460
f 1460 52 50
f 1460 50 1461
f 1461 50 49
f 1461 49 1462
f 1462 49 48
f 1462 48 1463
f 1463 48 47
f 1463 47 1464
f 1464 47 45
f 1464 45 1465
f 1465 45 44
f 1465 44 1466
f 1466 44 72
f 1466 72 1467
f 1467 72 71
f 1467 71 1468
f 1468 71 70
f 1468 70 1469
f 1469 70 69
f 1469 69 1470
f 1470 69 68
f 1470 68 1471
f 1471 68 67
f 1471 67 1472
f 1472 67 66
f 1472 66 1473
f 1473 66 65
f 1473 65 1474
f 1474 65 64
f 1474 64 1475
f 1475 64 40
f 1475 40 1476
f 1476 40 38
f 1476 38 1477
f 1477 38 37
f 1477 37 1478
f 1478 37 63
f 1478 63 1479
f 1479 63 62
f 1479 62 1480
f 1480 62 61
f 1480 61 1481
f 1481 61 43
f 1481 43 1482
f 1482 43 42
f 1482 42 1483
f 1483 42 41
f 1483 41 1484
f 1484 41 36
f 1484 36 1485
f 1485 36 35
f 1485 35 1486
f 1486 35 33
f 1486 33 1487
f 1487 33 32
f 1487 32 1451
f 1451 32 60
f 1451 1452 1488
f 1485 1486 1488
f 1488 1486 1487
f 1488 1487 1451
f 1482 1483 1488
f 1488 1483 1484
f 1488 1484 1485
f 1479 1480 1488
f 1488 1480 1481
f 1488 1481 1482
f 1476 1477 1488
f 1488 1477 1478
f 1488 1478 1479
f 1473 1474 1488
f 1488 1474 1475
f 1488 1475 1476
f 1470 1471 1488
f 1488 1471 1472
f 1488 1472 1473
f 1467 1468 1488
f 1488 1468 1469
f 1488 1469 1470
f 1464 1465 1488
f 1488 1465 1466
f 1488 1466 1467
f 1461 1462 1488
f 1488 1462 1463
f 1488 1463 1464
f 1458 1459 1488
f 1488 1459 1460
f 1488 1460 1461
f 1455 1456 1488
f 1488 1456 1457
f 1488 1457 1458
f 1452 1453 1488
f 1488 1453 1454
f 1488 1454 1455
f 725 120 46
f 46 120 753
f 838 753 833
f 833 753 120
f 833 120 963
f 963 120 119
f 725 46 736
f 736 46 51
f 736 51 598
f 598 51 813
f 598 813 840
f 104 85 964
f 964 85 598
f 964 598 839
f 839 598 840
f 961 147 146
f 602 143 156
f 602 808 782
f 850 808 845
f 845 808 602
f 845 602 962
f 962 602 156
f 752 146 745
f 745 146 668
f 745 668 782
f 782 668 674
f 782 674 602
f 752 854 146
f 146 854 853
f 146 853 961
f 686 685 953
f 953 685 717
f 953 717 954
f 954 717 716
f 954 716 956
f 956 716 206
f 956 206 208
f 953 947 686
f 686 947 949
f 686 949 688
f 949 951 688
f 688 951 936
f 688 936 689
f 936 938 689
f 689 938 940
f 689 940 684
f 940 942 684
f 684 942 944
f 684 944 682
f 944 935 682
f 682 935 933
f 682 933 680
f 680 933 932
f 680 932 930
f 930 927 680
f 680 927 925
f 680 925 674
f 674 925 923
f 923 921 674
f 674 921 919
f 674 919 602
f 158 157 568
f 569 223 219
f 219 221 569
f 569 221 222
f 569 222 570
f 657 703 702
f 657 658 703
f 703 658 659
f 703 659 660
f 222 657 570
f 570 657 702
f 570 702 565
f 565 702 701
f 565 701 566
f 566 701 670
f 566 670 567
f 158 568 160
f 163 161 669
f 669 161 160
f 669 160 670
f 670 160 568
f 670 568 567
f 171 169 704
f 704 169 167
f 704 167 669
f 669 167 165
f 669 165 163
f 178 176 706
f 706 176 174
f 706 174 704
f 704 174 173
f 704 173 171
f 707 668 146
f 146 181 707
f 707 181 182
f 707 182 185
f 185 184 707
f 707 184 183
f 707 183 190
f 190 189 707
f 707 189 187
f 707 187 186
f 186 188 707
f 707 188 180
f 707 180 706
f 706 180 179
f 706 179 178
f 664 699 662
f 662 699 703
f 662 703 661
f 661 703 660
f 200 197 665
f 665 197 699
f 665 699 663
f 663 699 664
f 732 957 731
f 731 957 960
f 731 960 729
f 729 960 209
f 729 209 207
f 734 948 732
f 732 948 958
f 732 958 957
f 742 952 734
f 734 952 950
f 734 950 948
f 741 939 742
f 742 939 937
f 742 937 952
f 740 943 741
f 741 943 941
f 741 941 939
f 739 946 740
f 740 946 945
f 740 945 943
f 928 929 738
f 738 929 931
f 738 931 739
f 739 931 934
f 739 934 946
f 736 598 920
f 920 922 736
f 736 922 924
f 736 924 738
f 738 924 926
f 738 926 928
f 211 210 564
f 129 128 723
f 723 128 126
f 124 123 725
f 725 123 122
f 725 122 120
f 126 131 723
f 723 131 130
f 723 130 725
f 725 130 125
f 725 125 124
f 117 115 722
f 722 115 121
f 722 121 723
f 723 121 127
f 723 127 129
f 98 100 710
f 710 100 102
f 710 102 722
f 722 102 118
f 722 118 117
f 87 709 88
f 88 709 89
f 87 109 709
f 709 109 93
f 709 93 710
f 710 93 96
f 710 96 98
f 709 713 89
f 89 713 559
f 89 559 90
f 90 559 112
f 712 711 563
f 563 560 712
f 712 560 561
f 712 561 713
f 713 561 562
f 713 562 559
f 692 650 711
f 711 650 651
f 711 651 654
f 654 653 711
f 711 653 652
f 711 652 563
f 563 652 214
f 563 214 564
f 564 214 213
f 564 213 211
f 691 191 196
f 196 655 691
f 691 655 656
f 691 656 692
f 692 656 649
f 692 649 650
